<svg xmlns="http://www.w3.org/2000/svg" width="16.5" height="18.857" viewBox="0 0 16.5 18.857">
  <path id="Icon_awesome-calendar-alt" data-name="Icon awesome-calendar-alt" d="M0,17.089a1.768,1.768,0,0,0,1.768,1.768H14.732A1.768,1.768,0,0,0,16.5,17.089V7.071H0ZM11.786,9.871a.443.443,0,0,1,.442-.442H13.7a.443.443,0,0,1,.442.442v1.473a.443.443,0,0,1-.442.442H12.228a.443.443,0,0,1-.442-.442Zm0,4.714a.443.443,0,0,1,.442-.442H13.7a.443.443,0,0,1,.442.442v1.473a.443.443,0,0,1-.442.442H12.228a.443.443,0,0,1-.442-.442ZM7.071,9.871a.443.443,0,0,1,.442-.442H8.987a.443.443,0,0,1,.442.442v1.473a.443.443,0,0,1-.442.442H7.513a.443.443,0,0,1-.442-.442Zm0,4.714a.443.443,0,0,1,.442-.442H8.987a.443.443,0,0,1,.442.442v1.473a.443.443,0,0,1-.442.442H7.513a.443.443,0,0,1-.442-.442ZM2.357,9.871A.443.443,0,0,1,2.8,9.429H4.272a.443.443,0,0,1,.442.442v1.473a.443.443,0,0,1-.442.442H2.8a.443.443,0,0,1-.442-.442Zm0,4.714a.443.443,0,0,1,.442-.442H4.272a.443.443,0,0,1,.442.442v1.473a.443.443,0,0,1-.442.442H2.8a.443.443,0,0,1-.442-.442ZM14.732,2.357H12.964V.589A.591.591,0,0,0,12.375,0H11.2a.591.591,0,0,0-.589.589V2.357H5.893V.589A.591.591,0,0,0,5.3,0H4.125a.591.591,0,0,0-.589.589V2.357H1.768A1.768,1.768,0,0,0,0,4.125V5.893H16.5V4.125A1.768,1.768,0,0,0,14.732,2.357Z" fill="#57358e"/>
</svg>
