<svg xmlns="http://www.w3.org/2000/svg" width="393.313" height="268.197" viewBox="0 0 393.313 268.197"><g transform="translate(0 -54.143)"><path d="M220.588,159.448l1.674,138.13,72.348,35.241-1.674-138.13Z" transform="translate(-130.419 -94.271)" fill="#f2f2f2"/><path d="M88.613,132.454,34.553,243.435l73.352,35.731-1.674-138.13Z" transform="translate(-20.429 -78.311)" fill="#f2f2f2"/><path d="M751.009,411,605,339.875l1.674,138.13,90.275,43.973Z" transform="translate(-357.696 -200.945)" fill="#f2f2f2"/><path d="M413.579,245.662l1.674,138.13L487.6,419.033,485.927,280.9Z" transform="translate(-244.522 -145.243)" fill="#f2f2f2"/><rect width="9.092" height="11.69" transform="translate(323.27 106.654) rotate(-2.221)" fill="#6c63ff"/><path d="M813.8,411.609s-12.581-6.011-12.38-.82S814.1,419.4,814.1,419.4Z" transform="translate(-522.428 -264.398)" fill="#ffb9b9"/><path d="M832.04,513.262s-5.936,14.528-8.129,25.012-5.533,24.911-1.237,35.143,16.511,40.3,16.637,43.549-1.046,6.54,1.549,6.439,16.721-4.548,17.295-6.52-4.819-6.962-4.819-6.962l-13.317-41.728,13.894-27.185,10.021,40.556,1.963,50.617s9.633-2.973,11.032-.428c0,0,4.316-6.017,4.864-8.638s-2.038-52.564-2.038-52.564,8.843-56.885,1.7-56.608S846.362,497.109,832.04,513.262Z" transform="translate(-533.765 -322.125)" fill="#2f2e41"/><path d="M855.351,779.943s-6.585,14.553-7.208,15.228-4.915,7.34-1.67,7.214,10.906-3.672,16.545-9.09,13.074-14.805,12.4-15.429-5.292-2.394-5.292-2.394Z" transform="translate(-548.356 -481.259)" fill="#2f2e41"/><path d="M930.992,804.473s-.4,6.515-1.594,9.161-1.046,6.54,2.2,6.414,11.631-1.751,11.631-1.751.5-3.919-.176-4.542-3.547-7.661-2.324-9.659S930.992,804.473,930.992,804.473Z" transform="translate(-597.688 -497.71)" fill="#2f2e41"/><path d="M932.416,288.992s6.917,10.78,9.614,13.275-4.89,7.989-4.89,7.989l-13.577,1.826s.171-12.355-.528-13.628S932.416,288.992,932.416,288.992Z" transform="translate(-594.312 -193.637)" fill="#ffb9b9"/><path d="M896.292,319.206s2.8,5.091,5.393,4.99,16.022-5.821,16.6-7.793,4.447,14.126,4.447,14.126l-32.853,57.816-8.014-5.538,3.883-33.946,3.189-18.321Z" transform="translate(-569.989 -209.744)" fill="#57358e"/><path d="M895.624,365.3a18.181,18.181,0,0,0-2.016,8.527c.005.13.01.26.022.389.311,6.006,2.523,12.952,3.317,18,.576,3.624.412,6.269-1.709,6.89-5.141,1.5.75,2.571-19.141,9.191s-23.362.906-23.412-.392,2.817-11.158,2.143-11.781-9.432,8.165-12.078,6.967-.3-7.787-.3-7.787,5.961-13.879,5.835-17.124,9.029-18.548,9.029-18.548L863.54,319.1s2.394-5.292,5.614-6.067a7.975,7.975,0,0,1,5.891,1.071l-5.387,11.907-5.684,21.018.951,7.762s6.61-13.9,10.951-19.272,13.6-18.075,13.6-18.075,2.161-7.291.53-9.47,6.8-2.513,10.4,6.447c1.906,4.748,5,11.829,6.941,18.422,1.728,5.841,2.544,11.3.832,14.422C905.56,352.033,898.979,358.3,895.624,365.3Z" transform="translate(-546.121 -204.095)" fill="#393951"/><path d="M982.7,382.773c-2.616,4.768-9.2,11.035-12.552,18.034-.876-3.157-1.945-6.424-1.945-6.424s-4.1-21.938,8.028-27.608a8.117,8.117,0,0,1,5.637,1.575C983.591,374.192,984.408,379.652,982.7,382.773Z" transform="translate(-620.64 -239.603)" fill="#7a7da8" opacity="0.1"/><path d="M849.2,402.583l-10.282,3-14.277.554-1.469,12.405,23.462,1.69S852.492,403.755,849.2,402.583Z" transform="translate(-535.289 -260.795)" fill="#393951"/><path d="M911.832,504.623s-13.756,2.282-10.616,6.422,15.325-.212,15.325-.212Z" transform="translate(-581.157 -321.125)" fill="#ffb9b9"/><path d="M939.778,471.9c.311,6.006,2.523,12.952,3.317,18-4.382,4.147-8.549,7.805-10.12,7.866-3.245.126-8.461-.322-10.383.4s-3.049-11.58-3.049-11.58,1.147-3.944,6.263-6.092A71.241,71.241,0,0,0,939.778,471.9Z" transform="translate(-592.269 -301.775)" opacity="0.1"/><path d="M947.485,357.242s10.982-1.726,10.388,16.495,1.158,29.851-3.259,33.272-18.763,18.925-22.008,19.051-8.461-.322-10.383.4-3.049-11.58-3.049-11.58,1.147-3.944,6.263-6.092,17.169-9.765,17.068-12.36-3.049-11.58-3.049-11.58S935.356,362.911,947.485,357.242Z" transform="translate(-592.05 -233.962)" fill="#393951"/><circle cx="14.287" cy="14.287" r="14.287" transform="translate(314.133 82.744)" fill="#ffb9b9"/><path d="M887.811,238.821a2.759,2.759,0,0,1-1.2.6.857.857,0,0,1-.993-.688,3.562,3.562,0,0,1-1.363,1.748c-.667.348-1.7.056-1.8-.69a3.15,3.15,0,0,1-.725,1.53,1.086,1.086,0,0,1-1.526.051,39.228,39.228,0,0,1,.2,4.861,6.189,6.189,0,0,0,1.749,4.406c1.786,1.555,4.472,1.171,6.822.876a2.071,2.071,0,0,1,1.069.058c.88.375.84,1.6.852,2.556a7.1,7.1,0,0,0,6.218,6.744,3.56,3.56,0,0,0,2.646-.646c.667-.565,1.008-1.487,1.772-1.912,1.244-.691,2.752.317,3.661,1.411s1.805,2.44,3.214,2.64c1.863.265,3.281-1.633,3.978-3.381A19.712,19.712,0,0,0,912,243.672C908.109,235.194,894.823,233.852,887.811,238.821Z" transform="translate(-569.011 -162.268)" fill="#2f2e41"/><circle cx="29.431" cy="29.431" r="29.431" transform="translate(55.592 261.166)" fill="#6c63ff"/><path d="M294.359,634.987c2.537,9.377,11.225,15.184,11.225,15.184s4.576-9.4,2.039-18.773S296.4,616.214,296.4,616.214,291.823,625.609,294.359,634.987Z" transform="translate(-222.186 -387.101)" fill="#3f3d56"/><path d="M279.425,646.584c6.961,6.776,7.811,17.192,7.811,17.192s-10.435-.57-17.4-7.346-7.811-17.192-7.811-17.192S272.465,639.809,279.425,646.584Z" transform="translate(-203.524 -400.714)" fill="#6c63ff"/><path d="M327.855,636.485c-4.675,8.515-2.442,18.724-2.442,18.724s9.813-3.6,14.487-12.111,2.442-18.725,2.442-18.725S332.53,627.97,327.855,636.485Z" transform="translate(-240.683 -391.925)" fill="#3f3d56"/><path d="M322.266,631.672c.316,9.709-6.294,17.8-6.294,17.8s-7.123-7.647-7.44-17.356,6.294-17.8,6.294-17.8S321.95,621.963,322.266,631.672Z" transform="translate(-231.012 -385.979)" fill="#6c63ff"/><circle cx="15.124" cy="15.124" r="15.124" transform="translate(68.673 272.203)" fill="#f2f2f2"/><circle cx="4.905" cy="4.905" r="4.905" transform="translate(83.797 275.064)" fill="#3f3d56"/><rect width="153.288" height="0.818" transform="translate(4.088 319.62)" fill="#2f2e41"/><rect width="153.288" height="0.818" transform="translate(230.136 321.255)" fill="#2f2e41"/><path d="M189.526,706.655l-.727-.375c9.435-18.241,4.39-41.929-1.5-58.589a179.571,179.571,0,0,0-15.238-32.16l.691-.437a180.486,180.486,0,0,1,15.317,32.323C194.015,664.23,199.1,688.154,189.526,706.655Z" transform="translate(-150.33 -386.439)" fill="#2f2e41"/><rect width="29.505" height="0.817" transform="translate(40.888 257.825) rotate(-79.645)" fill="#2f2e41"/><rect width="0.818" height="40.203" transform="matrix(0.732, -0.681, 0.681, 0.732, 10.329, 254.086)" fill="#2f2e41"/><rect width="23.712" height="0.818" transform="matrix(0.586, -0.81, 0.81, 0.586, 46.271, 305.077)" fill="#2f2e41"/><circle cx="4.088" cy="4.088" r="4.088" transform="translate(44.556 212.932)" fill="#6c63ff"/><circle cx="4.088" cy="4.088" r="4.088" transform="translate(0 244.407)" fill="#3f3d56"/><circle cx="4.088" cy="4.088" r="4.088" transform="translate(17.986 248.494)" fill="#3f3d56"/><circle cx="4.088" cy="4.088" r="4.088" transform="translate(9.81 264.436)" fill="#6c63ff"/><circle cx="4.088" cy="4.088" r="4.088" transform="translate(60.906 274.655)" fill="#3f3d56"/><circle cx="4.088" cy="4.088" r="4.088" transform="translate(47.417 279.152)" fill="#3f3d56"/><circle cx="4.088" cy="4.088" r="4.088" transform="translate(56.819 292.232)" fill="#3f3d56"/><circle cx="4.088" cy="4.088" r="4.088" transform="translate(13.898 217.837)" fill="#3f3d56"/><rect width="197.026" height="118.134" transform="translate(83.632 73.267)" fill="#3f3d56"/><circle cx="2.044" cy="2.044" r="2.044" transform="translate(89.355 75.72)" fill="#6c63ff"/><circle cx="2.044" cy="2.044" r="2.044" transform="translate(96.713 75.72)" fill="#6c63ff"/><circle cx="2.044" cy="2.044" r="2.044" transform="translate(104.071 75.72)" fill="#6c63ff"/><rect width="196.861" height="0.818" transform="translate(83.797 82.335)" fill="#2f2e41"/><path d="M388.635,260.24v36.789H335.156l-9.88,11.854,1.128-11.854H321.6V260.24Z" transform="translate(-190.139 -153.862)" fill="#57358e"/><rect width="24.117" height="24.117" transform="translate(174.379 119.049)" opacity="0.1"/><path d="M439.6,304.24h67.038v36.789h-4.808l1.129,11.854-9.879-11.854H439.6Z" transform="translate(-259.904 -179.877)" fill="#57358e"/><ellipse cx="14.716" cy="1.436" rx="14.716" ry="1.436" transform="translate(120.83 158.082)" opacity="0.1"/><ellipse cx="16.759" cy="1.635" rx="16.759" ry="1.635" transform="translate(226.292 177.094)" opacity="0.1"/></g></svg>