<svg xmlns="http://www.w3.org/2000/svg" xmlns:xlink="http://www.w3.org/1999/xlink" width="263.52" height="162.982" viewBox="0 0 263.52 162.982"><defs><linearGradient id="a" x1="0.5" y1="1" x2="0.5" gradientUnits="objectBoundingBox"><stop offset="0" stop-color="gray" stop-opacity="0.251"/><stop offset="0.54" stop-color="gray" stop-opacity="0.122"/><stop offset="1" stop-color="gray" stop-opacity="0.102"/></linearGradient><linearGradient id="b" x1="0.5" y1="1" x2="0.5" y2="0" xlink:href="#a"/></defs><g transform="translate(-0.019 -0.06)"><path d="M282.933,133.765c-.018.338-.043.681-.075,1.008a28.938,28.938,0,0,1-2.124,8.543c-3.824,9.078-11.457,15.985-19.611,21.531l-.515.347c-1.475.992-2.975,1.95-4.485,2.887l-.12.075-.091.057-.275.168c-.216.136-.434.268-.649.4l-.361.227-1.657,1.008-1.459.878h0l-2.767,1.668c-3.078,1.852-6.139,3.731-9.1,5.758l-.454.318c-.227.148-.429.3-.64.454q-1.668,1.171-3.282,2.422c-.211.161-.422.327-.631.5a29.269,29.269,0,0,0-5.744,5.874,13.9,13.9,0,0,0-2.535,6.262c-.454,3.631.794,7.133,2.535,10.553,1.121,2.2,2.451,4.367,3.67,6.523.4.706.783,1.409,1.135,2.113a29.573,29.573,0,0,1,1.7,3.847,11.973,11.973,0,0,1,.138,8.518c-1.223,3.157-3.7,5.179-6.65,6.809-1.589.874-3.3,1.632-5.032,2.394a49.8,49.8,0,0,0-7.188,3.606q-.209.132-.409.272-.429.288-.84.6h0c-.454.345-.89.713-1.312,1.094q-.374.343-.735.7c-.191.186-.381.379-.567.576-.359.374-.708.76-1.051,1.151l-.27.313q-.377.454-.749.894c-.322.39-.638.785-.953,1.182-.454.567-.908,1.135-1.348,1.7-.132.163-.261.325-.388.488-.74.908-1.482,1.816-2.27,2.655l-.093.1a16.358,16.358,0,0,1-6.53,4.589c-6.271,2.179-12.483-1.071-18.508-4.539h0l-.168-.1-.075-.043h0l-.517-.3-.243-.141c-.615-.359-1.23-.717-1.843-1.067l-.148-.086c-.865-.493-1.723-.971-2.576-1.423q-.772-.409-1.559-.781a43.879,43.879,0,0,0-5.352-2.147,46.114,46.114,0,0,0-7.322-1.763q-1.516-.243-3.048-.379c-.658-.059-1.321-.107-1.984-.138a46.831,46.831,0,0,0-15.907,1.934c-.7.213-1.4.454-2.09.694-.129.043-.256.091-.381.136-.64.227-1.273.483-1.9.749l-.227.093h0a.125.125,0,0,1-.034.018c-3.232,1.389-6.355,3.161-9.575,4.55-.286.123-.572.243-.862.361a25.3,25.3,0,0,1-6.259,1.738,23.375,23.375,0,0,1-6.673-.168,46.956,46.956,0,0,1-5.883-1.38h-.02l-.123-.039c-.179-.052-.361-.1-.54-.161l-.241-.07-.315-.1c-4.539-1.389-9.09-3.037-13.769-3.488-.227-.02-.454-.041-.681-.057a29.051,29.051,0,0,0-4.355.032,66,66,0,0,0-12.977,2.748l-.268.075c-.227.068-.468.134-.7.2l-.506.145-.983.281-.227.064h0c-7.095,2.043-14.117,3.788-21.05,1.766a25.148,25.148,0,0,1-8.266-4.358,45.221,45.221,0,0,1-5.029-4.571c-1.464-1.523-2.86-3.118-4.212-4.709-4.507-5.3-8.96-10.928-10.923-17.6a34.384,34.384,0,0,1-1.228-7.242c-.1-1.489-.141-2.987-.138-4.487q0-1.5.043-2.984c.016-.724.041-1.446.061-2.167v-.347c.014-.336.023-.681.032-1.008q.293-9.4.581-18.8c.129-4.176.268-8.418,1.557-12.392.148-.454.313-.908.488-1.362.134-.34.277-.681.422-1.008,2.869-6.448,8.4-11.747,13.309-17.167a64.4,64.4,0,0,0,5.029-6.146A22.664,22.664,0,0,0,45.4,134.786c.032-.334.054-.667.066-1.008s.014-.681,0-1.042c-.12-5.815-3.216-11.391-4.487-16.985a16.524,16.524,0,0,1-.186-7.546c.054-.243.118-.479.186-.713,2.213-7.544,10.839-11.5,18.713-12.784a81.544,81.544,0,0,1,24.652.227q.808.116,1.611.25c1.689.275,3.363.6,5.032.949,4.047.847,8.055,1.843,12.119,2.667,5.209,1.058,9.923.048,15.118-.681q3.983-.558,8-.776,3.345-.184,6.7-.132a94.128,94.128,0,0,1,26.529,4.212c5.776,1.8,11.464,4.176,17.335,5.472a38.558,38.558,0,0,0,6.1.883c.161.014.325.023.488.03,13.9.617,26.672-7.685,40.471-9.242l.465-.05a42.849,42.849,0,0,1,4.566-.227c12.864.057,25.337,5.59,37.153,11.048,3.6,1.661,7.263,3.37,10.188,6.044C281.245,119.977,283.324,126.9,282.933,133.765Z" transform="translate(-19.44 -93.81)" fill="#6c63ff" opacity="0.1"/><path d="M161.2,207V174.441h8.972c-.077-.073-.154-.145-.227-.211l-.059-.052-.132-.116c-.057-.05-.111-.1-.17-.143l-.143-.113-.157-.123q-.118-.1-.252-.191a.606.606,0,0,0-.061-.045H161.2v-1.782c-.073.036-.141.075-.211.113l-.227.141a.012.012,0,0,1-.014.011.275.275,0,0,1-.048.029l-.138.1c-.045.032-.093.066-.138.1-.138.1-.275.227-.409.334l-.134.12-.263.238c-.352.329-.7.67-1.053.985-.091.079-.179.159-.272.227a6.934,6.934,0,0,1-.6.454,2.922,2.922,0,0,1-.259.166l-.15.075-.134.068h0a5.058,5.058,0,0,1-.983.354V207H142.694a.5.5,0,0,0,.027.1c.075.3.148.6.227.908h13.225V242.9h.207l.227.016.429.036.681.079a2.082,2.082,0,0,1,.313.043l.368.052h.05l.6.1a.686.686,0,0,1,.129.025l.288.052.42.084h0l1.008-.036h0l.138.032.17.039V208.019H182v-.075a.748.748,0,0,0,0-.075c.027-.279.052-.554.079-.831a.1.1,0,0,1,0-.027Zm31.116,0h-.908v1.014h1.035ZM182.1,207a.1.1,0,0,0,0,.027c-.027.277-.052.551-.079.831a.739.739,0,0,1,0,.075V208h7.819v-.054L190.4,207ZM41.172,112.627a16.526,16.526,0,0,0,.186,7.546v-8.266C41.288,112.142,41.226,112.378,41.172,112.627Zm128.764,61.6c-.016-.254-.034-.52-.045-.8h-2.165a1.222,1.222,0,0,0,.02.132c.027.152.048.3.07.454.016.107.032.209.043.311l.014.116h2.074ZM153.25,207.543h0c-.159-.093-.247-.141-.247-.141.245-.148.483-.281.715-.406H105.355a2.048,2.048,0,0,0,.089.227c.018.043.041.091.064.138s.052.107.084.163.1.175.15.268.086.143.132.227h48.14C153.688,207.8,153.427,207.645,153.25,207.543Zm-61.909-24.6.025.059v-.073Zm-.03-4.882a.994.994,0,0,1-.25.227s.1.109.238.3a.606.606,0,0,1-.025.077c-.011.032-.025.066-.039.1l-.023.043a.7.7,0,0,1-.052.089.18.18,0,0,1-.027.034.9.9,0,0,1-.077.1l-.05.048a.751.751,0,0,1-.1.089l-.029.02h-.014l.014.014.02.025a5.186,5.186,0,0,1,.47.658v-1.9ZM152.877,207h-7.013c1.859.681,4.832.454,6.82.17l.388-.057C152.989,207.057,152.921,207.021,152.877,207ZM168,208a.488.488,0,0,0-.052-.064.323.323,0,0,0-.054-.057,1.317,1.317,0,0,1-.184-.227,1.6,1.6,0,0,1-.086-.138c-.054-.1-.113-.209-.173-.331,0-.014-.014-.03-.023-.045s-.045-.1-.066-.145H161.2V174.441h6.677l-.014-.116c-.014-.1-.029-.2-.043-.311-.023-.143-.043-.291-.07-.454a.926.926,0,0,0-.02-.132H161.2V148.384h-.016a.311.311,0,0,0-.091.011.7.7,0,0,0-.107.023l-.079.03-.1.041-.066.027c-.163.073-.354.172-.581.281-.325.152-.656.3-.99.44l-.2.082-.245.1c-.161.066-.325.125-.488.179q-.159.057-.327.109c-.2.061-.395.118-.592.166-.1.027-.2.048-.3.068s-.2.041-.293.057-.2.034-.3.045-.177.025-.268.032v23.363h-64.8V144.812l-.136.082c-.81.454-1.872.37-2.576.969-.908.765-.747,2.179-.44,3.314.027.1.057.2.082.3a.6.6,0,0,0,.025.1h0a.1.1,0,0,0,.018.068,1.206,1.206,0,0,1,.036.157l.027.129.014.084a.313.313,0,0,1,0,.043.928.928,0,0,1,.014.111,1.256,1.256,0,0,1,.016.2v.023a2.043,2.043,0,0,1-1.4,1.788,1.981,1.981,0,0,1-.719.082v21.168H82.19l.093,1.008h4.051V207h-7.3c-.027.168-.057.34-.1.513-.018.075-.036.15-.059.227s-.052.182-.079.272h7.533v6.809h.772l.477-.016h.211c.284-.014.542-.03.769-.043l.3-.023.193-.014.279-.025h.172l.145.027h.052c.1.016.238.039.409.061l.216.032.12.016.34.045h.045l.531.066V208h64.8v1.484c.182.138.37.286.554.433l.277.227c.329.275.656.567.969.867l.256.252c.107.107.213.227.313.325l.041.043q.123.134.238.266l.163.191c.093.116.184.227.27.343s.17.227.247.345.157.227.227.35a4.251,4.251,0,0,1,.227.431h.481l.043.091c.02.036.034.073.05.107.066.148.12.291.168.433.018.059.039.116.052.175a1.558,1.558,0,0,1,.045.177,1.231,1.231,0,0,0,.032.159c.007.052.016.107.023.157a.84.84,0,0,1,.016.129v.12a2.663,2.663,0,0,1,0,.381,3.125,3.125,0,0,0,.325-.07V208h6.809ZM91.365,207V174.441h64.8V207Zm62.349,0h-8.59c.213.086.4.17.545.247,1.784.908,5.063.66,7.2.356l.381-.057c-.159-.093-.247-.141-.247-.141C153.245,207.255,153.483,207.121,153.715,207ZM49.644,207c.211.345.433.681.663,1.008H78.8c.027-.091.057-.182.079-.272s.041-.148.059-.227c.041-.173.07-.345.1-.513Zm103.233,0h-7.013c1.859.681,4.832.454,6.82.17l.388-.057C152.989,207.057,152.921,207.021,152.877,207ZM49.644,207c.211.345.433.681.663,1.008H78.8c.027-.091.057-.182.079-.272s.041-.148.059-.227c.041-.173.07-.345.1-.513ZM168,208a.488.488,0,0,0-.052-.064.323.323,0,0,0-.054-.057,1.317,1.317,0,0,1-.184-.227,1.6,1.6,0,0,1-.086-.138c-.054-.1-.113-.209-.173-.331,0-.014-.014-.03-.023-.045s-.045-.1-.066-.145H161.2V174.441h6.677l-.014-.116c-.014-.1-.029-.2-.043-.311-.023-.143-.043-.291-.07-.454a.926.926,0,0,0-.02-.132H161.2V148.384h-.016a.311.311,0,0,0-.091.011.7.7,0,0,0-.107.023l-.079.03-.1.041-.066.027c-.163.073-.354.172-.581.281-.325.152-.656.3-.99.44l-.2.082-.245.1c-.161.066-.325.125-.488.179q-.159.057-.327.109c-.2.061-.395.118-.592.166-.1.027-.2.048-.3.068s-.2.041-.293.057-.2.034-.3.045-.177.025-.268.032v23.363h-64.8V144.812l-.136.082c-.81.454-1.872.37-2.576.969-.908.765-.747,2.179-.44,3.314.027.1.057.2.082.3a.6.6,0,0,0,.025.1h0a.133.133,0,0,0,.018.068,1.206,1.206,0,0,1,.036.157l.027.129.014.084a.183.183,0,0,0,.011.077.454.454,0,0,1,0,.077,1.259,1.259,0,0,1,.016.2v.023a2.043,2.043,0,0,1-1.4,1.788,1.981,1.981,0,0,1-.719.082v21.168H82.19l.093,1.008h4.051V207h-7.3c-.027.168-.057.34-.1.513-.018.075-.036.15-.059.227s-.052.182-.079.272h7.533v6.809h.772l.477-.016h.211c.284-.014.542-.03.769-.043l.3-.023.193-.014.279-.025h.172l.145.027h.052c.1.016.238.039.409.061l.216.032.12.016.34.045h.045l.531.066V208h15.206a10.9,10.9,0,0,1-.645-1.008H91.361V174.441h64.805V207h-2.451c-.227.125-.47.259-.715.406,0,0,.089.048.247.141h0c.177.1.438.259.763.454h2.154v1.484c.182.138.37.286.554.433l.277.227c.329.275.656.567.969.867l.256.252c.107.107.213.227.313.325l.041.043q.123.134.238.266l.163.191c.093.116.184.227.27.343s.17.227.247.345.157.227.227.35a4.263,4.263,0,0,1,.227.431h.481l.043.091c.02.036.034.073.05.107.066.148.12.291.168.433.018.059.039.116.052.175a1.56,1.56,0,0,1,.045.177,1.229,1.229,0,0,0,.032.159c.007.052.016.107.023.157a.838.838,0,0,1,.016.129v.12a2.663,2.663,0,0,1,0,.381,3.131,3.131,0,0,0,.325-.07V208h6.809ZM152.877,207h-7.013c1.859.681,4.832.454,6.82.17l.388-.057C152.989,207.057,152.921,207.021,152.877,207Zm17.058-32.766c-.016-.254-.034-.52-.045-.8h-2.165a1.222,1.222,0,0,0,.02.132c.027.152.048.3.07.454.016.107.032.209.043.311l.014.116h2.074ZM49.649,207c.211.345.433.681.663,1.008H78.8c.027-.091.057-.182.079-.272s.041-.148.059-.227c.041-.173.07-.345.1-.513ZM168.009,208a.49.49,0,0,0-.052-.064.324.324,0,0,0-.054-.057,1.319,1.319,0,0,1-.184-.227,1.6,1.6,0,0,1-.086-.138c-.054-.1-.113-.209-.172-.331,0-.014-.014-.03-.023-.045s-.045-.1-.066-.145H161.2V174.441h6.677l-.014-.116c-.014-.1-.029-.2-.043-.311-.023-.143-.043-.291-.07-.454a.926.926,0,0,0-.02-.132H161.2V148.384h-.016a.311.311,0,0,0-.091.011.7.7,0,0,0-.107.023l-.079.03-.1.041-.066.027c-.163.073-.354.172-.581.281-.325.152-.656.3-.99.44l-.2.082-.245.1c-.161.066-.325.125-.488.179q-.159.057-.327.109c-.2.061-.395.118-.592.166-.1.027-.2.048-.3.068s-.2.041-.293.057-.2.034-.3.045-.177.025-.268.032v23.363h-64.8V144.812l-.136.082c-.81.454-1.872.37-2.576.969-.908.765-.747,2.179-.44,3.314.027.1.057.2.082.3a.6.6,0,0,0,.025.1h0a.392.392,0,0,0,.016.07,1.206,1.206,0,0,1,.036.157l.027.129.014.084a.183.183,0,0,0,.011.077.454.454,0,0,1,0,.077,1.257,1.257,0,0,1,.016.2v.023a2.043,2.043,0,0,1-1.4,1.788,1.981,1.981,0,0,1-.719.082v21.168H82.19l.093,1.008h4.051V207h-7.3c-.027.168-.057.34-.1.513-.018.075-.036.15-.059.227s-.052.182-.079.272h7.533v6.809h.772l.477-.016h.211c.284-.014.542-.03.769-.043l.3-.023.193-.014.279-.025h.172l.145.027h.052c.1.016.238.039.409.061l.216.032.12.016.34.045h.045l.531.066V208h15.206a10.9,10.9,0,0,1-.645-1.008H91.361V174.441h64.805V207h-2.451c-.227.125-.47.259-.715.406,0,0,.089.048.247.141h0c.177.1.438.259.763.454h2.154v1.484c.182.138.37.286.554.433l.277.227c.329.275.656.567.969.867l.256.252c.107.107.213.227.313.325l.041.043q.123.134.238.266l.163.191c.093.116.184.227.27.343s.17.227.247.345.157.227.227.35a4.263,4.263,0,0,1,.227.431h.481l.043.091c.02.036.034.073.05.107.066.148.12.291.168.433.018.059.039.116.052.175a1.56,1.56,0,0,1,.045.177,1.229,1.229,0,0,0,.032.159c.007.052.016.107.023.157a.838.838,0,0,1,.016.129v.12a2.663,2.663,0,0,1,0,.381,3.131,3.131,0,0,0,.325-.07V208h6.809Zm1.931-33.771c-.016-.254-.034-.52-.045-.8h-2.17a1.222,1.222,0,0,0,.02.132c.027.152.048.3.07.454.016.107.032.209.043.311l.014.116h2.074ZM49.653,207c.211.345.433.681.663,1.008H78.8c.027-.091.057-.182.079-.272s.041-.148.059-.227c.041-.173.07-.345.1-.513ZM168.013,208a.489.489,0,0,0-.052-.064.325.325,0,0,0-.054-.057,1.317,1.317,0,0,1-.184-.227,1.6,1.6,0,0,1-.086-.138c-.054-.1-.114-.209-.173-.331,0-.014-.014-.03-.023-.045s-.045-.1-.066-.145H161.2V174.441h6.677l-.014-.116c-.014-.1-.029-.2-.043-.311-.023-.143-.043-.291-.07-.454a.926.926,0,0,0-.02-.132H161.2V148.384h-.016a.311.311,0,0,0-.091.011.7.7,0,0,0-.107.023l-.079.03-.1.041-.066.027c-.163.073-.354.172-.581.281-.325.152-.656.3-.99.44l-.2.082-.245.1c-.161.066-.325.125-.488.179q-.159.057-.327.109c-.2.061-.395.118-.592.166-.1.027-.2.048-.3.068s-.2.041-.293.057-.2.034-.3.045-.177.025-.268.032v23.363h-64.8V144.812l-.136.082c-.81.454-1.872.37-2.576.969-.908.765-.747,2.179-.44,3.314.027.1.057.2.082.3a.6.6,0,0,0,.025.1h0a.392.392,0,0,0,.016.07,1.206,1.206,0,0,1,.036.157l.027.129.014.084a.183.183,0,0,0,.011.077.454.454,0,0,1,0,.077,1.257,1.257,0,0,1,.016.2v.023a2.043,2.043,0,0,1-1.4,1.788,1.981,1.981,0,0,1-.719.082v21.168H82.19l.093,1.008h4.051V207h-7.3c-.027.168-.057.34-.1.513-.018.075-.036.15-.059.227s-.052.182-.079.272h7.533v6.809h.772l.477-.016h.211c.284-.014.542-.03.769-.043l.3-.023.193-.014.279-.025h.172l.145.027h.052c.1.016.238.039.409.061l.216.032.12.016.34.045h.045l.531.066V208h15.206a10.9,10.9,0,0,1-.645-1.008H91.361V174.441h64.805V207h-2.451c-.227.125-.47.259-.715.406,0,0,.089.048.247.141h0c.177.1.438.259.763.454h2.154v1.484c.182.138.37.286.554.433l.277.227c.329.275.656.567.969.867l.256.252c.107.107.213.227.313.325l.041.043q.123.134.238.266l.163.191c.093.116.184.227.27.343s.17.227.247.345.157.227.227.35a4.263,4.263,0,0,1,.227.431h.481l.043.091c.02.036.034.073.05.107.066.148.12.291.168.433.018.059.039.116.052.175a1.56,1.56,0,0,1,.045.177,1.229,1.229,0,0,0,.032.159c.007.052.016.107.023.157a.838.838,0,0,1,.016.129v.12a2.663,2.663,0,0,1,0,.381,3.131,3.131,0,0,0,.325-.07V208h6.809Zm1.931-33.771c-.016-.254-.034-.52-.045-.8h-2.174a1.222,1.222,0,0,0,.02.132c.027.152.048.3.07.454.016.107.032.209.043.311l.014.116h2.074ZM49.658,207c.211.345.433.681.663,1.008H78.8c.027-.091.057-.182.079-.272s.041-.148.059-.227c.041-.173.07-.345.1-.513ZM168.018,208a.49.49,0,0,0-.052-.064.323.323,0,0,0-.054-.057,1.317,1.317,0,0,1-.184-.227,1.6,1.6,0,0,1-.086-.138c-.054-.1-.113-.209-.173-.331,0-.014-.014-.03-.023-.045s-.045-.1-.066-.145H161.2V174.441h6.677l-.014-.116c-.014-.1-.029-.2-.043-.311-.023-.143-.043-.291-.07-.454a.926.926,0,0,0-.02-.132H161.2V148.384h-.016a.311.311,0,0,0-.091.011.7.7,0,0,0-.107.023l-.079.03-.1.041-.066.027c-.163.073-.354.172-.581.281-.325.152-.656.3-.99.44l-.2.082-.245.1c-.161.066-.325.125-.488.179q-.159.057-.327.109c-.2.061-.395.118-.592.166-.1.027-.2.048-.3.068s-.2.041-.293.057-.2.034-.3.045-.177.025-.268.032v23.363h-64.8V144.812l-.136.082c-.81.454-1.872.37-2.576.969-.908.765-.747,2.179-.44,3.314.027.1.057.2.082.3a.6.6,0,0,0,.025.1h0a.392.392,0,0,0,.016.07,1.206,1.206,0,0,1,.036.157l.027.129.014.084a.183.183,0,0,0,.011.077.454.454,0,0,1,0,.077,1.257,1.257,0,0,1,.016.2v.023a2.043,2.043,0,0,1-1.4,1.788,1.981,1.981,0,0,1-.719.082v21.168H82.19l.093,1.008h4.051V207h-7.3c-.027.168-.057.34-.1.513-.018.075-.036.15-.059.227s-.052.182-.079.272h7.533v6.809h.772l.477-.016h.211c.284-.014.542-.03.769-.043l.3-.023.193-.014.279-.025h.172l.145.027h.052c.1.016.238.039.409.061l.216.032.12.016.34.045h.045l.531.066V208h15.206a10.9,10.9,0,0,1-.645-1.008H91.361V174.441h64.805V207h-2.451c-.227.125-.47.259-.715.406,0,0,.089.048.247.141h0c.177.1.438.259.763.454h2.154v1.484c.182.138.37.286.554.433l.277.227c.329.275.656.567.969.867l.256.252c.107.107.213.227.313.325l.041.043q.123.134.238.266l.163.191c.093.116.184.227.27.343s.17.227.247.345.157.227.227.35a4.263,4.263,0,0,1,.227.431h.481l.043.091c.02.036.034.073.05.107.066.148.12.291.168.433.018.059.039.116.052.175a1.56,1.56,0,0,1,.045.177,1.229,1.229,0,0,0,.032.159c.007.052.016.107.023.157a.838.838,0,0,1,.016.129v.12a2.663,2.663,0,0,1,0,.381,3.131,3.131,0,0,0,.325-.07V208h6.809Zm1.931-33.771c-.016-.254-.034-.52-.045-.8h-2.179a1.222,1.222,0,0,0,.02.132c.027.152.048.3.07.454.016.107.032.209.043.311l.014.116h2.074ZM49.662,207c.211.345.433.681.663,1.008H78.8c.027-.091.057-.182.079-.272s.041-.148.059-.227c.041-.173.07-.345.1-.513ZM168.022,208a.492.492,0,0,0-.052-.064.324.324,0,0,0-.054-.057,1.319,1.319,0,0,1-.184-.227,1.607,1.607,0,0,1-.086-.138c-.054-.1-.113-.209-.172-.331,0-.014-.014-.03-.023-.045s-.045-.1-.066-.145H161.2V174.441h6.677l-.014-.116c-.014-.1-.029-.2-.043-.311-.023-.143-.043-.291-.07-.454a.926.926,0,0,0-.02-.132H161.2V148.384h-.016a.311.311,0,0,0-.091.011.7.7,0,0,0-.107.023l-.079.03-.1.041-.066.027c-.163.073-.354.172-.581.281-.325.152-.656.3-.99.44l-.2.082-.245.1c-.161.066-.325.125-.488.179q-.159.057-.327.109c-.2.061-.395.118-.592.166-.1.027-.2.048-.3.068s-.2.041-.293.057-.2.034-.3.045-.177.025-.268.032v23.363h-64.8V144.812l-.136.082c-.81.454-1.872.37-2.576.969-.908.765-.747,2.179-.44,3.314.027.1.057.2.082.3a.6.6,0,0,0,.025.1h0a.392.392,0,0,0,.016.07,1.206,1.206,0,0,1,.036.157l.027.129.014.084a.183.183,0,0,0,.011.077.454.454,0,0,1,0,.077,1.257,1.257,0,0,1,.016.2v.023a2.043,2.043,0,0,1-1.4,1.788,1.981,1.981,0,0,1-.719.082v21.168H82.19l.093,1.008h4.051V207h-7.3c-.027.168-.057.34-.1.513-.018.075-.036.15-.059.227s-.052.182-.079.272h7.533v6.809h.772l.477-.016h.211c.284-.014.542-.03.769-.043l.3-.023.193-.014.279-.025h.172l.145.027h.052c.1.016.238.039.409.061l.216.032.12.016.34.045h.045l.531.066V208h15.206a10.9,10.9,0,0,1-.645-1.008H91.361V174.441h64.805V207h-2.451c-.227.125-.47.259-.715.406,0,0,.089.048.247.141h0c.177.1.438.259.763.454h2.154v1.484c.182.138.37.286.554.433l.277.227c.329.275.656.567.969.867l.256.252c.107.107.213.227.313.325l.041.043q.123.134.238.266l.163.191c.093.116.184.227.27.343s.17.227.247.345.157.227.227.35a4.263,4.263,0,0,1,.227.431h.481l.043.091c.02.036.034.073.05.107.066.148.12.291.168.433.018.059.039.116.052.175a1.56,1.56,0,0,1,.045.177,1.229,1.229,0,0,0,.032.159c.007.052.016.107.023.157a.838.838,0,0,1,.016.129v.12a2.663,2.663,0,0,1,0,.381,3.131,3.131,0,0,0,.325-.07V208h6.809Zm1.931-33.771c-.016-.254-.034-.52-.045-.8h-2.183a1.222,1.222,0,0,0,.02.132c.027.152.048.3.07.454.016.107.032.209.043.311l.014.116h2.074ZM49.667,207c.211.345.433.681.663,1.008H78.8c.027-.091.057-.182.079-.272s.041-.148.059-.227c.041-.173.07-.345.1-.513ZM168.027,208a.487.487,0,0,0-.052-.064.324.324,0,0,0-.054-.057,1.317,1.317,0,0,1-.184-.227,1.6,1.6,0,0,1-.086-.138c-.054-.1-.113-.209-.173-.331,0-.014-.014-.03-.023-.045s-.045-.1-.066-.145H161.2V174.441h6.677l-.014-.116c-.014-.1-.029-.2-.043-.311-.023-.143-.043-.291-.07-.454a.926.926,0,0,0-.02-.132H161.2V148.384h-.016a.311.311,0,0,0-.091.011.7.7,0,0,0-.107.023l-.079.03-.1.041-.066.027c-.163.073-.354.172-.581.281-.325.152-.656.3-.99.44l-.2.082-.245.1c-.161.066-.325.125-.488.179q-.159.057-.327.109c-.2.061-.395.118-.592.166-.1.027-.2.048-.3.068s-.2.041-.293.057-.2.034-.3.045-.177.025-.268.032v23.363h-64.8V144.812l-.136.082c-.81.454-1.872.37-2.576.969-.908.765-.747,2.179-.44,3.314.027.1.057.2.082.3a.6.6,0,0,0,.025.1h0a.392.392,0,0,0,.016.07,1.206,1.206,0,0,1,.036.157l.027.129.014.084a.183.183,0,0,0,.011.077.454.454,0,0,1,0,.077,1.257,1.257,0,0,1,.016.2v.023a2.043,2.043,0,0,1-1.4,1.788,1.981,1.981,0,0,1-.719.082v21.168H82.19l.093,1.008h4.051V207h-7.3c-.027.168-.057.34-.1.513-.018.075-.036.15-.059.227s-.052.182-.079.272h7.533v6.809h.772l.477-.016h.211c.284-.014.542-.03.769-.043l.3-.023.193-.014.279-.025h.172l.145.027h.052c.1.016.238.039.409.061l.216.032.12.016.34.045h.045l.531.066V208h15.206a10.9,10.9,0,0,1-.645-1.008H91.361V174.441h64.805V207h-2.451c-.227.125-.47.259-.715.406,0,0,.089.048.247.141h0c.177.1.438.259.763.454h2.154v1.484c.182.138.37.286.554.433l.277.227c.329.275.656.567.969.867l.256.252c.107.107.213.227.313.325l.041.043q.123.134.238.266l.163.191c.093.116.184.227.27.343s.17.227.247.345.157.227.227.35a4.263,4.263,0,0,1,.227.431h.481l.043.091c.02.036.034.073.05.107.066.148.12.291.168.433.018.059.039.116.052.175a1.56,1.56,0,0,1,.045.177,1.229,1.229,0,0,0,.032.159c.007.052.016.107.023.157a.838.838,0,0,1,.016.129v.12a2.663,2.663,0,0,1,0,.381,3.131,3.131,0,0,0,.325-.07V208h6.809Zm1.931-33.771c-.016-.254-.034-.52-.045-.8h-2.188a1.222,1.222,0,0,0,.02.132c.027.152.048.3.07.454.016.107.032.209.043.311l.014.116h2.074ZM49.671,207c.211.345.433.681.663,1.008H78.8c.027-.091.057-.182.079-.272s.041-.148.059-.227c.041-.173.07-.345.1-.513ZM168.031,208a.49.49,0,0,0-.052-.064.323.323,0,0,0-.054-.057,1.319,1.319,0,0,1-.184-.227,1.611,1.611,0,0,1-.086-.138c-.054-.1-.113-.209-.172-.331,0-.014-.014-.03-.023-.045s-.045-.1-.066-.145h-6.2V174.441h6.677l-.014-.116c-.014-.1-.029-.2-.043-.311-.023-.143-.043-.291-.07-.454a.926.926,0,0,0-.02-.132H161.2V148.384h-.016a.311.311,0,0,0-.091.011.7.7,0,0,0-.107.023l-.079.03-.1.041-.066.027c-.163.073-.354.172-.581.281-.325.152-.656.3-.99.44l-.2.082-.245.1c-.161.066-.325.125-.488.179q-.159.057-.327.109c-.2.061-.395.118-.592.166-.1.027-.2.048-.3.068s-.2.041-.293.057-.2.034-.3.045-.177.025-.268.032v23.363h-64.8V144.812l-.136.082c-.81.454-1.872.37-2.576.969-.908.765-.747,2.179-.44,3.314.027.1.057.2.082.3a.6.6,0,0,0,.025.1h0a.392.392,0,0,0,.016.07,1.206,1.206,0,0,1,.036.157l.027.129.014.084a.183.183,0,0,0,.011.077.454.454,0,0,1,0,.077,1.257,1.257,0,0,1,.016.2v.023a2.043,2.043,0,0,1-1.4,1.788,1.981,1.981,0,0,1-.719.082v21.168H82.19l.093,1.008h4.051V207h-7.3c-.027.168-.057.34-.1.513-.018.075-.036.15-.059.227s-.052.182-.079.272h7.533v6.809h.772l.477-.016h.211c.284-.014.542-.03.769-.043l.3-.023.193-.014.279-.025h.172l.145.027h.052c.1.016.238.039.409.061l.216.032.12.016.34.045h.045l.531.066V208h15.206a10.9,10.9,0,0,1-.645-1.008H91.361V174.441h64.805V207h-2.451c-.227.125-.47.259-.715.406,0,0,.089.048.247.141h0c.177.1.438.259.763.454h2.154v1.484c.182.138.37.286.554.433l.277.227c.329.275.656.567.969.867l.256.252c.107.107.213.227.313.325l.041.043q.123.134.238.266l.163.191c.093.116.184.227.27.343s.17.227.247.345.157.227.227.35a4.263,4.263,0,0,1,.227.431h.481l.043.091c.02.036.034.073.05.107.066.148.12.291.168.433.018.059.039.116.052.175a1.56,1.56,0,0,1,.045.177,1.229,1.229,0,0,0,.032.159c.007.052.016.107.023.157a.838.838,0,0,1,.016.129v.12a2.663,2.663,0,0,1,0,.381,3.131,3.131,0,0,0,.325-.07V208h6.809Zm1.931-33.771c-.016-.254-.034-.52-.045-.8h-2.192a1.222,1.222,0,0,0,.02.132c.027.152.048.3.07.454.016.107.032.209.043.311l.014.116h2.074ZM49.676,207c.211.345.433.681.663,1.008H78.8c.027-.091.057-.182.079-.272s.041-.148.059-.227c.041-.173.07-.345.1-.513ZM168.036,208a.49.49,0,0,0-.052-.064.324.324,0,0,0-.054-.057,1.318,1.318,0,0,1-.184-.227,1.6,1.6,0,0,1-.086-.138c-.054-.1-.113-.209-.173-.331,0-.014-.014-.03-.023-.045s-.045-.1-.066-.145h-6.2V174.441h6.677l-.014-.116c-.014-.1-.029-.2-.043-.311-.023-.143-.043-.291-.07-.454a.926.926,0,0,0-.02-.132H161.2V148.384h-.016a.311.311,0,0,0-.091.011.7.7,0,0,0-.107.023l-.079.03-.1.041-.066.027c-.163.073-.354.172-.581.281-.325.152-.656.3-.99.44-.064.03-.132.057-.2.082s-.163.068-.245.1c-.161.066-.325.125-.488.179q-.159.057-.327.109c-.2.061-.395.118-.592.166-.1.027-.2.048-.3.068s-.2.041-.293.057-.2.034-.3.045-.177.025-.268.032v23.363h-64.8V144.812l-.136.082c-.81.454-1.872.37-2.576.969-.908.765-.747,2.179-.44,3.314.027.1.057.2.082.3a.654.654,0,0,1,.025.1.392.392,0,0,0,.016.07,1.206,1.206,0,0,1,.036.157l.027.129.014.084a.183.183,0,0,0,.011.077.454.454,0,0,1,0,.077,1.257,1.257,0,0,1,.016.2v.023a2.043,2.043,0,0,1-1.4,1.788,1.981,1.981,0,0,1-.719.082v21.168H82.19l.093,1.008h4.051V207h-7.3c-.027.168-.057.34-.1.513-.018.075-.036.15-.059.227s-.052.182-.079.272h7.533v6.809h.772l.477-.016h.211c.284-.014.542-.03.769-.043l.3-.023.193-.014.279-.025h.172l.145.027h.052c.1.016.238.039.409.061l.216.032.12.016.34.045h.045l.531.066V208h15.206a10.9,10.9,0,0,1-.645-1.008H91.361V174.441h64.805V207h-2.451c-.227.125-.47.259-.715.406,0,0,.089.048.247.141h0c.177.1.438.259.763.454h2.154v1.484c.182.138.37.286.554.433l.277.227c.329.275.656.567.969.867.086.082.173.166.256.252s.213.227.313.325l.041.043q.123.134.238.266l.163.191c.093.116.184.227.27.343s.17.227.247.345.157.227.227.35a4.263,4.263,0,0,1,.227.431h.481l.043.091c.02.036.034.073.05.107.066.148.12.291.168.433.018.059.039.116.052.175a1.56,1.56,0,0,1,.045.177,1.229,1.229,0,0,0,.032.159,1.3,1.3,0,0,1,.023.157.838.838,0,0,1,.016.129v.12a2.663,2.663,0,0,1,0,.381,3.131,3.131,0,0,0,.325-.07V208h6.809Zm1.931-33.771c-.016-.254-.034-.52-.045-.8h-2.2a1.222,1.222,0,0,0,.02.132c.027.152.048.3.07.454.016.107.032.209.043.311l.014.116h2.074Zm59.288-36.036V102.73a42.848,42.848,0,0,0-4.566.227l-.465.05v35.187H162.684L162.53,138l.227-.288h0l1.005-1.253,1.008-1.253h0L183.258,112.2a38.558,38.558,0,0,1-6.1-.883l-15.969,19.879V107.242q-2.519-.49-5.032-1.092v23.937L133.3,101.627q-3.345-.054-6.7.132l28.231,35.135.731.908.159.2-.159.191h-64.2V100.549c-1.668-.35-3.343-.681-5.032-.949v38.583h-40.5c-.011.34-.034.681-.066,1.008H86.334v34.243H41.358V150.121a64.4,64.4,0,0,1-5.029,6.146v17.167H23.02c-.145.334-.288.667-.422,1.008H36.329V207H19.972c0,.338-.018.681-.032,1.008H36.329v39.54a45.228,45.228,0,0,0,5.029,4.571V208H86.334v43.185a29.048,29.048,0,0,1,4.355-.032c.227.016.454.036.681.057V208h64.8v38.356c.663.032,1.325.079,1.984.138q1.532.136,3.048.379V208h63.017v31.32c1.734-.763,3.45-1.521,5.032-2.394V209.118c-1.741-3.42-2.984-6.913-2.535-10.553a13.9,13.9,0,0,1,2.535-6.262V174.441h24.087l1.657-1.008H229.255V139.2h53.968c.032-.336.057-.67.075-1.008Zm-5.041,1.008v34.232H161.2V140.119l.048-.05.837-.867Zm-132.858,0h64.81v34.232h-64.8ZM41.358,207V174.441H86.334V207Zm50.008,0V174.441h64.8V207Zm69.832,0V174.441h63.017V207Zm8.738-32.766c-.016-.254-.034-.52-.045-.8h-2.165a1.222,1.222,0,0,0,.02.132c.027.152.048.3.07.454.016.107.032.209.043.311l.014.116h2.074ZM168,208a.488.488,0,0,0-.052-.064.323.323,0,0,0-.054-.057,1.319,1.319,0,0,1-.184-.227,1.6,1.6,0,0,1-.086-.138c-.054-.1-.113-.209-.173-.331,0-.014-.014-.03-.023-.045s-.045-.1-.066-.145H161.2V174.441h6.677l-.014-.116c-.014-.1-.029-.2-.043-.311-.023-.143-.043-.291-.07-.454a.926.926,0,0,0-.02-.132H161.2V148.384h-.016a.311.311,0,0,0-.091.011.7.7,0,0,0-.107.023l-.079.03-.1.041-.066.027c-.163.073-.354.172-.581.281-.325.152-.656.3-.99.44l-.2.082-.245.1c-.161.066-.325.125-.488.179q-.159.057-.327.109c-.2.061-.395.118-.592.166-.1.027-.2.048-.3.068s-.2.041-.293.057-.2.034-.3.045-.177.025-.268.032v23.363h-64.8V144.812l-.136.082c-.81.454-1.872.37-2.576.969-.908.765-.747,2.179-.44,3.314.027.1.057.2.082.3a.6.6,0,0,0,.025.1h0a.392.392,0,0,0,.016.07,1.206,1.206,0,0,1,.036.157l.027.129.014.084a.183.183,0,0,0,.011.077.454.454,0,0,1,0,.077,1.257,1.257,0,0,1,.016.2v.023a2.043,2.043,0,0,1-1.4,1.788,1.981,1.981,0,0,1-.719.082v21.168H82.19l.093,1.008h4.051V207h-7.3c-.027.168-.057.34-.1.513-.018.075-.036.15-.059.227s-.052.182-.079.272h7.533v6.809h.772l.477-.016h.211c.284-.014.542-.03.769-.043l.3-.023.193-.014.279-.025h.172l.145.027h.052c.1.016.238.039.409.061l.216.032.12.016.34.045h.045l.531.066V208h15.206a10.9,10.9,0,0,1-.645-1.008H91.361V174.441h64.805V207h-2.451c-.227.125-.47.259-.715.406,0,0,.089.048.247.141h0c.177.1.438.259.763.454h2.154v1.484c.182.138.37.286.554.433l.277.227c.329.275.656.567.969.867l.256.252c.107.107.213.227.313.325l.041.043q.123.134.238.266l.163.191c.093.116.184.227.27.343s.17.227.247.345.157.227.227.35a4.263,4.263,0,0,1,.227.431h.481l.043.091c.02.036.034.073.05.107.066.148.12.291.168.433.018.059.039.116.052.175a1.56,1.56,0,0,1,.045.177,1.229,1.229,0,0,0,.032.159c.007.052.016.107.023.157a.838.838,0,0,1,.016.129v.12a2.663,2.663,0,0,1,0,.381,3.131,3.131,0,0,0,.325-.07V208h6.809ZM49.644,207c.211.345.433.681.663,1.008H78.8c.027-.091.057-.182.079-.272s.041-.148.059-.227c.041-.173.07-.345.1-.513ZM169.931,174.23c-.016-.254-.034-.52-.045-.8h-2.161a1.222,1.222,0,0,0,.02.132c.027.152.048.3.07.454.016.107.032.209.043.311l.014.116h2.074ZM168,208a.49.49,0,0,0-.052-.064.325.325,0,0,0-.054-.057,1.318,1.318,0,0,1-.184-.227,1.6,1.6,0,0,1-.086-.138c-.054-.1-.113-.209-.172-.331,0-.014-.014-.03-.023-.045s-.045-.1-.066-.145H161.2V174.441h6.677l-.014-.116c-.014-.1-.029-.2-.043-.311-.023-.143-.043-.291-.07-.454a.926.926,0,0,0-.02-.132H161.2V148.384h-.016a.311.311,0,0,0-.091.011.7.7,0,0,0-.107.023l-.079.03-.1.041-.066.027c-.163.073-.354.172-.581.281-.325.152-.656.3-.99.44l-.2.082-.245.1c-.161.066-.325.125-.488.179q-.159.057-.327.109c-.2.061-.395.118-.592.166-.1.027-.2.048-.3.068s-.2.041-.293.057-.2.034-.3.045-.177.025-.268.032v23.363h-64.8V144.812l-.136.082c-.81.454-1.872.37-2.576.969-.908.765-.747,2.179-.44,3.314.027.1.057.2.082.3a.6.6,0,0,0,.025.1h0a.392.392,0,0,0,.016.07,1.206,1.206,0,0,1,.036.157l.027.129.014.084a.183.183,0,0,0,.011.077.454.454,0,0,1,0,.077,1.257,1.257,0,0,1,.016.2v.023a2.043,2.043,0,0,1-1.4,1.788,1.981,1.981,0,0,1-.719.082v21.168H82.19l.093,1.008h4.051V207h-7.3c-.027.168-.057.34-.1.513-.018.075-.036.15-.059.227s-.052.182-.079.272h7.533v6.809h.772l.477-.016h.211c.284-.014.542-.03.769-.043l.3-.023.193-.014.279-.025h.172l.145.027h.052c.1.016.238.039.409.061l.216.032.12.016.34.045h.045l.531.066V208h15.206a10.9,10.9,0,0,1-.645-1.008H91.361V174.441h64.805V207h-2.451c-.227.125-.47.259-.715.406,0,0,.089.048.247.141h0c.177.1.438.259.763.454h2.154v1.484c.182.138.37.286.554.433l.277.227c.329.275.656.567.969.867l.256.252c.107.107.213.227.313.325l.041.043q.123.134.238.266l.163.191c.093.116.184.227.27.343s.17.227.247.345.157.227.227.35a4.263,4.263,0,0,1,.227.431h.481l.043.091c.02.036.034.073.05.107.066.148.12.291.168.433.018.059.039.116.052.175a1.56,1.56,0,0,1,.045.177,1.229,1.229,0,0,0,.032.159c.007.052.016.107.023.157a.838.838,0,0,1,.016.129v.12a2.663,2.663,0,0,1,0,.381,3.131,3.131,0,0,0,.325-.07V208h6.809ZM49.644,207c.211.345.433.681.663,1.008H78.8c.027-.091.057-.182.079-.272s.041-.148.059-.227c.041-.173.07-.345.1-.513ZM169.931,174.23c-.016-.254-.034-.52-.045-.8h-2.161a1.222,1.222,0,0,0,.02.132c.027.152.048.3.07.454.016.107.032.209.043.311l.014.116h2.074ZM168,208a.49.49,0,0,0-.052-.064.325.325,0,0,0-.054-.057,1.318,1.318,0,0,1-.184-.227,1.6,1.6,0,0,1-.086-.138c-.054-.1-.113-.209-.172-.331,0-.014-.014-.03-.023-.045s-.045-.1-.066-.145H161.2V174.441h6.677l-.014-.116c-.014-.1-.029-.2-.043-.311-.023-.143-.043-.291-.07-.454a.926.926,0,0,0-.02-.132H161.2V148.384h-.016a.311.311,0,0,0-.091.011.7.7,0,0,0-.107.023l-.079.03-.1.041-.066.027c-.163.073-.354.172-.581.281-.325.152-.656.3-.99.44l-.2.082-.245.1c-.161.066-.325.125-.488.179q-.159.057-.327.109c-.2.061-.395.118-.592.166-.1.027-.2.048-.3.068s-.2.041-.293.057-.2.034-.3.045-.177.025-.268.032v23.363h-64.8V144.812l-.136.082c-.81.454-1.872.37-2.576.969-.908.765-.747,2.179-.44,3.314.027.1.057.2.082.3a.6.6,0,0,0,.025.1h0a.392.392,0,0,0,.016.07,1.206,1.206,0,0,1,.036.157l.027.129.014.084a.183.183,0,0,0,.011.077.454.454,0,0,1,0,.077,1.257,1.257,0,0,1,.016.2v.023a2.043,2.043,0,0,1-1.4,1.788,1.981,1.981,0,0,1-.719.082v21.168H82.19l.093,1.008h4.051V207h-7.3c-.027.168-.057.34-.1.513-.018.075-.036.15-.059.227s-.052.182-.079.272h7.533v6.809h.772l.477-.016h.211c.284-.014.542-.03.769-.043l.3-.023.193-.014.279-.025h.172l.145.027h.052c.1.016.238.039.409.061l.216.032.12.016.34.045h.045l.531.066V208h15.206a10.9,10.9,0,0,1-.645-1.008H91.361V174.441h64.805V207h-2.451c-.227.125-.47.259-.715.406,0,0,.089.048.247.141h0c.177.1.438.259.763.454h2.154v1.484c.182.138.37.286.554.433l.277.227c.329.275.656.567.969.867l.256.252c.107.107.213.227.313.325l.041.043q.123.134.238.266l.163.191c.093.116.184.227.27.343s.17.227.247.345.157.227.227.35a4.263,4.263,0,0,1,.227.431h.481l.043.091c.02.036.034.073.05.107.066.148.12.291.168.433.018.059.039.116.052.175a1.56,1.56,0,0,1,.045.177,1.229,1.229,0,0,0,.032.159c.007.052.016.107.023.157a.838.838,0,0,1,.016.129v.12a2.663,2.663,0,0,1,0,.381,3.131,3.131,0,0,0,.325-.07V208h6.809ZM49.644,207c.211.345.433.681.663,1.008H78.8c.027-.091.057-.182.079-.272s.041-.148.059-.227c.041-.173.07-.345.1-.513ZM169.931,174.23c-.016-.254-.034-.52-.045-.8h-2.161a1.222,1.222,0,0,0,.02.132c.027.152.048.3.07.454.016.107.032.209.043.311l.014.116h2.074ZM168,208a.49.49,0,0,0-.052-.064.325.325,0,0,0-.054-.057,1.318,1.318,0,0,1-.184-.227,1.6,1.6,0,0,1-.086-.138c-.054-.1-.113-.209-.172-.331,0-.014-.014-.03-.023-.045s-.045-.1-.066-.145H161.2V174.441h6.677l-.014-.116c-.014-.1-.029-.2-.043-.311-.023-.143-.043-.291-.07-.454a.926.926,0,0,0-.02-.132H161.2V148.384h-.016a.311.311,0,0,0-.091.011.7.7,0,0,0-.107.023l-.079.03-.1.041-.066.027c-.163.073-.354.172-.581.281-.325.152-.656.3-.99.44l-.2.082-.245.1c-.161.066-.325.125-.488.179q-.159.057-.327.109c-.2.061-.395.118-.592.166-.1.027-.2.048-.3.068s-.2.041-.293.057-.2.034-.3.045-.177.025-.268.032v23.363h-64.8V144.812l-.136.082c-.81.454-1.872.37-2.576.969-.908.765-.747,2.179-.44,3.314.027.1.057.2.082.3a.6.6,0,0,0,.025.1h0a.392.392,0,0,0,.016.07,1.206,1.206,0,0,1,.036.157l.027.129.014.084a.183.183,0,0,0,.011.077.454.454,0,0,1,0,.077,1.257,1.257,0,0,1,.016.2v.023a2.043,2.043,0,0,1-1.4,1.788,1.981,1.981,0,0,1-.719.082v21.168H82.19l.093,1.008h4.051V207h-7.3c-.027.168-.057.34-.1.513-.018.075-.036.15-.059.227s-.052.182-.079.272h7.533v6.809h.772l.477-.016h.211c.284-.014.542-.03.769-.043l.3-.023.193-.014.279-.025h.172l.145.027h.052c.1.016.238.039.409.061l.216.032.12.016.34.045h.045l.531.066V208h15.206a10.9,10.9,0,0,1-.645-1.008H91.361V174.441h64.805V207h-2.451c-.227.125-.47.259-.715.406,0,0,.089.048.247.141h0c.177.1.438.259.763.454h2.154v1.484c.182.138.37.286.554.433l.277.227c.329.275.656.567.969.867l.256.252c.107.107.213.227.313.325l.041.043q.123.134.238.266l.163.191c.093.116.184.227.27.343s.17.227.247.345.157.227.227.35a4.263,4.263,0,0,1,.227.431h.481l.043.091c.02.036.034.073.05.107.066.148.12.291.168.433.018.059.039.116.052.175a1.56,1.56,0,0,1,.045.177,1.229,1.229,0,0,0,.032.159c.007.052.016.107.023.157a.838.838,0,0,1,.016.129v.12a2.663,2.663,0,0,1,0,.381,3.131,3.131,0,0,0,.325-.07V208h6.809ZM49.644,207c.211.345.433.681.663,1.008H78.8c.027-.091.057-.182.079-.272s.041-.148.059-.227c.041-.173.07-.345.1-.513ZM169.931,174.23c-.016-.254-.034-.52-.045-.8h-2.161a1.222,1.222,0,0,0,.02.132c.027.152.048.3.07.454.016.107.032.209.043.311l.014.116h2.074ZM168,208a.49.49,0,0,0-.052-.064.325.325,0,0,0-.054-.057,1.318,1.318,0,0,1-.184-.227,1.6,1.6,0,0,1-.086-.138c-.054-.1-.113-.209-.172-.331,0-.014-.014-.03-.023-.045s-.045-.1-.066-.145H161.2V174.441h6.677l-.014-.116c-.014-.1-.029-.2-.043-.311-.023-.143-.043-.291-.07-.454a.926.926,0,0,0-.02-.132H161.2V148.384h-.016a.311.311,0,0,0-.091.011.7.7,0,0,0-.107.023l-.079.03-.1.041-.066.027c-.163.073-.354.172-.581.281-.325.152-.656.3-.99.44l-.2.082-.245.1c-.161.066-.325.125-.488.179q-.159.057-.327.109c-.2.061-.395.118-.592.166-.1.027-.2.048-.3.068s-.2.041-.293.057-.2.034-.3.045-.177.025-.268.032v23.363h-64.8V144.812l-.136.082c-.81.454-1.872.37-2.576.969-.908.765-.747,2.179-.44,3.314.027.1.057.2.082.3a.6.6,0,0,0,.025.1h0a.392.392,0,0,0,.016.07,1.206,1.206,0,0,1,.036.157l.027.129.014.084a.183.183,0,0,0,.011.077.454.454,0,0,1,0,.077,1.257,1.257,0,0,1,.016.2v.023a2.043,2.043,0,0,1-1.4,1.788,1.981,1.981,0,0,1-.719.082v21.168H82.19l.093,1.008h4.051V207h-7.3c-.027.168-.057.34-.1.513-.018.075-.036.15-.059.227s-.052.182-.079.272h7.533v6.809h.772l.477-.016h.211c.284-.014.542-.03.769-.043l.3-.023.193-.014.279-.025h.172l.145.027h.052c.1.016.238.039.409.061l.216.032.12.016.34.045h.045l.531.066V208h15.206a10.9,10.9,0,0,1-.645-1.008H91.361V174.441h64.805V207h-2.451c-.227.125-.47.259-.715.406,0,0,.089.048.247.141h0c.177.1.438.259.763.454h2.154v1.484c.182.138.37.286.554.433l.277.227c.329.275.656.567.969.867l.256.252c.107.107.213.227.313.325l.041.043q.123.134.238.266l.163.191c.093.116.184.227.27.343s.17.227.247.345.157.227.227.35a4.263,4.263,0,0,1,.227.431h.481l.043.091c.02.036.034.073.05.107.066.148.12.291.168.433.018.059.039.116.052.175a1.56,1.56,0,0,1,.045.177,1.229,1.229,0,0,0,.032.159c.007.052.016.107.023.157a.838.838,0,0,1,.016.129v.12a2.663,2.663,0,0,1,0,.381,3.131,3.131,0,0,0,.325-.07V208h6.809ZM49.644,207c.211.345.433.681.663,1.008H78.8c.027-.091.057-.182.079-.272s.041-.148.059-.227c.041-.173.07-.345.1-.513ZM169.931,174.23c-.016-.254-.034-.52-.045-.8h-2.161a1.222,1.222,0,0,0,.02.132c.027.152.048.3.07.454.016.107.032.209.043.311l.014.116h2.074ZM168,208a.49.49,0,0,0-.052-.064.325.325,0,0,0-.054-.057,1.318,1.318,0,0,1-.184-.227,1.6,1.6,0,0,1-.086-.138c-.054-.1-.113-.209-.172-.331,0-.014-.014-.03-.023-.045s-.045-.1-.066-.145H161.2V174.441h6.677l-.014-.116c-.014-.1-.029-.2-.043-.311-.023-.143-.043-.291-.07-.454a.926.926,0,0,0-.02-.132H161.2V148.384h-.016a.311.311,0,0,0-.091.011.7.7,0,0,0-.107.023l-.079.03-.1.041-.066.027c-.163.073-.354.172-.581.281-.325.152-.656.3-.99.44l-.2.082-.245.1c-.161.066-.325.125-.488.179q-.159.057-.327.109c-.2.061-.395.118-.592.166-.1.027-.2.048-.3.068s-.2.041-.293.057-.2.034-.3.045-.177.025-.268.032v23.363h-64.8V144.812l-.136.082c-.81.454-1.872.37-2.576.969-.908.765-.747,2.179-.44,3.314.027.1.057.2.082.3a.6.6,0,0,0,.025.1h0a.392.392,0,0,0,.016.07,1.206,1.206,0,0,1,.036.157l.027.129.014.084a.183.183,0,0,0,.011.077.454.454,0,0,1,0,.077,1.257,1.257,0,0,1,.016.2v.023a2.043,2.043,0,0,1-1.4,1.788,1.981,1.981,0,0,1-.719.082v21.168H82.19l.093,1.008h4.051V207h-7.3c-.027.168-.057.34-.1.513-.018.075-.036.15-.059.227s-.052.182-.079.272h7.533v6.809h.772l.477-.016h.211c.284-.014.542-.03.769-.043l.3-.023.193-.014.279-.025h.172l.145.027h.052c.1.016.238.039.409.061l.216.032.12.016.34.045h.045l.531.066V208h15.206a10.9,10.9,0,0,1-.645-1.008H91.361V174.441h64.805V207h-2.451c-.227.125-.47.259-.715.406,0,0,.089.048.247.141h0c.177.1.438.259.763.454h2.154v1.484c.182.138.37.286.554.433l.277.227c.329.275.656.567.969.867l.256.252c.107.107.213.227.313.325l.041.043q.123.134.238.266l.163.191c.093.116.184.227.27.343s.17.227.247.345.157.227.227.35a4.263,4.263,0,0,1,.227.431h.481l.043.091c.02.036.034.073.05.107.066.148.12.291.168.433.018.059.039.116.052.175a1.56,1.56,0,0,1,.045.177,1.229,1.229,0,0,0,.032.159c.007.052.016.107.023.157a.838.838,0,0,1,.016.129v.12a2.663,2.663,0,0,1,0,.381,3.131,3.131,0,0,0,.325-.07V208h6.809ZM49.644,207c.211.345.433.681.663,1.008H78.8c.027-.091.057-.182.079-.272s.041-.148.059-.227c.041-.173.07-.345.1-.513ZM169.931,174.23c-.016-.254-.034-.52-.045-.8h-2.161a1.222,1.222,0,0,0,.02.132c.027.152.048.3.07.454.016.107.032.209.043.311l.014.116h2.074ZM168,208a.49.49,0,0,0-.052-.064.325.325,0,0,0-.054-.057,1.318,1.318,0,0,1-.184-.227,1.6,1.6,0,0,1-.086-.138c-.054-.1-.113-.209-.172-.331,0-.014-.014-.03-.023-.045s-.045-.1-.066-.145H161.2V174.441h6.677l-.014-.116c-.014-.1-.029-.2-.043-.311-.023-.143-.043-.291-.07-.454a.926.926,0,0,0-.02-.132H161.2V148.384h-.016a.311.311,0,0,0-.091.011.7.7,0,0,0-.107.023l-.079.03-.1.041-.066.027c-.163.073-.354.172-.581.281-.325.152-.656.3-.99.44l-.2.082-.245.1c-.161.066-.325.125-.488.179q-.159.057-.327.109c-.2.061-.395.118-.592.166-.1.027-.2.048-.3.068s-.2.041-.293.057-.2.034-.3.045-.177.025-.268.032v23.363h-64.8V144.812l-.136.082c-.81.454-1.872.37-2.576.969-.908.765-.747,2.179-.44,3.314.027.1.057.2.082.3a.6.6,0,0,0,.025.1h0a.392.392,0,0,0,.016.07,1.206,1.206,0,0,1,.036.157l.027.129.014.084a.183.183,0,0,0,.011.077.454.454,0,0,1,0,.077,1.257,1.257,0,0,1,.016.2v.023a2.043,2.043,0,0,1-1.4,1.788,1.981,1.981,0,0,1-.719.082v21.168H82.19l.093,1.008h4.051V207h-7.3c-.027.168-.057.34-.1.513-.018.075-.036.15-.059.227s-.052.182-.079.272h7.533v6.809h.772l.477-.016h.211c.284-.014.542-.03.769-.043l.3-.023.193-.014.279-.025h.172l.145.027h.052c.1.016.238.039.409.061l.216.032.12.016.34.045h.045l.531.066V208h15.206a10.9,10.9,0,0,1-.645-1.008H91.361V174.441h64.805V207h-2.451c-.227.125-.47.259-.715.406,0,0,.089.048.247.141h0c.177.1.438.259.763.454h2.154v1.484c.182.138.37.286.554.433l.277.227c.329.275.656.567.969.867l.256.252c.107.107.213.227.313.325l.041.043q.123.134.238.266l.163.191c.093.116.184.227.27.343s.17.227.247.345.157.227.227.35a4.263,4.263,0,0,1,.227.431h.481l.043.091c.02.036.034.073.05.107.066.148.12.291.168.433.018.059.039.116.052.175a1.56,1.56,0,0,1,.045.177,1.229,1.229,0,0,0,.032.159c.007.052.016.107.023.157a.838.838,0,0,1,.016.129v.12a2.663,2.663,0,0,1,0,.381,3.131,3.131,0,0,0,.325-.07V208h6.809ZM49.644,207c.211.345.433.681.663,1.008H78.8c.027-.091.057-.182.079-.272s.041-.148.059-.227c.041-.173.07-.345.1-.513ZM169.931,174.23c-.016-.254-.034-.52-.045-.8h-2.161a1.222,1.222,0,0,0,.02.132c.027.152.048.3.07.454.016.107.032.209.043.311l.014.116h2.074ZM168,208a.49.49,0,0,0-.052-.064.325.325,0,0,0-.054-.057,1.318,1.318,0,0,1-.184-.227,1.6,1.6,0,0,1-.086-.138c-.054-.1-.113-.209-.172-.331,0-.014-.014-.03-.023-.045s-.045-.1-.066-.145H161.2V174.441h6.677l-.014-.116c-.014-.1-.029-.2-.043-.311-.023-.143-.043-.291-.07-.454a.926.926,0,0,0-.02-.132H161.2V148.384h-.016a.311.311,0,0,0-.091.011.7.7,0,0,0-.107.023l-.079.03-.1.041-.066.027c-.163.073-.354.172-.581.281-.325.152-.656.3-.99.44l-.2.082-.245.1c-.161.066-.325.125-.488.179q-.159.057-.327.109c-.2.061-.395.118-.592.166-.1.027-.2.048-.3.068s-.2.041-.293.057-.2.034-.3.045-.177.025-.268.032v23.363h-64.8V144.812l-.136.082c-.81.454-1.872.37-2.576.969-.908.765-.747,2.179-.44,3.314.027.1.057.2.082.3a.6.6,0,0,0,.025.1h0a.1.1,0,0,0,.018.068,1.206,1.206,0,0,1,.036.157l.027.129.014.084a.183.183,0,0,0,.011.077.454.454,0,0,1,0,.077,1.259,1.259,0,0,1,.016.2v.023a2.043,2.043,0,0,1-1.4,1.788,1.981,1.981,0,0,1-.719.082v21.168H82.19l.093,1.008h4.051V207h-7.3c-.027.168-.057.34-.1.513-.018.075-.036.15-.059.227s-.052.182-.079.272h7.533v6.809h.772l.477-.016h.211c.284-.014.542-.03.769-.043l.3-.023.193-.014.279-.025h.172l.145.027h.052c.1.016.238.039.409.061l.216.032.12.016.34.045h.045l.531.066V208h15.206a10.9,10.9,0,0,1-.645-1.008H91.361V174.441h64.805V207H145.125c.213.086.4.17.545.247,1.784.908,5.063.66,7.2.356l.381-.057h0c.177.1.438.259.763.454h2.154v1.484c.182.138.37.286.554.433l.277.227c.329.275.656.567.969.867l.256.252c.107.107.213.227.313.325l.041.043q.123.134.238.266l.163.191c.093.116.184.227.27.343s.17.227.247.345.157.227.227.35a4.253,4.253,0,0,1,.227.431h.481l.043.091c.02.036.034.073.05.107.066.148.12.291.168.434.018.059.039.116.052.175a1.556,1.556,0,0,1,.045.177,1.228,1.228,0,0,0,.032.159c.007.052.016.107.023.157a.84.84,0,0,1,.016.129v.12a2.665,2.665,0,0,1,0,.381,3.129,3.129,0,0,0,.325-.07V208h6.809ZM49.644,207c.211.345.433.681.663,1.008H78.8c.027-.091.057-.182.079-.272s.041-.148.059-.227c.041-.173.07-.345.1-.513Zm104.071,0h-8.59c.213.086.4.17.545.247,1.784.908,5.063.66,7.2.356l.381-.057c-.159-.093-.247-.141-.247-.141C153.245,207.255,153.483,207.121,153.715,207Zm7.49,0V174.441h8.972c-.077-.073-.154-.145-.227-.211l-.059-.052-.132-.116c-.057-.05-.111-.1-.17-.143l-.143-.113-.157-.123q-.118-.1-.252-.191a.608.608,0,0,0-.061-.045H161.2v-1.782c-.073.036-.141.075-.211.113l-.227.141a.012.012,0,0,1-.014.011.275.275,0,0,1-.048.029l-.138.1c-.045.032-.093.066-.138.1-.138.1-.275.227-.409.334l-.134.12-.263.238c-.352.329-.7.67-1.053.985-.091.079-.179.159-.272.227a6.934,6.934,0,0,1-.6.454,2.922,2.922,0,0,1-.259.166l-.15.075-.134.068h0a5.058,5.058,0,0,1-.983.354V207H142.694a.5.5,0,0,0,.027.1c.075.3.15.6.227.908h13.222V242.9a.794.794,0,0,1,.1,0h.1l.227.016.429.036.681.079a2.081,2.081,0,0,1,.313.043l.37.052h.05l.6.1a.686.686,0,0,1,.129.025l.288.052.42.084h0l1.008-.036h0l.138.032.17.039V208.019h20.247c.032-.336.064-.681.1-1.008Zm20.342,0c-.032.338-.064.681-.1,1.008h8.7l.595-1.008Zm10.774,0h-.908v1.014h1.028ZM161.2,207V174.441h8.972c-.077-.073-.154-.145-.227-.211l-.059-.052-.132-.116c-.057-.05-.111-.1-.17-.143l-.143-.113-.157-.123q-.118-.1-.252-.191a.608.608,0,0,0-.061-.045H161.2v-1.782c-.073.036-.141.075-.211.113l-.227.141a.012.012,0,0,1-.014.011.275.275,0,0,1-.048.029l-.138.1c-.045.032-.093.066-.138.1-.138.1-.275.227-.409.334l-.134.12-.263.238c-.352.329-.7.67-1.053.985-.091.079-.179.159-.272.227a6.934,6.934,0,0,1-.6.454,2.922,2.922,0,0,1-.259.166l-.15.075-.134.068h0a5.058,5.058,0,0,1-.983.354V207H142.694a.5.5,0,0,0,.027.1c.075.3.148.6.227.908h13.225V242.9h.207l.227.016.429.036.681.079a2.082,2.082,0,0,1,.313.043l.368.052h.05l.6.1a.686.686,0,0,1,.129.025l.288.052.42.084h0l1.008-.036h0l.138.032.17.039V208.019H182v-.075a.748.748,0,0,0,0-.075c.027-.279.052-.554.079-.831a.1.1,0,0,1,0-.027Zm20.9,0a.1.1,0,0,0,0,.027c-.027.277-.052.551-.079.831a.748.748,0,0,1,0,.075V208h7.819v-.054l.558-.949Zm10.213,0h-.908v1.014h1.026Z" transform="translate(-19.812 -98.239)" fill="#6c63ff" opacity="0.1"/><path d="M235.4,599.395l-6.511-.107-5.041-.086-10.3-.172h-.454l-8.672-.145h0l-17.337-.3-9.4-.157-1.173-.021h-.454l-.881-.014H174.7l-4.877-.1-2.8-.048-.749-.014h-.32l-5.12-.086-5.032-.082-40.532-.681h-.554l-15.376-.257-.962-.018h0l-7.374-.12-5.032-.084-4.539-.077h-.388l-17.916-.3h0l-5.946-.123-16.2-.272-1.641-.027h-.018l-3.366-.057L19.6,595.781c-.1-1.489-.141-2.987-.138-4.487q0-1.5.043-2.984l16.459.359,3.177.07H39.2l1.8.039,7.56.163,4.06.089,24.057.522,1.684.036,7.619.166.949.02,1.689.039,2.224.048H91l7.217.157,10.32.227.64.014,24.677.536h.4l21.543.468,3.309.073.483.011h.481l.758.016.949.023h0l4.255.091h.47l1.341.029h.552l.527.011,2.95.066,10.538.227h.474l.71.016,29.032.629h.438l10.776.227,4.5.1.536.075,3.67.515c.4.706.783,1.409,1.135,2.113A29.581,29.581,0,0,1,235.4,599.395Z" transform="translate(-19.44 -476.033)" fill="#fff"/><path d="M235.4,609.56l-6.511-.107-5.041-.086-10.3-.172h-.454l-8.672-.145h0l-17.337-.3-9.4-.157-1.173-.021h-.454l-.881-.014H174.7l-4.877-.1-2.8-.048-.749-.014h-.32l-5.12-.086-5.032-.082-40.532-.681h-.554L99.348,607.3l-.962-.018h0l-7.374-.12-5.032-.084L81.441,607h-.388l-17.916-.3h0l-5.946-.123-16.2-.272-1.641-.027h-.018l-3.366-.057L19.6,605.947c-.1-1.489-.141-2.987-.138-4.487l16.5.329,3.4.066h.052l1.573.032,9.553.188,5.395.109,9.112.182,9.037.179h0l5.19.1h.109l5.694.111h.209l.681.016,5.032.1h.1l2.608.05.887.02,1.623.03,14.8.295h.595l44.177.876,5.032.1,4.294.084h.565l3.516.068.654.016h.522l10.612.211h.472l.742.014,12.619.252h0l13.813.272h0l3.895.077h.37l10.935.227,5.032.1,4.816.1a29.576,29.576,0,0,1,1.709,3.9Z" transform="translate(-19.44 -486.199)" fill="#d0d0db"/><path d="M592.755,363.963q-.209.132-.409.272-.429.288-.84.6h0c-.454.345-.89.713-1.312,1.094q-.375.343-.735.7c-.191.186-.381.379-.567.576-.359.374-.708.76-1.051,1.151l-.27.313q-.377.454-.749.894c-.322.39-.638.785-.953,1.182-.454.567-.908,1.135-1.348,1.7-.132.163-.261.325-.388.488-.74.908-1.482,1.816-2.27,2.655l-19.843.039h-5.465l-.075-.043h0l-.517-.3-.243-.141c-.615-.359-1.23-.717-1.843-1.067L553.73,374c-.865-.492-1.723-.971-2.576-1.423q-.772-.408-1.559-.781a43.873,43.873,0,0,0-5.352-2.147,46.11,46.11,0,0,0-7.322-1.763q-1.516-.243-3.048-.379c-.658-.059-1.321-.107-1.984-.138a46.832,46.832,0,0,0-15.907,1.934c-.7.213-1.4.454-2.09.694-.129.043-.256.091-.381.136.023-.116.048-.227.073-.347a5.976,5.976,0,0,1,2.056-2.771c.454-5.558,5.1-9.986,5.1-9.986l11.012-4.766.136-.091a26.682,26.682,0,0,1,5.032-2.708,3.026,3.026,0,0,1,.467-.136c2.013-.4,3.781-2.009,5.22-2.889.631-.386.744-1.77.667-3.214a2.032,2.032,0,0,0-.018-.334l-.327.018-.064-.168-.082-.227c-.014-.039-.025-.075-.039-.111h-.3c-.129-.338-.247-.66-.352-.969a18.774,18.774,0,0,1-.74-2.705.786.786,0,0,1-.018-.1,8.124,8.124,0,0,1-.132-1.235,4.674,4.674,0,0,1,.055-.931,3.018,3.018,0,0,1,.093-.393l-.209.02h0l-.545.048-.166.014-.073.048-3.447.306-.329.03-.168.014a.1.1,0,0,0,0-.025V336.5l-.318.03-.17.014a2.854,2.854,0,0,0,.061-.361l-.356.034-.132.011a26.287,26.287,0,0,1-3.631-.045,103.684,103.684,0,0,1-10.424-1.4S515,336.222,510.325,334a8.2,8.2,0,0,1-2.351-1.636h0a7.531,7.531,0,0,1-1.564-2.315,5.792,5.792,0,0,1-.35-1.049,3.123,3.123,0,0,1-.084-1.008c.4-4.539,12.646-1.477,15.154-.193a3.947,3.947,0,0,0,.443.193c1.859.681,4.832.454,6.82.17l.388-.057c-.084-.052-.152-.089-.2-.113l-.057-.032a11.83,11.83,0,0,1,3.345-1.425,8.1,8.1,0,0,1,2.179-.227,12.577,12.577,0,0,1,2.238.193h.052a2.635,2.635,0,0,0,.563-.148,1.3,1.3,0,0,0,.872-1.589,4.018,4.018,0,0,1,.243-2.247s1.117.3.987-1.135h0a4.706,4.706,0,0,0-.184-.872c-.048-.159-.089-.318-.122-.479v-.027a10.647,10.647,0,0,1,.368-4.791l.563-.722.029-.089.021-.054-.3-1.568h0l-.073-.372-.159-5.374s-.082-8.425,2.655-9.628l-.029-.381-.052-.66a6.624,6.624,0,0,1-1.875-.908,1.663,1.663,0,0,1-.393-.434h0a.731.731,0,0,1-.107-.572,1.135,1.135,0,0,1,.363-.567,5.987,5.987,0,0,0,1.77-3.209s.293-.486.772-1.246c.032-.054.068-.111.1-.168-.5-1.816-1.089-3.668-1.63-5.272-.05-.15-.1-.3-.148-.443-.032-.091-.061-.182-.091-.27-.054-.152-.107-.3-.157-.454l-.184.036a11.706,11.706,0,0,1-2.086.188,11.466,11.466,0,0,1-11.212-13.983c.041-.179.084-.359.134-.533.025-.1.054-.191.086-.286a1.959,1.959,0,0,0-1.207.154c-.563.247-1.055.66-1.6.944a3.822,3.822,0,0,1-1.743.4,3.875,3.875,0,0,1-1.105-.159h0a3.877,3.877,0,0,1-1.275-.64,1.107,1.107,0,0,0,.245-.018h.068l.191-.034h.054c.079-.02.159-.041.227-.066l.041-.011c.068-.023.134-.045.2-.073l.057-.023.227-.1h0a2.4,2.4,0,0,0,.227-.123.467.467,0,0,1,.043-.027l.188-.12.036-.025c.075-.05.148-.1.227-.159a5.319,5.319,0,0,0,.742-.706,13.775,13.775,0,0,0,1.786-2.914l1.362-2.705c.272-.538.556-1.085.876-1.589a6.775,6.775,0,0,1,.76-1.008,4.034,4.034,0,0,1,.838-.7,4.362,4.362,0,0,1,2.015-.6c1.114-.079,2.292.1,3.418.064a13.892,13.892,0,0,0,4.442-1.067,13.3,13.3,0,0,1,2.084-.681h0a4.584,4.584,0,0,1,.844-.1,5.447,5.447,0,0,1,2.37.586,9.26,9.26,0,0,1,2.855,2.113c.118.125.227.254.34.388.277.329.542.681.808,1.008.227.277.44.552.681.817,1.108,1.257,2.453,2.233,3.534,3.522a6.049,6.049,0,0,1,1.589,4.737v.039h0c-.02.12-.05.227-.082.356a.4.4,0,0,1-.032.113c-.023.082-.045.163-.073.243l-.041.127c-.03.084-.057.17-.089.256a6.143,6.143,0,0,0-.472,1.916,2.505,2.505,0,0,0,0,.293h0a11.668,11.668,0,0,0,.7,2.5,4.479,4.479,0,0,1,.213,1.155c0,.073,0,.145,0,.216v.211a2.213,2.213,0,0,1-.052.329h0a.113.113,0,0,1,0,.036.215.215,0,0,1,0,.048v.025a1.584,1.584,0,0,1-.05.159.064.064,0,0,1-.018.052l-.054.125-.032.057a.974.974,0,0,1-.07.116.36.36,0,0,1-.03.05,1.52,1.52,0,0,1-.12.152c-.027.03-.054.055-.084.082l.336.2c.029.02.059.036.091.054a54.106,54.106,0,0,0,5.579.965,5.482,5.482,0,0,1,1.741.635,15.619,15.619,0,0,1,7.072,7.374c1.062,2.27,2.317,4.737,2.978,5.22a7.065,7.065,0,0,1,1.548,2.011c.2.347.381.694.536,1.008.35.7.572,1.235.572,1.235s5.22,3.529,4.582,6.979c0,0,1.135,3.858,2.254,4.975s3.7,10.12,3.7,10.12a6.7,6.7,0,0,1,.885,2.964,14.412,14.412,0,0,0,.967,4.015s.227,1.135.522,2.27q.136.517.293,1.008a3.555,3.555,0,0,0,.633,1.362c.64.561.32,1.763.32,1.763a20.426,20.426,0,0,0,1.207,2.649,1.963,1.963,0,0,1,.227.933,10.376,10.376,0,0,1-.064,1.555s-.059.454-.1,1.071a5.91,5.91,0,0,0,.336,2.95,2.216,2.216,0,0,1,.3.953c.188,1.362.034,3.45.59,3.944.724.64.4,6.5.4,6.5S591.763,359.964,592.755,363.963Z" transform="translate(-395.531 -219.275)" fill="url(#a)"/><path d="M597.758,659.056l-.765.626-3.69,3.025-.747.613-3.243,2.662s-9.115,5.309-18.57,9.8c-1.015.481-2.043.953-3.048,1.409-.658-.059-1.321-.107-1.984-.138a46.83,46.83,0,0,0-15.907,1.934,10.09,10.09,0,0,1-.046-2.122c.454-5.522,5.061-9.918,5.061-9.918l10.894-4.728h.011l5.018-2.177,7.576-3.289,2.4.284,4.362.52Z" transform="translate(-429.357 -528.94)" fill="#babfc9"/><path d="M597.758,659.056l-.765.626-3.69,3.025-.747.613-3.243,2.662s-9.115,5.309-18.57,9.8c-1.015.481-2.043.953-3.048,1.409-.658-.059-1.321-.107-1.984-.138a46.83,46.83,0,0,0-15.907,1.934,10.09,10.09,0,0,1-.046-2.122c.454-5.522,5.061-9.918,5.061-9.918l10.894-4.728h.011l5.018-2.177,7.576-3.289,2.4.284,4.362.52Z" transform="translate(-429.357 -515.94)" fill="#aeb5c3" opacity="0.05"/><path d="M684.575,755.028l-.03.227-.145,1.089-.02.172-.011.059-.054.415-.079.6-.148-.086c-.865-.493-1.723-.971-2.576-1.423q-.772-.409-1.559-.781a43.891,43.891,0,0,0-5.352-2.147l.492-.908,3.048.894,4.33,1.275.794.227.633.186Z" transform="translate(-525.892 -602.766)" fill="#5f546f"/><path d="M684.575,755.028l-.03.227-.145,1.089-.02.172-.011.059-.054.415-.079.6-.148-.086c-.865-.493-1.723-.971-2.576-1.423q-.772-.409-1.559-.781a43.891,43.891,0,0,0-5.352-2.147l.492-.908,3.048.894,4.33,1.275.794.227.633.186Z" transform="translate(-525.892 -602.766)" opacity="0.05"/><path d="M668.92,655.59l5.894,2.39.878,2.628-6.055-2.39Z" transform="translate(-517.089 -506.753)" fill="#ccccd8"/><path d="M668.92,655.59l5.894,2.39.878,2.628-6.055-2.39Z" transform="translate(-517.089 -506.753)" opacity="0.05"/><path d="M748.56,761.07c-.454.567-.908,1.135-1.348,1.7-.132.163-.261.325-.388.488-.74.908-1.482,1.816-2.27,2.655l-.093.1-25.038.048h0l-.168-.1-.075-.043h0l-.518-.3-.243-.141c-.615-.359-1.23-.717-1.843-1.067l-.148-.086.023-.549.018-.47h0l.034-.853h0l.014-.356.37-.014Z" transform="translate(-558.229 -609.584)" fill="#5f546f"/><path d="M732.091,769.761h-.238l-2.245-.032h-.079l-2.98-.039-.518-.3-.043-1.841v-.477l-.018-.817,5.642-.3.241-.011.064,1.024.03.479.143,2.285Z" transform="translate(-565.603 -613.357)" opacity="0.1"/><path d="M731.041,769.7h0l-2.453-.029-2.846-.039h0l-.518-.3-.243-.141-.043-1.7v-.477l-.018-.822,5.9-.318v.027l.066,1.017.03.479.143,2.281Z" transform="translate(-564.792 -613.303)" fill="#5f546f"/><path d="M731.041,769.7h0l-2.453-.029-2.846-.039h0l-.518-.3-.243-.141-.043-1.7v-.477l-.018-.822,5.9-.318v.027l.066,1.017.03.479.143,2.281Z" transform="translate(-564.792 -613.303)" fill="#fff" opacity="0.1"/><path d="M717.059,762.071l31.679-1c-.454.567-.908,1.135-1.348,1.7-.132.163-.261.325-.388.488l-22.242.409h-.227l-5.719.1h-.227l-1.62.029a.771.771,0,0,1-.1,0,.854.854,0,0,1-.2-.032l.018-.47h0l.034-.853h0l.014-.356Z" transform="translate(-558.406 -609.584)" opacity="0.1"/><path d="M747.4,750.54l-.27.313q-.377.454-.749.894c-.322.39-.638.785-.953,1.182-.454.567-.908,1.135-1.348,1.7l-22.666.418h-.227l-5.713.111h-.227l-1.589.023h-.077a1.149,1.149,0,0,1-.2-.018h-.05a1.212,1.212,0,0,1-.935-1.346l.073-.5.068-.483.039-.27.079-.542.021-.152Z" transform="translate(-555.098 -601.444)" fill="#ccccd8"/><path d="M745.055,735.132l1.078.377q-.375.343-.735.7c-.191.186-.381.379-.567.576-.359.374-.708.76-1.051,1.151l-.27.313q-.377.454-.749.894l-33.136.908h-.409l-.168-.642L707.7,734.24l32.037.753h0l1.841.043Z" transform="translate(-551.48 -588.844)" fill="#5f546f"/><path d="M618.485,682.205c-.454.345-.89.713-1.312,1.094q-.375.343-.735.7c-.191.186-.381.379-.567.576-.359.374-.708.76-1.051,1.151l-.27.313a148.765,148.765,0,0,1-24.028.94,32.735,32.735,0,0,0-9.864.865h0l-.381.1-.313.084c-.293.079-.581.163-.862.25-.681.2-1.314.424-1.916.654l-.6.238a43.9,43.9,0,0,0-5.352-2.147,46.12,46.12,0,0,0-7.322-1.763q-1.516-.243-3.048-.379c-.658-.059-1.321-.107-1.984-.138a46.829,46.829,0,0,0-15.907,1.934c-.7.213-1.4.454-2.09.695l.014-.068a5.849,5.849,0,0,1,2.043-2.748c3.493-3.066,10.159-6.094,10.159-6.094l3.552-1.507h0l2.24-.953,5.032-2.133,10.635-4.512.113-.048,2.462-1.044,2.251-.958a17.93,17.93,0,0,1,4.786-.6h.622a4.018,4.018,0,0,1,.468.018h.291c.383.02.767.052,1.155.091.136.011.272.027.411.043h.073l.3.036c.127.014.254.032.381.05l.379.054c.254.039.508.079.765.125q.572.1,1.155.227l.57.123c.581.127,1.164.27,1.75.424l.545.15.365.1.454.134c1.069.318,2.14.681,3.2,1.06l.57.213.545.2a.062.062,0,0,0,.025.011c.325.125.649.254.971.386,1.832.742,3.631,1.559,5.329,2.413l.586.293.3.157c.2.1.4.207.6.311l.592.313.291.157.291.159.286.157q1.005.552,1.943,1.105c.179.1.356.209.531.315l.261.154c.345.209.681.415,1.012.624.163.1.325.2.488.306.238.152.474.3.706.454.152.1.3.2.454.3l.227.15c.145.1.288.193.429.291l.243.168c.161.109.32.227.472.329.077.054.152.111.227.163l.07.05.556.409h.011l.34.259.331.256c.227.166.422.331.615.492l.277.227.134.113.132.113.227.211.159.152c.059.052.111.1.161.152a7.387,7.387,0,0,1,.565.617c.134.17.256.331.37.486Z" transform="translate(-422.521 -536.636)" fill="#babfc9"/><path d="M538.936,574.393a5.663,5.663,0,0,1-1.938.4c-4.614.34-13.917-1.439-13.917-1.439s-11.711,2.628-14.9-4.7,11.79-3.665,14.58-2.231c1.782.908,5.061.661,7.2.359,1.205-.172,2.043-.359,2.043-.359S541.882,572.959,538.936,574.393Z" transform="translate(-396.903 -457.421)" fill="#c27099"/><path d="M627.9,514.407l-2.628,12.823-7.805.681-3.906.345c.955-3.983-7.326-8.524-7.326-8.524,4.219-2.549,6.691-1.362,7.564-1.434a.492.492,0,0,0,.172-.02c.826-.123,1.648-.613,1.423-1.729a4.014,4.014,0,0,1,.227-2.233s1.514.4.8-1.99a10.133,10.133,0,0,1,.238-5.259l.558-.717.876-2.708,3.583,3.663Z" transform="translate(-473.039 -410.58)" fill="#4c4981"/><path d="M627.9,514.765l-2.628,12.825-7.805.681-3.906.347c.955-3.985-7.326-8.527-7.326-8.527,4.219-2.549,6.691-1.362,7.564-1.432l.172-.023c.826-.123,1.648-.613,1.423-1.729a4.014,4.014,0,0,1,.227-2.233s1.514.4.8-1.99a10.133,10.133,0,0,1,.238-5.259l.558-.717L618.1,504l3.584,3.665Z" transform="translate(-473.039 -410.858)" opacity="0.05"/><path d="M620.677,576.386c-.384.277-.758.531-1.114.769l-3.9.345c.956-3.983-7.328-8.524-7.328-8.524,4.221-2.549,6.693-1.362,7.567-1.434a.5.5,0,0,0,.172-.02,14.776,14.776,0,0,0,3.177,3.289C620.677,571.527,623.784,574.155,620.677,576.386Z" transform="translate(-474.663 -459.813)" opacity="0.1"/><path d="M614.624,581.858a5.66,5.66,0,0,1-1.938.4c.415-3.4-5.531-7.131-7.036-8.012,1.205-.172,2.043-.359,2.043-.359S617.57,580.424,614.624,581.858Z" transform="translate(-472.591 -464.886)" opacity="0.1"/><path d="M618.576,576.386c-.386.277-.758.531-1.114.769l-3.906.345c.955-3.983-7.326-8.524-7.326-8.524,4.219-2.549,6.691-1.362,7.564-1.434a.492.492,0,0,0,.172-.02,14.825,14.825,0,0,0,3.177,3.289C618.576,571.527,621.681,574.155,618.576,576.386Z" transform="translate(-473.039 -459.813)" fill="#4c4981"/><path d="M618.576,577.088q-.579.415-1.114.769l-3.906.347c.955-3.985-7.326-8.527-7.326-8.527,4.219-2.549,6.691-1.362,7.564-1.432a1.076,1.076,0,0,0,.172-.023,14.773,14.773,0,0,0,3.177,3.289C618.576,572.229,621.681,574.857,618.576,577.088Z" transform="translate(-473.039 -460.356)" opacity="0.05"/><path d="M670.093,341.8s-14.979,20.95-13.781,17.126c.788-2.517-1.394-9.721-2.975-14.357-.824-2.408-1.487-4.124-1.487-4.124s8.6-7.41,8.445-5.737c-.041.436.6,1.135,1.589,1.909A72.458,72.458,0,0,0,670.093,341.8Z" transform="translate(-508.306 -279.801)" fill="#c27099"/><path d="M661.855,336.63a11.4,11.4,0,0,1-8.538,7.943c-.824-2.408-1.487-4.124-1.487-4.124s8.6-7.41,8.445-5.737C660.239,335.148,660.881,335.838,661.855,336.63Z" transform="translate(-508.29 -279.801)" opacity="0.1"/><path d="M620.386,289.033a11.336,11.336,0,1,1-3.32-8.073A11.393,11.393,0,0,1,620.386,289.033Z" transform="translate(-466.368 -235.871)" fill="#c27099"/><path d="M733.128,682.182c-.454.345-.89.713-1.312,1.094q-.375.343-.735.7c-.191.186-.381.379-.567.576a31.747,31.747,0,0,1-5.1-1.782h0a9.464,9.464,0,0,1-3.041-1.954c-2.043-2.24-8.765-8.071-22.015-9.832a61.631,61.631,0,0,0-9.621-.488q-.667.014-1.35.043l-.206-1.219.113-.048,2.462-1.044,2.251-.958a17.927,17.927,0,0,1,4.786-.6h.622a4.032,4.032,0,0,1,.468.018h.291c.384.02.767.052,1.155.091.136.011.272.027.411.043h.073l.3.036c.127.014.254.032.381.05l.379.055c.254.039.508.079.765.125.381.064.767.138,1.155.227l.57.123c.581.127,1.164.27,1.75.424l.545.15.365.1.454.134c1.069.318,2.14.681,3.2,1.06l.57.213.545.2a.061.061,0,0,0,.025.011q.487.187.971.386c1.832.742,3.631,1.559,5.329,2.412l.586.293.3.157c.2.1.4.207.6.311l.592.313.291.157.291.159.286.157q1.005.552,1.943,1.105c.179.1.356.209.531.315l.261.154c.345.211.681.415,1.012.624.163.1.325.2.488.306.238.152.474.3.706.454.152.1.3.2.454.3l.227.15c.145.1.288.193.429.291l.243.168.474.37c.077.055.152.111.227.163l.07.05.556.409h.011l.34.259.331.257c.227.168.422.334.615.492.1.077.188.154.277.227l.134.113.132.114.227.211.159.152c.059.052.111.1.161.152a7.4,7.4,0,0,1,.565.617c.134.17.256.331.37.486Z" transform="translate(-537.163 -536.613)" opacity="0.1"/><path d="M703.543,430.667s1.135,7.308,2.127,11.259q-.429.288-.84.6h0c-.454.345-.89.713-1.312,1.094q-.375.343-.735.7a33.112,33.112,0,0,1-3.826-1.162,13.8,13.8,0,0,1-4.882-2.708c-2.006-2.2-8.511-7.85-21.264-9.727a61.2,61.2,0,0,0-9.948-.6c-.581,0-1.171.025-1.77.052L661,429.63l-.785-4.571-.722-4.283v-.025l-.077-.474v-.027l-.032-.2-.138-.819-.37-2.19-.172-1.035s-.011-.118-.027-.329v-.3a.979.979,0,0,0-.014-.179.392.392,0,0,1,0-.127l-.014-.143a.354.354,0,0,1,0-.052c0-.073-.014-.152-.02-.227a.029.029,0,0,1,0-.014c-.014-.148-.03-.3-.045-.468-.011-.1-.023-.209-.034-.318-.045-.42-.1-.878-.152-1.362-.052-.4-.107-.822-.166-1.239-.016-.116-.032-.227-.05-.34a1.187,1.187,0,0,0-.029-.2h0a.968.968,0,0,0-.025-.159c-.034-.227-.07-.431-.107-.642a.872.872,0,0,0-.023-.134c-.02-.109-.039-.227-.059-.322s-.05-.254-.075-.379a.05.05,0,0,0,0-.018.874.874,0,0,0-.034-.163c-.011-.057-.034-.152-.05-.227-.03-.134-.059-.266-.091-.388l-.043-.166c-.02-.086-.045-.172-.07-.254a3.916,3.916,0,0,0-.454-1.135h0a.488.488,0,0,0-.052-.064.322.322,0,0,0-.055-.057,1.322,1.322,0,0,1-.184-.227,1.587,1.587,0,0,1-.086-.138c-.055-.1-.113-.209-.172-.331,0-.014-.014-.03-.023-.045s-.045-.1-.066-.145a68.915,68.915,0,0,1-2.5-8.754l-.906-4.364h0l-.091-.479-.275-1.45V390.5h0l-.157-5.161s-.082-8.366,2.628-9.559l-.082-1.035s-2.108-.624-2.347-1.575a.681.681,0,0,1,.027-.434h0a1.251,1.251,0,0,1,.329-.454c.039-.036.077-.073.111-.111a5.926,5.926,0,0,0,1.641-3.075s.334-.554.869-1.4c1.67-2.653,5.311-8.189,6.938-8.792a13.01,13.01,0,0,0,3.745-2.231l.365.079h0a55.531,55.531,0,0,0,5.526.955,5.478,5.478,0,0,1,1.723.631,15.492,15.492,0,0,1,7.036,7.322c1.055,2.27,2.3,4.7,2.95,5.193a5.355,5.355,0,0,1,1.123,1.323c.211.325.413.681.595,1.008.538.994.908,1.893.908,1.893s5.179,3.5,4.539,6.929c0,0,1.117,3.824,2.231,4.941s3.665,10.038,3.665,10.038a6.66,6.66,0,0,1,.876,2.95,14.251,14.251,0,0,0,.956,3.985s.166.847.409,1.816c.082.331.172.681.268,1.008a5,5,0,0,0,.758,1.788c.635.556.318,1.752.318,1.752a20.235,20.235,0,0,0,1.2,2.628,1.324,1.324,0,0,1,.182.536,8.521,8.521,0,0,1-.023,1.936s-.034.277-.068.681c-.077.967-.138,2.678.309,3.293a1.657,1.657,0,0,1,.227.6c.279,1.294.043,3.722.642,4.258C703.86,424.848,703.543,430.667,703.543,430.667Z" transform="translate(-508.853 -296.965)" fill="#4c4981"/><path d="M628.714,616.37s-.454,1.071-1.114,2.653c-1.3,3.132-3.4,8.266-4.312,10.969-1.362,4.063-6.85,6.452-6.85,6.452s-10.914,3.743-14.739.956,7.17-8.924,9.16-9.319,3.745-1.995,5.179-2.869c.681-.413.751-1.993.64-3.55a30,30,0,0,0-.481-3.463Z" transform="translate(-468.918 -497.725)" fill="#c27099"/><path d="M789.1,449.423s4.142-1.834,5.9,1.035S789.1,449.423,789.1,449.423Z" transform="translate(-614.406 -368.222)" opacity="0.1"/><path d="M775.207,613.91s-28.6.238-23.181,3.9,6.214,5.415,12.508,3.663S775.207,613.91,775.207,613.91Z" transform="translate(-585.218 -495.823)" opacity="0.1"/><path d="M621.8,289.015a11.348,11.348,0,0,1-1.525,5.694,3.539,3.539,0,0,1-1.173-.747,5.318,5.318,0,0,1-.84-1.5,13.149,13.149,0,0,0-1.9-3.023,2.587,2.587,0,0,0-2.022-1.182c-1.325.127-2.27,2.165-3.538,1.734-.386-.129-.951-2.583-1.169-3.034-.517-1.067-.806-.758-1.75-.313a9.359,9.359,0,0,1-5.694,1.207,3.016,3.016,0,0,1-1.786-.94,6.226,6.226,0,0,0-.6-.742,1.21,1.21,0,0,0-.37-.211,11.393,11.393,0,0,1,22.371,3.053Z" transform="translate(-467.782 -235.854)" opacity="0.1"/><path d="M587.875,276.355c1.273.429,2.215-1.607,3.54-1.736a2.6,2.6,0,0,1,2.02,1.185,13.026,13.026,0,0,1,1.9,3.023,5.353,5.353,0,0,0,.84,1.5,3.858,3.858,0,0,0,1.264.788l1.725.776c1,.454,2.27.847,3.046,0a2.89,2.89,0,0,0,.247-2.724,8.889,8.889,0,0,1-.708-2.773,19.826,19.826,0,0,1,.778-2.994,6,6,0,0,0-1.564-4.741c-1.069-1.28-2.4-2.249-3.5-3.5-.624-.71-1.169-1.5-1.816-2.2a9.145,9.145,0,0,0-2.828-2.1,5.337,5.337,0,0,0-2.347-.581,8.736,8.736,0,0,0-2.9.778,13.744,13.744,0,0,1-4.4,1.058c-1.816.059-3.786-.454-5.381.533a7.735,7.735,0,0,0-2.449,3.279l-1.362,2.687a14.01,14.01,0,0,1-1.768,2.889,3.894,3.894,0,0,1-2.753,1.5,3.858,3.858,0,0,0,4.085.381c.545-.281,1.033-.692,1.589-.937a1.63,1.63,0,0,1,1.718.1,5.694,5.694,0,0,1,.6.742,3.007,3.007,0,0,0,1.786.937,9.428,9.428,0,0,0,5.7-1.205c.942-.454,1.232-.753,1.748.313C586.924,273.773,587.489,276.226,587.875,276.355Z" transform="translate(-444.614 -222.452)" fill="#63345e"/><path d="M680.858,616.37s-.454,1.071-1.114,2.653c-.533.263-1.1.554-1.641.835-1.453.756-2.742,1.448-2.742,1.448l-6.53.356a30,30,0,0,0-.481-3.463Z" transform="translate(-521.061 -497.725)" opacity="0.1"/><path d="M687.945,391.3l-1.589,5.576a11.083,11.083,0,0,0-.794,6.534c.794,3.189-.479,8.046-.479,8.046l-2.476,6.373s-3.107,6.532-3.665,6.532a29.8,29.8,0,0,0-4.031,1.9c-1.452.756-2.739,1.448-2.739,1.448l-7.331.4c-2.417-6.355-.749-7.469.454-7.574a2.567,2.567,0,0,1,.908.086l1.589-10.038v-6.214s.479-5.973,1.514-7.887a18.036,18.036,0,0,0,1.512-3.979,15.085,15.085,0,0,1-1.2-3.028,21.726,21.726,0,0,1-.318-2.549s-1.117.159-1.434-8.924,6.452-11.55,6.452-11.55c8.127-2.469,12.828,4.38,16.091,9.321S687.945,391.3,687.945,391.3Z" transform="translate(-517.393 -304.121)" opacity="0.1"/><path d="M695.355,389.173l-1.589,5.574a11.1,11.1,0,0,0-.8,6.534c.792,3.186-.477,8.046-.477,8.046l-2.469,6.373s-3.112,6.532-3.663,6.532a29.8,29.8,0,0,0-4.031,1.9c-1.453.756-2.742,1.45-2.742,1.45l-3.268.177-.715-4.242a56.913,56.913,0,0,0-1.176-8.148l.778-4.914v-6.214s.479-5.976,1.514-7.887a18,18,0,0,0,1.512-3.985,15.068,15.068,0,0,1-1.194-3.028,21.136,21.136,0,0,1-.318-2.546s-1.117.157-1.434-8.926,6.452-11.55,6.452-11.55c8.125-2.469,12.828,4.38,16.091,9.321S695.355,389.173,695.355,389.173Z" transform="translate(-525.761 -302.474)" opacity="0.1"/><path d="M685.854,389.173l-1.589,5.574a11.1,11.1,0,0,0-.8,6.534c.792,3.186-.479,8.046-.479,8.046l-2.467,6.373s-3.107,6.532-3.668,6.532a29.818,29.818,0,0,0-4.029,1.9c-1.453.756-2.742,1.45-2.742,1.45l-7.331.4c-2.415-6.355-.747-7.467.443-7.574a2.567,2.567,0,0,1,.908.086l1.589-10.036v-6.214s.477-5.976,1.511-7.887a18.071,18.071,0,0,0,1.514-3.985,15.175,15.175,0,0,1-1.2-3.028,21.675,21.675,0,0,1-.318-2.546s-1.114.157-1.432-8.926,6.452-11.55,6.452-11.55c8.125-2.469,12.825,4.38,16.091,9.321S685.854,389.173,685.854,389.173Z" transform="translate(-515.78 -302.474)" fill="#4c4981"/><path d="M673.859,609.076c-1.453.756-2.742,1.448-2.742,1.448l-7.328.4c-2.417-6.355-.749-7.469.44-7.574,1.754,1.266,4.035,3.007,4.181,3.59S671.516,608.434,673.859,609.076Z" transform="translate(-516.579 -487.66)" opacity="0.1"/><path d="M672.807,610.126c-1.453.756-2.742,1.45-2.742,1.45l-7.331.4c-2.415-6.355-.747-7.467.443-7.574,1.754,1.269,4.035,3.007,4.181,3.59S670.464,609.484,672.807,610.126Z" transform="translate(-515.765 -488.472)" fill="#4c4981"/><g transform="translate(124.866 48.268)" opacity="0.1"><path d="M602.679,315.927c-.767.851-2.043.454-3.046,0l-1.725-.776a3.785,3.785,0,0,1-1.264-.788,5.351,5.351,0,0,1-.84-1.5,13.182,13.182,0,0,0-1.9-3.021,2.6,2.6,0,0,0-2.022-1.185c-1.325.129-2.27,2.165-3.541,1.736-.384-.129-.949-2.583-1.167-3.034-.518-1.067-.806-.758-1.75-.313-1.788.844-3.729,1.589-5.7,1.205a3,3,0,0,1-1.784-.937,5.9,5.9,0,0,0-.606-.742,1.621,1.621,0,0,0-1.716-.1c-.558.247-1.044.656-1.589.937a3.808,3.808,0,0,1-2.469.34,3.447,3.447,0,0,1-2.015.792,3.858,3.858,0,0,0,4.085.381c.545-.281,1.033-.692,1.589-.937a1.63,1.63,0,0,1,1.718.1,5.709,5.709,0,0,1,.6.742,3.007,3.007,0,0,0,1.786.937,9.428,9.428,0,0,0,5.7-1.205c.942-.454,1.232-.753,1.748.313.227.454.783,2.905,1.169,3.034,1.273.429,2.215-1.607,3.541-1.736a2.6,2.6,0,0,1,2.02,1.185,13.026,13.026,0,0,1,1.9,3.025,5.347,5.347,0,0,0,.84,1.5,3.858,3.858,0,0,0,1.264.788l1.725.776c1,.454,2.27.847,3.046,0a2.17,2.17,0,0,0,.454-1.589A.735.735,0,0,1,602.679,315.927Z" transform="translate(-569.55 -306.278)"/><path d="M713.982,316.72a6.648,6.648,0,0,0-.4,1.523,8.062,8.062,0,0,0,.359-1.232C713.957,316.915,713.97,316.818,713.982,316.72Z" transform="translate(-680.891 -314.35)"/></g><path d="M503.734,750.45s-1.434,3.824-4.224,3.9Z" transform="translate(-390.54 -601.375)" opacity="0.1"/><path d="M200.427,339.755a24.485,24.485,0,0,0-1.816-3.177l-.3-.438h.2a.976.976,0,0,0,.692-.227h0c1.766-1.477-1.85-9.986-3.811-10.127-1.348-.1-3.985-.2-5.765-.263l-.486-.016c-.018-.1-.039-.188-.061-.286a8.1,8.1,0,0,1-3.359-1.763c-1.119-1.2-2.478-2.644-2.478-2.644a5.24,5.24,0,0,1-1.639-1.069.976.976,0,0,1-.279-.615c0-.772-2.692-3.08-3.366-3.645l-.15-.127s-.241-1.205-1.119-1.443c-.363-.1-.8-.667-1.178-1.3a18.187,18.187,0,0,1-.98-1.911s-1.1-1.289-1.981-2.549a10.9,10.9,0,0,1-.645-1.008,2.723,2.723,0,0,1-.411-1.019c-.079-1.121-1.362-1.2-1.362-1.2a14.453,14.453,0,0,1-1.117-2.81c0-.563-1.679-1.684-1.679-1.684l-2.637-2.969s.719-2.086-1.838-3.69-2.878-6.18-2.878-6.18l-2.247-4.875-.227-.5a1.373,1.373,0,0,0,.495-.474,1.455,1.455,0,0,0,.143-1.212,5.4,5.4,0,0,0-.812-1.693c-.023-.034-.045-.064-.066-.091-.141-.193-.238-.3-.238-.3a.994.994,0,0,0,.25-.227c.018-.025.036-.048.054-.077a1.232,1.232,0,0,0,0-1.269,2.43,2.43,0,0,0-.145-.268c-.8-1.282-.958-4.333-.958-4.333l-1.92-5.377a10.625,10.625,0,0,0-2.009-5.311,4.676,4.676,0,0,0-1.666-1.269,3.749,3.749,0,0,0-1.541-1.189l-.027-.011c-.032-.2-.059-.4-.084-.592s-.039-.325-.054-.488a12.466,12.466,0,0,0,1.707.116,12.258,12.258,0,0,0,1.666-.111,12.56,12.56,0,0,0,5.032-1.816,12.78,12.78,0,0,0,5.649-7.812h0a12.892,12.892,0,0,0,.359-3.023,12.615,12.615,0,0,0-.263-2.587.841.841,0,0,0-.034-.163c-.066-.313-.148-.622-.238-.926-.02-.066-.043-.132-.061-.2a6.243,6.243,0,0,0,1.816.209,1.078,1.078,0,0,0,.6-.168,1.255,1.255,0,0,0,.347-.533c.109-.263.216-.536.3-.812a.634.634,0,0,0,.018-.061h0a5.391,5.391,0,0,0,.186-.79,3.631,3.631,0,0,0,.041-.663,2.527,2.527,0,0,0-.016-.345,2.4,2.4,0,0,0-.084-.454.332.332,0,0,1-.014.113,2.246,2.246,0,0,0-.123-.318c-.642-1.332-2.5-1.854-2.878-3.282-.184-.681-.016-1.548-.558-2.006a2.349,2.349,0,0,0-.831-.347,12.862,12.862,0,0,1-3.143-1.995,6.351,6.351,0,0,0-1.087-.595,2.953,2.953,0,0,0-2.417-.091c-.213.1-.411.227-.624.34a3.631,3.631,0,0,1-1.99.245c-.454-.043-.894-.127-1.33-.191a3.46,3.46,0,0,0-3.157.681,6.637,6.637,0,0,1-.788.992c-.615.474-1.484.245-2.245.093s-1.75-.089-2.043.629a6.265,6.265,0,0,0-.159.681,2.006,2.006,0,0,1-1.362,1.241,14.117,14.117,0,0,1-1.879.345,7.036,7.036,0,0,0-2.826,1.194,2.758,2.758,0,0,0-.908,1.014.232.232,0,0,0-.03-.084,1.173,1.173,0,0,0-.089.542,1.023,1.023,0,0,0,.02.32,1.436,1.436,0,0,0,.073.227,3.093,3.093,0,0,1,.172.486,1.047,1.047,0,0,1,.025.2,1.484,1.484,0,0,1-.227.774,2.292,2.292,0,0,1-.148.227,8.877,8.877,0,0,1-.6.726,2.952,2.952,0,0,0-.477.735l-.02-.016-.025-.036a1.493,1.493,0,0,0-.111.631.987.987,0,0,0,.082.481.855.855,0,0,0,.136.207,3.768,3.768,0,0,0,.726.5,2.807,2.807,0,0,1,.844,2.217,18.837,18.837,0,0,1-.186,3.631v.034c-.07.472-.261,1.348-.32,2.22h0v.1a.086.086,0,0,0,0-.023c0,.1,0,.211,0,.313a2.606,2.606,0,0,0,.454,1.743h0a1.071,1.071,0,0,0,.356.263,1.143,1.143,0,0,0,.892-.138q-.211.531-.438,1.051h0c-.025.061-.052.123-.077.182q-.268.613-.554,1.2a6.248,6.248,0,0,0-3.323.354s-.481,3.69-2.079,4.085-7.428,5.3-7.428,5.3l-8.425,8.456-.209.209s-.211.3-.556.8a70.016,70.016,0,0,0-5.517,9.078,27.624,27.624,0,0,0-1.2,4.124,69.291,69.291,0,0,0-1.589,9.834h0c.068.969-.338,9.952-.2,13.474a7.614,7.614,0,0,0,.113,1.21,10.4,10.4,0,0,1,.109,1.743c.014,1.157-.018,2.723-.068,4.419-.141,4.578-.438,9.966-.438,9.966a44.961,44.961,0,0,0,2.079,5.12c.132.227.243.347.318.336.479-.079,1.838,3.291,1.838,3.291s.531-.02,1.453-.082l.272-.02c.07.157.143.311.227.467s.154.318.227.479.148.306.227.454c.926,1.863,1.965,3.645,2.63,3.829,1.439.4,5.356,2.408,5.674,3.291s5.722,1.793,8.039,1.793H129.4v.411a2.3,2.3,0,0,0,2.251,2.111l1.75.027h.075l-.052.395-.011.084-.052.395-.479,3.631h.163l4.791.077h.5v-.152c.227-.07.468-.136.7-.2l.268-.075a66.07,66.07,0,0,1,12.977-2.748,29.047,29.047,0,0,1,4.355-.032c.227.016.454.036.681.057,4.68.454,9.226,2.1,13.769,3.488h.552l1.441.014h.227l4.609.043h.465l.1-3.756v-.481l1.516.027a2.292,2.292,0,0,0,1.77-.794h0a2.27,2.27,0,0,0,.511-1.026,2.3,2.3,0,0,0,.052-.488v-.338a2.367,2.367,0,0,1-.157,2.973h0a4.66,4.66,0,0,1-.958.828,7.707,7.707,0,0,0-2.36,2.1h0c-.3.5-.116.706-.116.706h13.284c3.227-1.389,6.355-3.161,9.575-4.55a.125.125,0,0,0,.034-.018h0l.227-.093C202.617,348.275,203.051,342.93,200.427,339.755ZM146.6,299.407l.132-.336.252-.64c.027.039.057.082.082.123,2.5,3.672,4.777,7.017,4.777,7.017l.42.472c-.227.027-.47.054-.713.077-.858.091-1.743.172-2.1.172a21.086,21.086,0,0,1-3.037-.561l-1.169-.533a6.553,6.553,0,0,0-.216-1.459h0l-.054-.175,1.382-3.52Zm21.624,22.051c1.965,1.4,4.4,2.987,6.838,4.512l-1.112.025-5.912.138c-2.2-.49-5.447-1.235-6.287-1.546-.406-.152-2.176-.635-4.41-1.226-1.557-.411-3.339-.876-5.032-1.312l-3.443-.885a.633.633,0,0,0-.141-.27,6.633,6.633,0,0,1-.946-1.716,10.74,10.74,0,0,1-.492-1.655s-2.043-.227-2.39-.908c-.107-.2-.061-.429.227-.706a1.979,1.979,0,0,0,.495-.681,2.45,2.45,0,0,0,.12-.372,3.1,3.1,0,0,0,0-1.194h0a4,4,0,0,0-.211-.751,13.947,13.947,0,0,1,2.56.853,11.426,11.426,0,0,0,4.224.563c1.067,0,2.065-.059,2.689-.1h.109c.359-.03.572-.052.572-.052s.681.12,1.661.243c.626.073,1.38.15,2.165.2.3.02.6.034.908.041l.524.517.143.138c1.53,1.484,3.1,2.935,4.6,4.19C166.561,320.219,167.416,320.891,168.22,321.458Z" transform="translate(-85.783 -198.394)" fill="url(#b)"/><path d="M350.2,563.749l20.553-.479,7.17,3.983,1.117,9.321-18.88-5.417Z" transform="translate(-270.705 -435.385)" fill="#aea4b2"/><path d="M350.2,563.749l20.553-.479,7.17,3.983,1.117,9.321-18.88-5.417Z" transform="translate(-270.705 -435.385)" opacity="0.05"/><path d="M314.789,579.449a19.471,19.471,0,0,1,2.152,2.39s7.249,1.275,9-.318-3.436-6.931-3.436-6.931l-4.621.241-3.745,2.229Z" transform="translate(-247.241 -465.427)" fill="#ffc4d0"/><path d="M270.3,562.66l3.506,1.589a21.1,21.1,0,0,0,3.028.558c.8,0,4.142-.4,4.142-.4L284,565.6s-2.71,5.1-.956,7.008c0,0-5.5.558-7.569-.4a18.852,18.852,0,0,0-4.859-1.276Z" transform="translate(-213.351 -456.205)" fill="#575989"/><path d="M272.41,563l3.5,1.589a21.1,21.1,0,0,0,3.028.558c.8,0,4.144-.4,4.144-.4l3.025,1.2s-2.708,5.1-.956,7.011c0,0-5.5.556-7.567-.4a18.831,18.831,0,0,0-4.861-1.275Z" transform="translate(-214.982 -456.468)" opacity="0.05"/><path d="M239.489,325.263S216.4,320,220.531,319.287c2.642-.454,5.059-6.43,6.459-10.692.8-2.419,1.266-4.285,1.266-4.285s13.3,6.214,10.277,8.286c-1.162.8-1.291,2.846-1.008,5.07A39.755,39.755,0,0,0,239.489,325.263Z" transform="translate(-174.494 -256.489)" fill="#ffc4d0"/><path d="M286.072,759.58l-.016.4h0l-.045,1.03-.02.477-.143,3.4v.354h-1.412v-.011l-.238.011v-.263l-.315-.1c-4.539-1.389-9.09-3.037-13.769-3.488-.227-.021-.454-.041-.681-.057a29.06,29.06,0,0,0-4.355.032,66,66,0,0,0-12.977,2.749l-.268.075c-.227.068-.468.134-.7.2l.057-3.484v-1.1h1.5l12.362-.086,5.032-.036Z" transform="translate(-198.531 -608.432)" fill="#5f546f"/><path d="M234.578,755.71l-.161,1.112h0l-.093.656-.066.472h0l-.454,3.177-.268.075c-.227.068-.468.134-.7.2v.152h-.5l-.983.281H227.49l.048-.359.479-3.631h0l.064-.474.127-.946,6.128-.681Z" transform="translate(-180.257 -605.441)" opacity="0.1"/><path d="M233.512,755.71v.027l-.157,1.087-.093.649-.066.479-.49,3.27c-.227.068-.468.134-.7.2v.152h-.5l-.983.281-.227.064h0l-3.872-.064.529-4,.057-.5.05-.4h0l.07-.547Z" transform="translate(-179.43 -605.441)" fill="#5f546f"/><path d="M383.292,667.488l-.016.887-.007.477v0l-.057,3.368v.043l-4.855.193-.887.036-.531.02-.241.009-.009-.261,0-.1-.116-3.422v0l-.016-.479-.036-1.094.241.011,1.577.073.238.014Z" transform="translate(-291.051 -515.705)" opacity="0.1"/><path d="M384.35,667.488l-.014.892-.009.477-.084,3.37-.011.361-5.059-.048-.756,0h0l-.654-.009v-.009l-.009-.181,0-.163-.116-3.425-.014-.479-.036-1.087v-.011l1.816.084Z" transform="translate(-291.871 -515.705)" fill="#5f546f"/><path d="M233.512,755.71v.027l-.157,1.087-.093.649-.066.479-.49,3.27c-.227.068-.468.134-.7.2v.152h-.5l-.983.281-.227.064h0l-3.872-.064.529-4,.057-.5.05-.4h0l.07-.547Z" transform="translate(-179.43 -605.441)" fill="#fff" opacity="0.1"/><path d="M384.35,667.488l-.014.892-.009.477-.084,3.37-.011.361-5.059-.048-.756,0h0l-.654-.009v-.009l-.009-.181,0-.163-.116-3.425-.014-.479-.036-1.087v-.011l1.816.084Z" transform="translate(-291.871 -515.705)" fill="#fff" opacity="0.1"/><path d="M262.223,312.573c-1.162.8-1.291,2.846-1.008,5.07a12.675,12.675,0,0,1-10.535-9.078c.8-2.419,1.266-4.285,1.266-4.285S265.251,310.5,262.223,312.573Z" transform="translate(-198.184 -256.466)" opacity="0.1"/><path d="M273.961,262.566a12.653,12.653,0,1,1-.533-3.649A12.653,12.653,0,0,1,273.961,262.566Z" transform="translate(-196.618 -214.425)" fill="#ffc4d0"/><path d="M273.343,258.938a13.361,13.361,0,0,0-3.055-.613.994.994,0,0,0-.681.17c-.3.252-.254.708-.288,1.1a2.238,2.238,0,0,1-1.135,1.748c-.812.454-1.872.372-2.578.971-.9.765-.747,2.174-.438,3.311a4.313,4.313,0,0,1,.227,1.38,1.993,1.993,0,0,1-3.559,1.117c-.64-.815-.554-1.959-.724-2.978a5.6,5.6,0,0,0-1.571-3.046,3.025,3.025,0,0,0-1.38-.847,1.589,1.589,0,0,0-1.518.393c-.506.556-.418,1.4-.483,2.145a4.789,4.789,0,0,1-1.975,3.45,14.9,14.9,0,0,1-3.611,1.487,2.2,2.2,0,0,0-.349.177,12.669,12.669,0,1,1,23.118-9.961Z" transform="translate(-196.532 -214.446)" opacity="0.1"/><path d="M237.566,256.725a15.009,15.009,0,0,0,3.613-1.487,4.8,4.8,0,0,0,1.975-3.452,3.475,3.475,0,0,1,.49-2.145,1.589,1.589,0,0,1,1.516-.39,3,3,0,0,1,1.387.847,5.619,5.619,0,0,1,1.575,3.043c.17,1.021.084,2.165.724,2.98A1.995,1.995,0,0,0,252.4,255a4.365,4.365,0,0,0-.227-1.378c-.309-1.135-.454-2.546.438-3.311.7-.6,1.766-.527,2.578-.971a2.249,2.249,0,0,0,1.135-1.75c.034-.388-.011-.844.286-1.094a1.015,1.015,0,0,1,.681-.173c1.714.016,3.339.962,5.05.867a1.073,1.073,0,0,0,.6-.17,1.226,1.226,0,0,0,.347-.529,4.079,4.079,0,0,0,.313-3.311c-.64-1.321-2.5-1.838-2.869-3.257-.182-.681-.016-1.536-.558-1.99a2.308,2.308,0,0,0-.826-.347,12.919,12.919,0,0,1-3.134-1.977,3.684,3.684,0,0,0-3.491-.681c-.227.1-.411.227-.624.338a5.619,5.619,0,0,1-3.309.052,3.442,3.442,0,0,0-3.148.681,6.678,6.678,0,0,1-.785.985c-.613.47-1.482.243-2.238.091s-1.743-.086-2.043.626a5.611,5.611,0,0,0-.161.681,1.987,1.987,0,0,1-1.362,1.23,13.816,13.816,0,0,1-1.875.34,7.05,7.05,0,0,0-2.814,1.187c-.588.42-1.16,1.073-1.005,1.779.054.247.193.467.245.715.157.726-.454,1.362-.944,1.92s-.908,1.43-.415,1.988a3.749,3.749,0,0,0,.726.5,2.793,2.793,0,0,1,.84,2.2,18.545,18.545,0,0,1-.188,3.631c-.157,1.028-.89,3.985.468,4.6C234.886,258.836,236.751,257.02,237.566,256.725Z" transform="translate(-183.765 -202.687)" fill="#ae757a"/><path d="M285.6,577.05s-2.95.159-2.708,1.276S285.6,577.05,285.6,577.05Z" transform="translate(-223.074 -467.329)" fill="none"/><path d="M217.164,662.782h0a.124.124,0,0,1-.034.018c-3.232,1.389-6.355,3.161-9.575,4.55-.286.123-.572.243-.862.361a25.3,25.3,0,0,1-6.259,1.739,23.377,23.377,0,0,1-6.673-.168,5.906,5.906,0,0,1,.651-2.637h0a10.056,10.056,0,0,1,2.086-1.72,3.955,3.955,0,0,0,1.232-1.21h0a2.231,2.231,0,0,0,.1-2.147,3.92,3.92,0,0,0-.227-.415,3.383,3.383,0,0,0-.481-.6H158.017s-9.239-.064-13.077-.079h-1.262c-2.31,0-7.73-.876-8.048-1.752s-4.221-2.869-5.656-3.268c-.717-.2-1.875-2.254-2.848-4.255-.157-.318-.306-.633-.454-.942-.073-.152-.143-.3-.209-.454v-.016c-.286-.622-.533-1.187-.719-1.623l-.1-.227c-.018-.043-.036-.084-.05-.122a1.346,1.346,0,0,0-.059-.134h0l-.052-.127c-.082-.193-.127-.3-.127-.3l35.609-13.617,2.823.717c.138.036.279.073.427.107l3.615.926c1.707.44,3.488.908,5.032,1.307,2.131.563,3.8,1.017,4.2,1.167.824.309,4.085,1.048,6.273,1.534h0c1.2.268,2.086.454,2.086.454s2.814.549,6.493,1.3l.715.145.953.193c.191.036.384.077.576.118h0c.654.132,1.319.268,1.99.408l1.443.3c1.543.32,3.073.645,4.489.956l1.1.241.424.093.42.093c1.63.368,2.989.694,3.858.937a5.979,5.979,0,0,1,.876.322,12.879,12.879,0,0,1,4.739,4.369,24.456,24.456,0,0,1,2.108,3.581C218.1,655.883,217.836,660.813,217.164,662.782Z" transform="translate(-101.306 -511.068)" fill="#aea4b2"/><path d="M238.831,675s-1.514,6.693-6.214,9.078S238.831,675,238.831,675Z" transform="translate(-183.311 -543.048)" opacity="0.1"/><path d="M293.055,693.23s-5.1,2.95-4.38,5.1Z" transform="translate(-227.502 -557.141)" opacity="0.1"/><path d="M495.289,730.44s-1.434,6.055-4.539,6.128Z" transform="translate(-383.768 -585.906)" opacity="0.1"/><path d="M254.278,663.414l-.02,1.369-5-.079-1.7-.03-32-.531-1.13-.018-5.111-.086.188-1.421,6.373-.717-.159,1.114,33.619-.236-.018.4Z" transform="translate(-161.798 -511.631)" opacity="0.1"/><path d="M261.453,752.446l-48.215-.8a2.292,2.292,0,0,1-2.251-2.235l-.027-1.069h52.822v1.816a2.292,2.292,0,0,1-2.329,2.29Z" transform="translate(-167.478 -599.744)" fill="#ccccd8"/><path d="M160.831,636.86a17.666,17.666,0,0,0-2.71,2.628c-.876,1.194-5.663,3.336-5.663,3.336-6.064,6.323-20.226,7.943-25.394,8.329-.157-.318-.306-.633-.454-.942-.76-1.627-1.321-3-1.321-3L160.9,633.59l2.821.717a5.749,5.749,0,0,0,.524.8.626.626,0,0,1,.141.268C164.662,636.441,160.831,636.86,160.831,636.86Z" transform="translate(-101.252 -511.037)" opacity="0.1"/><path d="M148.474,414.5c.266,1.074-3.565,1.487-3.565,1.487a17.548,17.548,0,0,0-2.71,2.628c-.876,1.2-5.651,3.345-5.651,3.345-6.148,6.409-20.626,7.984-25.605,8.343-1.085.079-1.72.1-1.72.1s-1.362-3.345-1.832-3.266-2.39-5.42-2.39-5.42.8-14.339.4-16.014.159-13.463.082-14.577,1.434-10.667,2.787-13.862,6.051-9.789,6.051-9.789l8.613-8.608s5.815-4.861,7.408-5.259,2.07-4.062,2.07-4.062c3.824-1.589,8.366,1.752,8.366,1.752,3.983-.079,3.584.638,3.584.638l2.313.479.059.642,2.878,31.213-3.4,8.624-1.625,4.128a6.509,6.509,0,0,1-.159,4.221c-.876,2.231.635,4.859.635,4.859s.955,1.995-.318,3.177,2.152,1.589,2.152,1.589a8.91,8.91,0,0,0,1.434,3.348A.681.681,0,0,1,148.474,414.5Z" transform="translate(-85.567 -291.123)" fill="#575989"/><path d="M220.722,597.06s-1.589,3.028,1.273,3.5,10.277-.318,11.232-.318S220.722,597.06,220.722,597.06Z" transform="translate(-174.685 -482.797)" opacity="0.1"/><path d="M220.81,552.48c.4.717,9,7.966,11.949,9.242Z" transform="translate(-175.093 -448.335)" opacity="0.1"/><path d="M247.84,530s4.312,7.716,5.735,8.924.238-4.312.238-4.312Z" transform="translate(-195.988 -430.957)" opacity="0.1"/><path d="M194.49,433.14s10.912,7.09,10.44,12.108S194.49,433.14,194.49,433.14Z" transform="translate(-154.746 -356.08)" opacity="0.1"/><path d="M137.236,533.88s-2.787,22.067,19.359,21.668C156.6,555.548,138.512,548.857,137.236,533.88Z" transform="translate(-110.399 -433.957)" opacity="0.1"/><path d="M473.1,666.6c-3.189-.082-12.188-3.348-12.188-3.348l.052-.247L462.422,656l1.816.061c1.775.059,4.4.159,5.747.259C472.142,656.483,476.284,666.681,473.1,666.6Z" transform="translate(-360.701 -528.361)" fill="#ffc4d0"/><path d="M248.251,366.384l2.887,31.213-3.4,8.624c-2.651-3.876-5.647-8.243-6.484-9.414-1.589-2.231-4.859-13.143-4.859-13.143s-.955-9.641,5.5-14.739C244.688,366.732,246.778,366.232,248.251,366.384Z" transform="translate(-187.098 -304.456)" opacity="0.1"/><path d="M429.878,668.987a8.068,8.068,0,0,1-2.385,2.95s-4.162-2.41-8.883-5.318C422.141,667.339,426.472,668.229,429.878,668.987Z" transform="translate(-328.001 -536.57)" opacity="0.1"/><path d="M461.554,663.263l-.424-.247L462.592,656l1.816.061C465.372,660.584,461.554,663.263,461.554,663.263Z" transform="translate(-360.871 -528.361)" opacity="0.1"/><path d="M254.266,365.777s-2.708-4.062-9.158,1.037-5.5,14.739-5.5,14.739,3.266,10.912,4.859,13.143,10.992,16.019,10.992,16.019,9.877,11.232,16.33,15.773,18,11.234,18,11.234,3.983-2.789,2.789-7.49a8.064,8.064,0,0,1-3.345-1.752c-1.114-1.2-2.472-2.628-2.472-2.628s-1.911-.8-1.911-1.673-3.5-3.745-3.5-3.745-.241-1.2-1.117-1.434-2.152-3.177-2.152-3.177-2.95-3.425-3.025-4.539-1.362-1.194-1.362-1.194a14.3,14.3,0,0,1-1.117-2.789c0-.558-1.673-1.673-1.673-1.673l-2.628-2.95s.717-2.07-1.832-3.663-2.869-6.128-2.869-6.128l-2.469-5.338a1.4,1.4,0,0,0,.638-1.673,5.609,5.609,0,0,0-1.117-2.072s.958-.556.159-1.832-.955-4.3-.955-4.3l-1.911-5.338S257.531,367.211,254.266,365.777Z" transform="translate(-189.588 -302.82)" fill="#575989"/><path d="M333.84,524.559s8.284-2.151,5.815-.4S333.84,524.559,333.84,524.559Z" transform="translate(-262.47 -425.911)" opacity="0.1"/><path d="M328.92,566.515s6.294-1.114,4.859.32S328.92,566.515,328.92,566.515Z" transform="translate(-258.667 -458.866)" opacity="0.1"/><path d="M274.16,403.65s8.445,2.231,10.44,6.931Z" transform="translate(-216.335 -333.283)" opacity="0.1"/><g transform="translate(48.258 39.378)" opacity="0.1"><path d="M233.712,288.217a2.788,2.788,0,0,0-.84-2.2,4.687,4.687,0,0,1-.726-.5l-.027-.036a1.089,1.089,0,0,0,.107,1.151,3.75,3.75,0,0,0,.726.5,2.181,2.181,0,0,1,.769,1.489C233.717,288.485,233.717,288.351,233.712,288.217Z" transform="translate(-232.007 -281.311)"/><path d="M237.8,267.807a1.716,1.716,0,0,0,.1.293,1.208,1.208,0,0,0,.066-.694,1.552,1.552,0,0,0-.1-.3A1.2,1.2,0,0,0,237.8,267.807Z" transform="translate(-236.466 -267.11)"/><path d="M331.227,272.93a6.629,6.629,0,0,1-.531,1.834,1.228,1.228,0,0,1-.345.529,1.089,1.089,0,0,1-.6.168c-1.711.1-3.336-.849-5.05-.867a1.01,1.01,0,0,0-.681.172c-.3.252-.252.708-.286,1.094a2.247,2.247,0,0,1-1.135,1.75c-.812.454-1.875.372-2.578.971a2.759,2.759,0,0,0-.592,2.635,2.07,2.07,0,0,1,.681-1.518c.7-.6,1.766-.527,2.578-.971a2.249,2.249,0,0,0,1.135-1.75c.034-.388-.011-.844.286-1.094a1,1,0,0,1,.681-.172c1.714.016,3.339.962,5.05.867a1.073,1.073,0,0,0,.6-.17,1.225,1.225,0,0,0,.347-.529A4.655,4.655,0,0,0,331.227,272.93Z" transform="translate(-299.526 -271.609)"/><path d="M255.2,300.476a2.043,2.043,0,0,1-2.165-.681c-.64-.815-.554-1.956-.724-2.98a5.642,5.642,0,0,0-1.575-3.043,3.032,3.032,0,0,0-1.382-.847,1.589,1.589,0,0,0-1.516.393c-.508.549-.427,1.4-.49,2.142a4.8,4.8,0,0,1-1.975,3.452,15.015,15.015,0,0,1-3.613,1.489c-.815.3-2.68,2.111-3.479,1.75a1.372,1.372,0,0,1-.722-1.035c-.034.949.12,1.845.8,2.152.8.359,2.664-1.45,3.479-1.752a14.924,14.924,0,0,0,3.613-1.489,4.791,4.791,0,0,0,1.975-3.45,3.475,3.475,0,0,1,.49-2.145,1.589,1.589,0,0,1,1.516-.39,3.016,3.016,0,0,1,1.382.844,5.633,5.633,0,0,1,1.575,3.046c.17,1.021.084,2.163.724,2.978a1.993,1.993,0,0,0,3.559-1.117,3.08,3.08,0,0,0-.107-.908A2.043,2.043,0,0,1,255.2,300.476Z" transform="translate(-236.292 -287.024)"/></g><path d="M50.9,530.613a2.091,2.091,0,0,0-.275.531c-.018.045-.036.1-.052.15a.422.422,0,0,0-.1-.034,1.364,1.364,0,0,0-.454-.039v-.182c.018-.651-.059-1.559-.681-1.176s-.17.987.213,1.387l.1.1c-.352.252-.418.833-.477,1.439a3.43,3.43,0,0,1-.908,1.65l-.1.107a1.246,1.246,0,0,0-1-.256c-.014-.055-.03-.109-.045-.168-.277-1-.853-2.735-1.589-3.114l.1-.123c.313-.409.663-1.014.145-1.169s-.565.527-.536,1.035a.787.787,0,0,0,.014.182.763.763,0,0,0-.538.266l-.079-.1c-.42-.5-1.192-1.282-1.425-.681-.227.554.454,1.273.94,1.691l.03.025c-.322,1.3,1.078,2.363,1.832,2.826l.1.059a11.372,11.372,0,0,0-1.682,3.52l2.912.52s1.929-1.664,1.682-3.227h.02a2.942,2.942,0,0,0,2.065-3.663l.034-.014a2.149,2.149,0,0,0,.892-.681A.716.716,0,0,0,50.9,530.613Z" transform="translate(-37.771 -430.719)" fill="#6c63ff"/><path d="M50.9,530.613a2.091,2.091,0,0,0-.275.531c-.018.045-.036.1-.052.15a.422.422,0,0,0-.1-.034,1.364,1.364,0,0,0-.454-.039v-.182c.018-.651-.059-1.559-.681-1.176s-.17.987.213,1.387l.1.1c-.352.252-.418.833-.477,1.439a3.43,3.43,0,0,1-.908,1.65l-.1.107a1.246,1.246,0,0,0-1-.256c-.014-.055-.03-.109-.045-.168-.277-1-.853-2.735-1.589-3.114l.1-.123c.313-.409.663-1.014.145-1.169s-.565.527-.536,1.035a.787.787,0,0,0,.014.182.763.763,0,0,0-.538.266l-.079-.1c-.42-.5-1.192-1.282-1.425-.681-.227.554.454,1.273.94,1.691l.03.025c-.322,1.3,1.078,2.363,1.832,2.826l.1.059a11.372,11.372,0,0,0-1.682,3.52l2.912.52s1.929-1.664,1.682-3.227h.02a2.942,2.942,0,0,0,2.065-3.663l.034-.014a2.149,2.149,0,0,0,.892-.681A.716.716,0,0,0,50.9,530.613Z" transform="translate(-37.771 -430.719)" opacity="0.1"/><path d="M45.727,533.182l-.338.994a5.049,5.049,0,0,1-.429-.343c-.477-.418-1.155-1.135-.94-1.691.227-.595,1.005.191,1.425.681C45.615,533.028,45.727,533.182,45.727,533.182Z" transform="translate(-38.394 -432.449)" fill="#6c63ff"/><path d="M53.493,530.885a4.71,4.71,0,0,1-.331.39,5.015,5.015,0,0,1-.061-.524c-.027-.508.025-1.187.536-1.035S53.8,530.476,53.493,530.885Z" transform="translate(-45.441 -430.721)" fill="#6c63ff"/><path d="M70.857,531.33a4.248,4.248,0,0,1-.041.59,3.993,3.993,0,0,1-.424-.379c-.386-.4-.81-1.017-.213-1.387S70.875,530.679,70.857,531.33Z" transform="translate(-58.418 -431.01)" fill="#6c63ff"/><path d="M77.589,533.641a2.176,2.176,0,0,1-.892.681,2.546,2.546,0,0,1-.3.109l-.4-.567a3.856,3.856,0,0,1,.166-.547,2.089,2.089,0,0,1,.288-.531A.711.711,0,0,1,77.589,533.641Z" transform="translate(-63.148 -432.891)" fill="#6c63ff"/><path d="M48.786,535.9c.17.2.281.352.281.352l-.338.994a5.051,5.051,0,0,1-.429-.343,1.959,1.959,0,0,1,.386-.876C48.718,535.982,48.754,535.939,48.786,535.9Z" transform="translate(-41.735 -435.518)" opacity="0.1"/><path d="M53.513,534.484a4.7,4.7,0,0,1-.331.39,5.01,5.01,0,0,1-.061-.524A.681.681,0,0,1,53.513,534.484Z" transform="translate(-45.461 -434.32)" opacity="0.1"/><path d="M51.394,539.051l-.847.372a5.042,5.042,0,0,1-.454-.254c-.887-.547-2.676-1.925-1.477-3.547s2.2,1.289,2.592,2.724C51.33,538.758,51.394,539.051,51.394,539.051Z" transform="translate(-41.67 -434.933)" fill="#6c63ff"/><path d="M72.13,535.841a.681.681,0,0,1,.465-.211,4.249,4.249,0,0,1-.041.59A4,4,0,0,1,72.13,535.841Z" transform="translate(-60.157 -435.309)" opacity="0.1"/><path d="M76.706,537.091a2.546,2.546,0,0,1-.3.109L76,536.637a3.855,3.855,0,0,1,.166-.547A1.427,1.427,0,0,1,76.706,537.091Z" transform="translate(-63.148 -435.665)" opacity="0.1"/><path d="M64.053,541.008l-.143.025c-2.837.431-.935-1.1-.935-1.1s.129-.118.3-.311a3.277,3.277,0,0,0,.908-1.65c.091-.919.193-1.782,1.278-1.527S66.738,540.47,64.053,541.008Z" transform="translate(-52.597 -435.906)" fill="#6c63ff"/><rect width="5.42" height="1.425" transform="translate(5.984 112.166)" fill="#d4dfec"/><rect width="7.083" height="4.975" transform="translate(5.122 107.533)" fill="#d4dfec"/><rect width="5.42" height="1.425" transform="translate(5.984 112.166)" opacity="0.1"/><rect width="7.083" height="4.975" transform="translate(5.122 107.533)" opacity="0.1"/><rect width="5.42" height="1.425" transform="translate(6.34 112.166)" fill="#d4dfec"/><path d="M57.607,549.2c.12.424.184.717.184.717l-.847.372a5.041,5.041,0,0,1-.454-.254,2.181,2.181,0,0,1,1.117-.835Z" transform="translate(-48.066 -445.799)" opacity="0.1"/><path d="M64.053,551.984l-.143.025c-2.837.431-.935-1.1-.935-1.1s.129-.118.3-.311A1.879,1.879,0,0,1,64.053,551.984Z" transform="translate(-52.597 -446.882)" opacity="0.1"/><path d="M49.53,554.123s1.589-5.674,3.815-3.933-.908,4.453-.908,4.453Z" transform="translate(-42.686 -446.308)" fill="#6c63ff"/><circle cx="0.179" cy="0.179" r="0.179" transform="translate(7.466 101.401)" opacity="0.1"/><circle cx="0.179" cy="0.179" r="0.179" transform="translate(7.452 102.232)" opacity="0.1"/><circle cx="0.179" cy="0.179" r="0.179" transform="translate(12.618 101.564)" opacity="0.1"/><circle cx="0.179" cy="0.179" r="0.179" transform="translate(8.462 105.824)" opacity="0.1"/><circle cx="0.179" cy="0.179" r="0.179" transform="translate(12.248 102.944)" opacity="0.1"/><circle cx="0.179" cy="0.179" r="0.179" transform="translate(10.407 104.785)" opacity="0.1"/><circle cx="0.179" cy="0.179" r="0.179" transform="translate(8.074 101.757)" opacity="0.1"/><circle cx="0.179" cy="0.179" r="0.179" transform="translate(12.128 102.098)" opacity="0.1"/><circle cx="0.179" cy="0.179" r="0.179" transform="translate(11.519 103.478)" opacity="0.1"/><circle cx="0.179" cy="0.179" r="0.179" transform="translate(9.649 105.69)" opacity="0.1"/><circle cx="0.179" cy="0.179" r="0.179" transform="translate(9.263 104.814)" opacity="0.1"/><circle cx="0.179" cy="0.179" r="0.179" transform="translate(8.342 102.84)" opacity="0.1"/><rect width="5.42" height="0.52" transform="translate(6.34 112.166)" opacity="0.1"/><rect width="7.083" height="4.975" transform="translate(5.478 107.533)" fill="#d4dfec"/><circle cx="0.179" cy="0.179" r="0.179" transform="translate(9.888 106.492)" opacity="0.1"/><circle cx="0.179" cy="0.179" r="0.179" transform="translate(8.819 106.716)" opacity="0.1"/><path d="M985.84,438.928s1.779-5.313,6.464-3.359c0,0-2.177,4.748-6.228,4.208Z" transform="translate(-766.494 -357.624)" fill="#6c63ff"/><path d="M982.61,416.2s1.975-5.329,6.652-2.973c0,0-2.723,4.9-6.425,3.783Z" transform="translate(-763.997 -340.218)" fill="#6c63ff"/><path d="M981.68,391.3s2.64-5.22,6.425-4.494c0,0-2.724,5.529-6.275,5.644Z" transform="translate(-763.278 -320.207)" fill="#6c63ff"/><path d="M982.018,367.519s2.971-6.323,5.992-5.336c0,0-2.129,4.852-6.039,6.382Z" transform="translate(-763.503 -301.147)" fill="#6c63ff"/><path d="M983.912,344.425s2.676-5.236,5.771-4.993c0,0-2.079,5.238-5.924,6.432Z" transform="translate(-764.886 -283.634)" fill="#6c63ff"/><path d="M986.27,321.517s3.132-5.175,5.175-4.993c0,0-1.827,5.288-5.111,5.926Z" transform="translate(-766.827 -265.927)" fill="#6c63ff"/><path d="M988.39,296.911s2.324-5.783,4.421-5.971c0,0-1.028,4.866-4.287,6.452Z" transform="translate(-768.466 -246.153)" fill="#6c63ff"/><path d="M989.28,271.972s2.206-4.564,3.958-5.032c0,0-1.189,5.585-3.758,6.259Z" transform="translate(-769.154 -227.6)" fill="#6c63ff"/><path d="M989.265,241.657l.994-8.477s2.077,6.831-1,10Z" transform="translate(-769.138 -201.502)" fill="#6c63ff"/><path d="M978.624,208.438s-1.257-6.493-1.734-6.918c0,0,3.706,4.655,2.5,9.73Z" transform="translate(-759.576 -177.028)" fill="#6c63ff"/><path d="M964.614,468.406q-1.668,1.171-3.282,2.422c-.211.161-.422.327-.631.5a7.367,7.367,0,0,1-2-.626C960.811,467.745,963.237,467.943,964.614,468.406Z" transform="translate(-745.514 -383.135)" fill="#6c63ff"/><path d="M961.456,444.464s-3.418-4.439-7.206-1.062c0,0,3.609,3.777,7.263,1.94Z" transform="translate(-742.074 -363.033)" fill="#6c63ff"/><path d="M959.086,420.032s-3.429-4.539-7.226-.924c0,0,4.028,3.9,7.244,1.768Z" transform="translate(-740.226 -344.152)" fill="#6c63ff"/><path d="M962.565,389.847s-2.356-5.361-6.176-4.832c0,0,2.426,5.674,5.964,5.974Z" transform="translate(-743.728 -318.849)" fill="#6c63ff"/><path d="M964.536,365.362s-2.186-6.634-5.306-6.019c0,0,1.53,5.075,5.22,7.065Z" transform="translate(-745.924 -299.001)" fill="#6c63ff"/><path d="M966.6,342.443s-2.474-5.338-5.576-5.22c0,0,1.875,5.315,5.674,6.657Z" transform="translate(-747.307 -281.931)" fill="#6c63ff"/><path d="M975.317,317.263s-1.657-5.815-3.677-6.173c0,0,.37,5.581,3.37,7.061Z" transform="translate(-755.517 -261.73)" fill="#6c63ff"/><path d="M975.266,295.487s-1.927-5.928-4.006-6.257c0,0,.7,4.923,3.838,6.727Z" transform="translate(-755.223 -244.831)" fill="#6c63ff"/><path d="M980.75,271.651s-1.362-4.873-3.01-5.651c0,0,.186,5.708,2.6,6.825Z" transform="translate(-760.233 -226.874)" fill="#6c63ff"/><path d="M976.21,243.232l-3.55-7.762s.12,7.138,4.019,9.208Z" transform="translate(-756.306 -203.273)" fill="#6c63ff"/><path d="M962.726,216.2s-4.812-4.539-4.916-5.168c0,0,1.947,5.622,6.881,7.319Z" transform="translate(-744.826 -184.379)" fill="#6c63ff"/><path d="M955.85,201.972s-5.261-6.888-6.849-7.122a10.19,10.19,0,0,1,7.036,6.827Z" transform="translate(-738.015 -171.872)" fill="#6c63ff"/><path d="M981.034,240.047h-.227c.227-9.267-.638-14.9-2.447-15.853l.107-.2C980.384,225,981.272,230.556,981.034,240.047Z" transform="translate(-760.712 -194.398)" fill="#444053"/><path d="M981.825,314.388l-.345-.023c.059-.86.136-1.738.227-2.608.828-7.571,1.384-14.555,1.518-19.834l.227-.213c-.132,5.288-.579,12.5-1.409,20.086C981.957,312.656,981.879,313.532,981.825,314.388Z" transform="translate(-763.124 -246.749)" fill="#444053"/><path d="M982.507,403.736q.243,1.2.524,2.342l-.454.318q-.286-1.192-.515-2.417c-.089-.472-.168-.949-.245-1.425-.211-1.325-.372-2.674-.49-4.033-.023-.247-.043-.5-.059-.747-.025-.29-.043-.579-.064-.871v-.136c-.059-1.033-.1-2.072-.1-3.109,0-.719,0-1.441.011-2.161.02-.772.05-1.541.093-2.308a1.528,1.528,0,0,1,.021-.3c.02-.1,0-.211.018-.32V388.5l.084.057.075.048.17.118v.161q-.107,1.634-.12,3.2a1.727,1.727,0,0,0,0,.213v1.512q.023,1.5.13,2.95c0,.143.02.288.029.429a.707.707,0,0,0,.011.154c.014.141.025.281.039.424l.048.527v.07q.213,2.179.585,4.217Q982.391,403.171,982.507,403.736Z" transform="translate(-762.83 -321.571)" fill="#444053"/><path d="M1066.758,406.325l-.515.347c-1.475.992-2.975,1.95-4.485,2.887v.454a.6.6,0,0,1-.091-.032l-.025-.359-.023-.384h0v-.129s.061-.1.17-.263C1062.323,408.063,1064.155,405.789,1066.758,406.325Z" transform="translate(-825.076 -335.288)" fill="#6c63ff"/><path d="M1063.23,386.131s3.028-4.807,7.122-1.539c0,0-3.681,4.235-7.067,2.381Z" transform="translate(-826.32 -317.67)" fill="#6c63ff"/><path d="M1066.441,362.509s3.658-4.569,7.213-3.073c0,0-3.806,4.85-7.3,4.233Z" transform="translate(-828.732 -298.871)" fill="#6c63ff"/><path d="M1070.623,339.2s4.208-5.576,6.963-3.988c0,0-3.084,4.312-7.226,5Z" transform="translate(-831.832 -280.156)" fill="#6c63ff"/><path d="M1077.257,317.2s3.7-4.575,6.675-3.693c0,0-3.114,4.7-7.122,5.075Z" transform="translate(-836.818 -263.509)" fill="#6c63ff"/><path d="M1084.852,294.913s4.128-4.417,6.089-3.815c0,0-2.875,4.8-6.221,4.746Z" transform="translate(-842.933 -246.232)" fill="#6c63ff"/><path d="M1091.75,270.9s3.461-5.181,5.556-4.927c0,0-2.009,4.539-5.522,5.431Z" transform="translate(-848.367 -226.843)" fill="#6c63ff"/><path d="M1098.219,246.35s3.1-4,4.907-4.11c0,0-2.31,5.22-4.966,5.354Z" transform="translate(-853.323 -208.506)" fill="#6c63ff"/><path d="M1101.181,214.611l2.724-8.091s.629,7.113-3.034,9.58Z" transform="translate(-855.418 -180.893)" fill="#6c63ff"/><path d="M1104.592,179.229s.107-6.616-.272-7.129c0,0,2.667,5.32.44,10.036Z" transform="translate(-858.085 -154.285)" fill="#6c63ff"/><path d="M1029.33,434.832a6.261,6.261,0,0,1,2.853-1.6l-2.767,1.668Z" transform="translate(-800.114 -356.15)" fill="#6c63ff"/><path d="M1038.293,408.444h0l-.068.44-.061.427c-.075.02-.15.039-.227.052a4.372,4.372,0,0,1-.642.091c-3.486.261-5.844-3.536-5.844-3.536,3.511-2.015,5.769.788,6.539,2C1038.179,408.219,1038.277,408.419,1038.293,408.444Z" transform="translate(-801.753 -334.489)" fill="#6c63ff"/><path d="M1040.941,384.165s-2.424-5.138-6.881-2.39c0,0,3.139,4.648,6.725,3.218Z" transform="translate(-803.771 -315.748)" fill="#6c63ff"/><path d="M1051.51,353.568s-1.2-5.731-5.05-6c0,0,1.21,6.044,4.61,7.072Z" transform="translate(-813.356 -289.931)" fill="#6c63ff"/><path d="M1058.534,329.991s-.776-6.943-3.953-6.981c0,0,.454,5.279,3.661,7.989Z" transform="translate(-819.633 -270.945)" fill="#6c63ff"/><path d="M1065.235,307.921s-1.323-5.731-4.385-6.241c0,0,.74,5.585,4.181,7.68Z" transform="translate(-824.48 -254.456)" fill="#6c63ff"/><path d="M1078.585,285.027s-.427-6.033-2.329-6.8c0,0-.785,5.538,1.845,7.6Z" transform="translate(-836.305 -236.328)" fill="#6c63ff"/><path d="M1083.347,263.707s-.663-6.2-2.63-6.947c0,0-.331,4.959,2.372,7.374Z" transform="translate(-839.828 -219.731)" fill="#6c63ff"/><path d="M1092.872,241.508s-.34-5.05-1.782-6.148c0,0-.994,5.624,1.135,7.213Z" transform="translate(-847.678 -203.188)" fill="#6c63ff"/><path d="M1094.158,212.757l-1.875-8.327s-1.362,7.011,2.043,9.841Z" transform="translate(-848.572 -179.277)" fill="#6c63ff"/><path d="M1087.434,183.531s-3.772-5.433-3.745-6.071c0,0,.749,5.9,5.22,8.579Z" transform="translate(-842.136 -158.428)" fill="#6c63ff"/><path d="M1083.644,168.2s-3.738-7.823-5.234-8.377a10.225,10.225,0,0,1,5.488,8.132Z" transform="translate(-838.055 -144.792)" fill="#6c63ff"/><path d="M1097.327,210.658l-.227-.052c2.133-9.019,2.442-14.709.867-16.019l.147-.177C1099.787,195.808,1099.515,201.425,1097.327,210.658Z" transform="translate(-852.503 -171.531)" fill="#444053"/><path d="M1070.024,284.967l-.334-.093c.227-.831.493-1.673.765-2.5,2.37-7.24,4.351-13.958,5.567-19.1l.272-.159c-1.219,5.147-3.139,12.117-5.513,19.364C1070.512,283.306,1070.255,284.143,1070.024,284.967Z" transform="translate(-831.314 -224.647)" fill="#444053"/><path d="M1062.731,356.3c-.016.052-.03.1-.043.154q-.454,1.573-.783,3.109c-.016.073-.03.145-.048.227q-.15.681-.281,1.362a.483.483,0,0,1-.018.1q-.327,1.7-.536,3.341a1.012,1.012,0,0,1-.023.159h0c-.041.315-.077.631-.111.946v.07c-.159,1.448-.254,2.862-.3,4.242,0,.227,0,.474-.016.708v.454a.61.61,0,0,1-.091-.032l-.025-.359-.091.057-.061.427c-.075.021-.15.039-.227.052V371c0-.374.027-.751.045-1.135.066-1.339.184-2.694.347-4.053.063-.531.136-1.069.213-1.6h0q.227-1.6.558-3.2c.141-.708.293-1.407.454-2.108h0q.261-1.135.565-2.245c.025-.1.054-.2.079-.293h0c.032-.111.063-.227.091-.331l.014-.039.068.073.063.064Z" transform="translate(-823.885 -296.448)" fill="#444053"/></g></svg>