<svg xmlns="http://www.w3.org/2000/svg" width="23.618" height="23.615" viewBox="0 0 23.618 23.615">
  <path id="Icon_awesome-guitar" data-name="Icon awesome-guitar" d="M23.185,2.519,21.1.434a1.478,1.478,0,0,0-2.09,0L15.878,3.566a1.478,1.478,0,0,0,0,2.09l-2.5,2.5c-2.094-1.338-4.631-1.333-6.158.194a3.859,3.859,0,0,0-.946,1.564,2.365,2.365,0,0,1-1.97,1.61,4.683,4.683,0,0,0-2.925,1.329C-.752,14.974-.369,18.8,2.224,21.4s6.421,2.971,8.548.844A4.684,4.684,0,0,0,12.1,19.311a2.371,2.371,0,0,1,1.61-1.97,3.859,3.859,0,0,0,1.564-.946c1.527-1.527,1.527-4.064.194-6.158l2.5-2.5a1.478,1.478,0,0,0,2.09,0L23.19,4.6a1.477,1.477,0,0,0,0-2.085ZM9.6,16.238a2.214,2.214,0,1,1,2.214-2.214A2.215,2.215,0,0,1,9.6,16.238Z" transform="translate(0 -0.002)" fill="#57358e"/>
</svg>
