<svg xmlns="http://www.w3.org/2000/svg" width="20.211" height="20.211" viewBox="0 0 20.211 20.211">
  <path id="Icon_awesome-link" data-name="Icon awesome-link" d="M12.893,7.318a6,6,0,0,1,.014,8.471l-.014.015L10.24,18.457A6,6,0,0,1,1.755,9.971L3.219,8.506A.631.631,0,0,1,4.3,8.925a7.274,7.274,0,0,0,.383,2.081.635.635,0,0,1-.149.656l-.517.517a2.842,2.842,0,1,0,3.994,4.045l2.653-2.652a2.842,2.842,0,0,0,0-4.02,2.957,2.957,0,0,0-.408-.338.633.633,0,0,1-.274-.5,1.572,1.572,0,0,1,.462-1.177l.831-.831a.634.634,0,0,1,.813-.068,6.019,6.019,0,0,1,.81.679Zm5.563-5.564a6.007,6.007,0,0,0-8.486,0L7.318,4.407,7.3,4.422a6,6,0,0,0,.824,9.15.634.634,0,0,0,.813-.068l.831-.831a1.572,1.572,0,0,0,.462-1.177.633.633,0,0,0-.274-.5,2.957,2.957,0,0,1-.408-.338,2.842,2.842,0,0,1,0-4.02L12.2,3.988A2.842,2.842,0,1,1,16.2,8.033l-.517.517a.635.635,0,0,0-.149.656,7.274,7.274,0,0,1,.383,2.081.631.631,0,0,0,1.077.419l1.465-1.465a6.007,6.007,0,0,0,0-8.486Z" transform="translate(0 0)" fill="#57358e"/>
</svg>
