<svg xmlns="http://www.w3.org/2000/svg" width="18.685" height="18.685" viewBox="0 0 18.685 18.685">
  <path id="Icon_awesome-music" data-name="Icon awesome-music" d="M18.685,1.168A1.167,1.167,0,0,0,17.167.054L5.489,3.5a1.167,1.167,0,0,0-.817,1.113v9.54A5.048,5.048,0,0,0,3.5,14.013c-1.935,0-3.5,1.046-3.5,2.336s1.569,2.336,3.5,2.336,3.5-1.046,3.5-2.336V7.821l9.343-2.738v6.738a5.048,5.048,0,0,0-1.168-.143c-1.935,0-3.5,1.046-3.5,2.336s1.569,2.336,3.5,2.336,3.5-1.046,3.5-2.336V1.168Z" transform="translate(0 0.001)" fill="#57358e"/>
</svg>
