<svg xmlns="http://www.w3.org/2000/svg" width="74" height="75" viewBox="0 0 74 75"><g transform="translate(-266 -359)"><path d="M37,0A37,37,0,0,1,74,37v1A37,37,0,0,1,0,38V37A37,37,0,0,1,37,0Z" transform="translate(266 359)" fill="#57358e"/><path d="M13.339,4.7l1.554-1.554a1.674,1.674,0,0,1,2.374,0l13.612,13.6a1.674,1.674,0,0,1,0,2.374L17.267,32.731a1.674,1.674,0,0,1-2.374,0l-1.554-1.554a1.682,1.682,0,0,1,.028-2.4L21.8,20.737H1.68A1.676,1.676,0,0,1,0,19.056V16.816a1.676,1.676,0,0,1,1.68-1.68H21.8L13.367,7.1A1.67,1.67,0,0,1,13.339,4.7Z" transform="translate(287.556 378.616)" fill="#fff"/></g></svg>