<svg xmlns="http://www.w3.org/2000/svg" width="226.8" height="204.912" viewBox="0 0 226.8 204.912"><path d="M823.069,377.968a122.447,122.447,0,0,1-15.385,30.687c-.151.22-.3.435-.458.654l-20.409-6.253c.089-.211.185-.448.288-.706,6.154-15.228,43.175-108.04,38.784-127.2C826.3,276.724,839.883,328.743,823.069,377.968Z" transform="translate(-621.257 -221.514)" fill="#e6e6e6"/><path d="M834.191,591.421c-.245.191-.5.38-.752.563l-15.311-4.691c.18-.171.388-.373.629-.6,3.928-3.79,15.6-15.145,26.882-27.165,12.127-12.917,23.815-26.6,24.988-32.489C870.409,528.381,863.544,569.237,834.191,591.421Z" transform="translate(-643.826 -403.073)" fill="#e6e6e6"/><ellipse cx="28.199" cy="2.792" rx="28.199" ry="2.792" transform="translate(0 199.328)" fill="#e6e6e6"/><path d="M354.381,555.1h0a3.63,3.63,0,0,1-3.234-4.473l2.527-10.424H358.3v11.279a3.63,3.63,0,0,1-3.923,3.618Z" transform="translate(-307.153 -412.56)" fill="#a0616a"/><path d="M279.78,285.826a77.783,77.783,0,0,1-13.892,1.323,97.887,97.887,0,0,1-13.23-.882s.661-24.917,13.23-24.476C279.36,262.263,279.78,285.826,279.78,285.826Z" transform="translate(-236.237 -211.879)" fill="#2f2e41"/><circle cx="3.969" cy="3.969" r="3.969" transform="translate(25.683 46.604)" fill="#2f2e41"/><path d="M132.072,581.237l5.513.661,3.2-43-9.7,2.867Z" transform="translate(-94.482 -388.438)" fill="#a0616a"/><path d="M46.707,578.068l-5.4,2.315-3.418-42.668,9.7,2.867Z" transform="translate(-27.309 -387.584)" fill="#a0616a"/><circle cx="8.022" cy="8.022" r="8.022" transform="translate(21.539 55.238)" fill="#a0616a"/><path d="M292.52,356.05H279.51V336.737c3.29-2.16,2.129-6.013,0-10.235l11.577-.331c-1.735,5.192-1.13,9.079,3.749,10.584Z" transform="translate(-255.591 -258.289)" fill="#a0616a"/><path d="M255.168,437.806c-6.467-2.069-11.273.363-14.994,5.733l-4.19-16.317-6.174,13.451c-5.337-5.854-11.953-8.162-19.4-8.159.922-18.137,3.947-32.324,11.907-44.1.708-1.047.968-4.546,1.764-5.513L219.325,368a7.715,7.715,0,0,1,4.249-5.872l7.118-3.487,5.954,9.923,5.292-10.8,8.92,2.916a3.785,3.785,0,0,1,2.608,3.51L246.348,391.5C244.979,403.473,249.168,419.912,255.168,437.806Z" transform="translate(-205.781 -281.06)" fill="#2f2e41"/><path d="M352.661,415.366l-6.836-.882L342.3,389.126l.882-24.256,2.143.405a7.631,7.631,0,0,1,6.208,7.257Z" transform="translate(-300.848 -286.183)" fill="#2f2e41"/><path d="M202.766,554.484h0A3.63,3.63,0,0,0,207.2,551.2l.74-10.7-4.414-1.4-3.407,10.752a3.63,3.63,0,0,0,2.647,4.634Z" transform="translate(-198.244 -411.766)" fill="#a0616a"/><path d="M215.7,424l-5.292-1.323,7.218-41.3a7.011,7.011,0,0,1,4.689-5.444h0l1.764,17.64Z" transform="translate(-205.781 -294.153)" fill="#2f2e41"/><path d="M274.3,282.008h12.876l.467-2.6a4.659,4.659,0,0,0-4.646-5.482l-4.824.063a4.659,4.659,0,0,0-4.445,5.844Z" transform="translate(-251.31 -220.63)" fill="#2f2e41"/><path d="M244.309,775.219h0a4.263,4.263,0,0,1-4.116-3.154l-.381-1.414a2.8,2.8,0,0,1-.08-1.029l.724-6.7c1.381-1.712,3.39-2.125,6.247-.781l1.765,7.885a4.263,4.263,0,0,1-4.16,5.194Z" transform="translate(-226.908 -571.958)" fill="#2f2e41"/><path d="M329.6,775.219h0a4.263,4.263,0,0,1-4.116-3.155l-.381-1.414a2.8,2.8,0,0,1-.08-1.029l.724-6.7c1.381-1.713,3.39-2.125,6.247-.781l1.765,7.885a4.263,4.263,0,0,1-4.16,5.194Z" transform="translate(-288.388 -571.958)" fill="#2f2e41"/><circle cx="1.985" cy="1.985" r="1.985" transform="translate(28.329 95.115)" fill="#e6e6e6"/><circle cx="1.985" cy="1.985" r="1.985" transform="translate(28.329 103.494)" fill="#e6e6e6"/><circle cx="1.985" cy="1.985" r="1.985" transform="translate(28.329 111.874)" fill="#e6e6e6"/><path d="M620.858,131.328h-1.117V100.742a17.7,17.7,0,0,0-17.7-17.7h-64.8a17.7,17.7,0,0,0-17.7,17.7V268.536a17.7,17.7,0,0,0,17.7,17.7h64.8a17.7,17.7,0,0,0,17.7-17.7V153.1h1.117Z" transform="translate(-428.604 -83.041)" fill="#3f3d56"/><path d="M615.359,99.534H606.9a6.281,6.281,0,0,1-5.815,8.654H563.963a6.281,6.281,0,0,1-5.815-8.653h-7.9a13.22,13.22,0,0,0-13.22,13.22h0V280.3a13.22,13.22,0,0,0,13.22,13.22h65.11a13.22,13.22,0,0,0,13.22-13.22h0V112.754a13.22,13.22,0,0,0-13.22-13.22Z" transform="translate(-441.209 -94.929)" fill="#fff"/><circle cx="7.259" cy="7.259" r="7.259" transform="translate(134.447 169.126)" fill="#e6e6e6"/><g transform="translate(101.459 92.265)"><rect width="80.268" height="15.848" fill="#e6e6e6"/><path d="M563.358,432.059H640.2V419.634H563.358Z" transform="translate(-561.647 -417.922)" fill="#fff"/><path d="M575.231,424.559a4.734,4.734,0,1,1-4.734,4.734A4.734,4.734,0,0,1,575.231,424.559Z" transform="translate(-566.793 -421.472)" fill="#57358e"/><rect width="46.72" height="1.029" transform="translate(19.758 5.969)" fill="#e6e6e6"/><rect width="46.72" height="1.029" transform="translate(19.758 8.644)" fill="#e6e6e6"/></g><g transform="translate(101.459 114.881)"><rect width="80.268" height="15.848" fill="#e6e6e6"/><path d="M563.358,513.058H640.2V500.634H563.358Z" transform="translate(-561.647 -498.922)" fill="#fff"/><circle cx="4.734" cy="4.734" r="4.734" transform="translate(3.704 3.087)" fill="#57358e"/><rect width="46.72" height="1.029" transform="translate(19.758 5.969)" fill="#e6e6e6"/><rect width="46.72" height="1.029" transform="translate(19.758 8.644)" fill="#e6e6e6"/></g><g transform="translate(101.459 137.496)"><rect width="80.268" height="15.848" fill="#e6e6e6"/><path d="M563.358,594.058H640.2V581.634H563.358Z" transform="translate(-561.647 -579.922)" fill="#fff"/><circle cx="4.734" cy="4.734" r="4.734" transform="translate(3.704 3.087)" fill="#57358e"/><rect width="46.72" height="1.029" transform="translate(19.758 5.969)" fill="#e6e6e6"/><rect width="46.72" height="1.029" transform="translate(19.758 8.644)" fill="#e6e6e6"/></g><path d="M22.336,0A22.336,22.336,0,1,1,0,22.336,22.336,22.336,0,0,1,22.336,0Z" transform="translate(119.257 31.806)" fill="#57358e"/><path d="M679.125,243.388H661.231a2.986,2.986,0,0,0-2.982,2.982v12.782a2.986,2.986,0,0,0,2.982,2.982h17.894a2.986,2.986,0,0,0,2.982-2.982V246.37A2.986,2.986,0,0,0,679.125,243.388Zm0,1.7a1.271,1.271,0,0,1,.317.041l-9.262,7.388-9.208-7.4a1.281,1.281,0,0,1,.258-.026Zm0,15.338H661.231a1.28,1.28,0,0,1-1.278-1.278V246.485l9.691,7.792a.852.852,0,0,0,1.065,0l9.694-7.733v12.606a1.28,1.28,0,0,1-1.278,1.278Z" transform="translate(-528.585 -198.619)" fill="#fff"/></svg>