<svg xmlns="http://www.w3.org/2000/svg" xmlns:xlink="http://www.w3.org/1999/xlink" width="266.613" height="166.721" viewBox="0 0 266.613 166.721"><defs><linearGradient id="a" y1="0.5" x2="1" y2="0.5" gradientUnits="objectBoundingBox"><stop offset="0" stop-color="gray" stop-opacity="0.251"/><stop offset="0.54" stop-color="gray" stop-opacity="0.122"/><stop offset="1" stop-color="gray" stop-opacity="0.102"/></linearGradient><linearGradient id="b" x1="0" y1="0.506" y2="0.506" xlink:href="#a"/><linearGradient id="c" x1="0" y1="0.494" x2="1.008" y2="0.494" xlink:href="#a"/><linearGradient id="d" x1="0" y1="0.506" x2="1.008" y2="0.506" xlink:href="#a"/></defs><g transform="translate(133.23)"><path d="M-10.73,747.34" transform="translate(-122.5 -591.132)" fill="none" stroke="#535461" stroke-miterlimit="10" stroke-width="2"/><path d="M432.572,666.776c-1.744.9-3.572,1.676-5.375,2.45-6.661,2.813-13.423,5.65-20.58,6.615-13.441,1.788-27.31-3.111-40.515-.054-11.062,2.553-20.21,10.376-31.017,13.859a50.392,50.392,0,0,1-15.528,2.254h-.681q-.98-.012-1.945-.049a105.646,105.646,0,0,1-15.962-2c-16.554-3.185-33.4-9.023-46.059-19.771C291.763,663.343,367.675,653.009,432.572,666.776Z" transform="translate(-323.059 -525.18)" fill="#252223" opacity="0.1"/><path d="M222.947,61V45.324h-9.31V61H202.613V36.75h-8.085V18.62h-6.615V0h-13.72V18.62h-6.615V36.75h-7.84v-21.8h-4.41V3.92h-2.695V14.945h-15.68V84.524h-12v-7.35H117.6v7.35h-12V61H84.034V45.324h-9.31V61h-.49V91.139h-9.8V73.5H52.674v17.64h-9.8V36.75H35.28V18.62H7.35V36.75H0v95.794H233.972V61Z" transform="translate(-100.589)" fill="#6c63ff" opacity="0.3"/><rect width="10.29" height="5.88" transform="translate(-95.934 42.384)" fill="#fff" opacity="0.4"/><rect width="10.29" height="5.88" transform="translate(-62.614 48.264) rotate(180)" fill="#fff" opacity="0.4"/><rect width="10.29" height="5.88" transform="translate(-95.934 53.899)" fill="#fff" opacity="0.4"/><rect width="10.29" height="5.88" transform="translate(-62.614 59.779) rotate(180)" fill="#fff" opacity="0.4"/><rect width="10.29" height="5.88" transform="translate(-95.934 65.414)" fill="#fff" opacity="0.4"/><rect width="10.29" height="5.88" transform="translate(-62.614 71.294) rotate(180)" fill="#fff" opacity="0.4"/><rect width="10.29" height="5.88" transform="translate(-95.934 76.929)" fill="#fff" opacity="0.4"/><rect width="10.29" height="5.88" transform="translate(-62.614 82.809) rotate(180)" fill="#fff" opacity="0.4"/><rect width="10.29" height="5.88" transform="translate(-95.934 88.444)" fill="#fff" opacity="0.4"/><rect width="10.29" height="5.88" transform="translate(-62.614 94.324) rotate(180)" fill="#fff" opacity="0.4"/><rect width="10.29" height="5.88" transform="translate(-95.934 99.959)" fill="#fff" opacity="0.4"/><rect width="10.29" height="5.88" transform="translate(-62.614 105.839) rotate(180)" fill="#fff" opacity="0.4"/><rect width="10.29" height="5.88" transform="translate(-95.934 111.474)" fill="#fff" opacity="0.4"/><rect width="10.29" height="5.88" transform="translate(-62.614 117.354) rotate(180)" fill="#fff" opacity="0.4"/><rect width="24.01" height="2.94" transform="translate(-54.04 97.019)" fill="#fff" opacity="0.4"/><rect width="24.01" height="2.94" transform="translate(-54.04 101.429)" fill="#fff" opacity="0.4"/><rect width="24.01" height="2.94" transform="translate(-54.04 105.839)" fill="#fff" opacity="0.4"/><rect width="24.01" height="2.94" transform="translate(8.68 98.489)" fill="#fff" opacity="0.4"/><rect width="24.01" height="2.94" transform="translate(8.68 102.899)" fill="#fff" opacity="0.4"/><rect width="24.01" height="2.94" transform="translate(8.68 107.309)" fill="#fff" opacity="0.4"/><rect width="24.01" height="2.94" transform="translate(-54.04 110.249)" fill="#fff" opacity="0.4"/><rect width="24.01" height="2.94" transform="translate(-54.04 114.659)" fill="#fff" opacity="0.4"/><rect width="24.01" height="2.94" transform="translate(-54.04 119.069)" fill="#fff" opacity="0.4"/><rect width="6.615" height="8.575" transform="translate(-21.21 66.639)" fill="#fff" opacity="0.4"/><rect width="6.615" height="8.575" transform="translate(-0.14 75.214) rotate(180)" fill="#fff" opacity="0.4"/><rect width="6.615" height="8.575" transform="translate(-21.21 80.359)" fill="#fff" opacity="0.4"/><rect width="6.615" height="8.575" transform="translate(-0.14 88.934) rotate(180)" fill="#fff" opacity="0.4"/><rect width="6.615" height="8.575" transform="translate(-21.21 94.079)" fill="#fff" opacity="0.4"/><rect width="6.615" height="8.575" transform="translate(-0.14 102.654) rotate(180)" fill="#fff" opacity="0.4"/><rect width="6.615" height="8.575" transform="translate(-21.21 107.799)" fill="#fff" opacity="0.4"/><rect width="6.615" height="8.575" transform="translate(-0.14 116.374) rotate(180)" fill="#fff" opacity="0.4"/><rect width="8.82" height="11.27" transform="translate(36.364 20.58)" fill="#fff" opacity="0.4"/><rect width="8.82" height="11.27" transform="translate(36.364 36.75)" fill="#fff" opacity="0.4"/><rect width="8.82" height="11.27" transform="translate(36.364 52.919)" fill="#fff" opacity="0.4"/><rect width="8.82" height="11.27" transform="translate(36.364 69.089)" fill="#fff" opacity="0.4"/><rect width="8.82" height="11.27" transform="translate(36.364 85.259)" fill="#fff" opacity="0.4"/><rect width="8.82" height="11.27" transform="translate(36.364 101.429)" fill="#fff" opacity="0.4"/><rect width="32.83" height="9.555" transform="translate(64.172 43.609)" fill="#fff" opacity="0.4"/><rect width="32.83" height="9.555" transform="translate(64.294 64.189)" fill="#fff" opacity="0.4"/><rect width="32.83" height="9.555" transform="translate(64.417 84.769)" fill="#fff" opacity="0.4"/><rect width="32.83" height="9.555" transform="translate(64.539 105.349)" fill="#fff" opacity="0.4"/><rect width="4.41" height="9.31" transform="translate(-93.239 23.765)" fill="#fff" opacity="0.4"/><rect width="11.025" height="14.21" transform="translate(122.358 66.639)" fill="#fff" opacity="0.4"/><rect width="11.025" height="14.21" transform="translate(122.358 87.219)" fill="#fff" opacity="0.4"/><rect width="11.025" height="14.21" transform="translate(122.358 107.799)" fill="#fff" opacity="0.4"/><path d="M156.074,584.2s-19.289,11.637,16.268,29.554c0,0,7.84-14.543-.828-26.4a11.677,11.677,0,0,0-15.148-3.32Z" transform="translate(-245.494 -475.708)" fill="#57358e"/><path d="M173.08,588.3s16.505,12.63,16.045,29.8" transform="translate(-261.277 -471.057)" fill="none" stroke="#535461" stroke-miterlimit="10" stroke-width="1"/><path d="M234.9,510.735s-6.044-20.521,1.134-35.625a32.405,32.405,0,0,0,2.621-20.335,54.512,54.512,0,0,0-2.879-9.555" transform="translate(-306.153 -363.031)" fill="none" stroke="#535461" stroke-miterlimit="10" stroke-width="2"/><path d="M235.925,391.949c0,2.516-4.555,9.8-4.555,9.8s-4.554-7.294-4.554-9.8a4.554,4.554,0,1,1,9.107,0Z" transform="translate(-301.847 -319.292)" fill="#57358e"/><path d="M266.553,441.8c-1.367,2.112-9.153,5.757-9.153,5.757s.142-8.6,1.509-10.709a4.555,4.555,0,0,1,7.644,4.949Z" transform="translate(-324.939 -355.209)" fill="#57358e"/><path d="M260.107,533.773c-2.247,1.132-10.807.35-10.807.35s4.461-7.35,6.708-8.482a4.554,4.554,0,1,1,4.1,8.132Z" transform="translate(-318.823 -423.38)" fill="#57358e"/><path d="M243.194,608.31c-2.021,1.494-10.594,2.171-10.594,2.171s3.156-8,5.177-9.494a4.554,4.554,0,1,1,5.417,7.323Z" transform="translate(-306.215 -479.961)" fill="#57358e"/><path d="M213.879,464.319c1.8,1.752,10.209,3.567,10.209,3.567s-2.058-8.347-3.861-10.1a4.555,4.555,0,1,0-6.345,6.532Z" transform="translate(-290.98 -371.487)" fill="#57358e"/><path d="M191.183,548.063c2.247,1.132,10.807.35,10.807.35s-4.461-7.35-6.708-8.482a4.554,4.554,0,1,0-4.1,8.132Z" transform="translate(-273.052 -434.169)" fill="#57358e"/><path d="M185.763,635.47c2.021,1.495,10.594,2.171,10.594,2.171s-3.156-8-5.179-9.494a4.554,4.554,0,1,0-5.417,7.323Z" transform="translate(-269.457 -500.467)" fill="#57358e"/><path d="M235.925,391.949c0,2.516-4.555,9.8-4.555,9.8s-4.554-7.294-4.554-9.8a4.554,4.554,0,1,1,9.107,0Z" transform="translate(-301.847 -319.292)" opacity="0.25"/><path d="M266.553,441.8c-1.367,2.112-9.153,5.757-9.153,5.757s.142-8.6,1.509-10.709a4.555,4.555,0,0,1,7.644,4.949Z" transform="translate(-324.939 -355.209)" opacity="0.25"/><path d="M260.107,533.773c-2.247,1.132-10.807.35-10.807.35s4.461-7.35,6.708-8.482a4.554,4.554,0,1,1,4.1,8.132Z" transform="translate(-318.823 -423.38)" opacity="0.25"/><path d="M243.194,608.31c-2.021,1.494-10.594,2.171-10.594,2.171s3.156-8,5.177-9.494a4.554,4.554,0,1,1,5.417,7.323Z" transform="translate(-306.215 -479.961)" opacity="0.25"/><path d="M213.879,464.319c1.8,1.752,10.209,3.567,10.209,3.567s-2.058-8.347-3.861-10.1a4.555,4.555,0,1,0-6.345,6.532Z" transform="translate(-290.98 -371.487)" opacity="0.25"/><path d="M191.183,548.063c2.247,1.132,10.807.35,10.807.35s-4.461-7.35-6.708-8.482a4.554,4.554,0,1,0-4.1,8.132Z" transform="translate(-273.052 -434.169)" opacity="0.25"/><path d="M185.763,635.47c2.021,1.495,10.594,2.171,10.594,2.171s-3.156-8-5.179-9.494a4.554,4.554,0,1,0-5.417,7.323Z" transform="translate(-269.457 -500.467)" opacity="0.25"/><path d="M1004.948,489.1s-6.044-20.521,1.134-35.625a32.406,32.406,0,0,0,2.621-20.335,54.516,54.516,0,0,0-2.879-9.555" transform="translate(-887.544 -346.7)" fill="none" stroke="#535461" stroke-miterlimit="10" stroke-width="2"/><path d="M1006.015,370.32c0,2.516-4.555,9.8-4.555,9.8s-4.554-7.294-4.554-9.8a4.554,4.554,0,1,1,9.107,0Z" transform="translate(-883.267 -302.963)" fill="#57358e"/><path d="M1036.6,419.575c-1.367,2.112-9.153,5.757-9.153,5.757s.142-8.6,1.509-10.709a4.555,4.555,0,1,1,7.644,4.949Z" transform="translate(-906.329 -338.288)" fill="#57358e"/><path d="M1030.167,512.143c-2.247,1.132-10.807.35-10.807.35s4.461-7.35,6.708-8.482a4.554,4.554,0,1,1,4.1,8.132Z" transform="translate(-900.221 -407.049)" fill="#57358e"/><path d="M1013.254,586.68c-2.021,1.494-10.594,2.171-10.594,2.171s3.156-8,5.177-9.494a4.554,4.554,0,1,1,5.417,7.323Z" transform="translate(-887.612 -463.63)" fill="#57358e"/><path d="M984.164,442.9c1.8,1.752,10.209,3.567,10.209,3.567s-2.058-8.347-3.861-10.1a4.555,4.555,0,1,0-6.348,6.534Z" transform="translate(-872.605 -355.37)" fill="#57358e"/><path d="M961.595,526.592c2.247,1.132,10.807.35,10.807.35s-4.461-7.35-6.708-8.482a4.554,4.554,0,0,0-4.1,8.131Z" transform="translate(-854.793 -417.997)" fill="#57358e"/><path d="M955.82,613.84c2.021,1.495,10.594,2.171,10.594,2.171s-3.156-8-5.177-9.494a4.554,4.554,0,1,0-5.417,7.323Z" transform="translate(-850.854 -484.136)" fill="#57358e"/><path d="M897.059,574.379s-3.249-11.025.61-19.144a17.417,17.417,0,0,0,1.409-10.927,29.3,29.3,0,0,0-1.546-5.128" transform="translate(-806.918 -433.971)" fill="none" stroke="#535461" stroke-miterlimit="10" stroke-width="2"/><path d="M897.62,510.68c0,1.352-2.45,5.27-2.45,5.27s-2.45-3.92-2.45-5.27a2.45,2.45,0,1,1,4.9,0Z" transform="translate(-804.607 -410.604)" fill="#57358e"/><path d="M914.07,536.852c-.735,1.134-4.92,3.094-4.92,3.094s.076-4.621.811-5.755a2.45,2.45,0,1,1,4.109,2.661Z" transform="translate(-817.012 -429.289)" fill="#57358e"/><path d="M910.609,586.867c-1.208.608-5.809.189-5.809.189s2.4-3.949,3.6-4.557a2.45,2.45,0,0,1,2.2,4.371Z" transform="translate(-813.728 -466.512)" fill="#57358e"/><path d="M901.514,626.995c-1.088.8-5.694,1.166-5.694,1.166s1.7-4.3,2.783-5.1a2.45,2.45,0,0,1,2.911,3.935Z" transform="translate(-806.948 -496.99)" fill="#57358e"/><path d="M885.63,549.29c.98.941,5.485,1.918,5.485,1.918s-1.1-4.486-2.075-5.427a2.45,2.45,0,1,0-3.41,3.511Z" transform="translate(-798.63 -438.37)" fill="#57358e"/><path d="M873.855,594.557c1.208.608,5.809.189,5.809.189s-2.4-3.949-3.6-4.557a2.45,2.45,0,0,0-2.2,4.371Z" transform="translate(-789.417 -472.318)" fill="#57358e"/><path d="M870.894,641.56c1.088.8,5.694,1.166,5.694,1.166s-1.705-4.3-2.783-5.1a2.45,2.45,0,0,0-2.911,3.937Z" transform="translate(-787.436 -507.975)" fill="#57358e"/><path d="M334.028,150.156h-1.686a1.181,1.181,0,1,0,0-2.359H318.689a1.181,1.181,0,0,0,0,2.359h1.686a1.181,1.181,0,1,0,0,2.359h-2.359a1.181,1.181,0,1,0,0,2.359h13.654a1.181,1.181,0,1,0,0-2.359h2.359a1.181,1.181,0,1,0,0-2.359Z" transform="translate(-369.771 -138.474)" fill="#252223" opacity="0.1"/><path d="M580.028,271.156h-1.686a1.181,1.181,0,1,0,0-2.359H564.689a1.181,1.181,0,0,0,0,2.359h1.686a1.181,1.181,0,1,0,0,2.359h-2.359a1.181,1.181,0,1,0,0,2.359h13.654a1.181,1.181,0,1,0,0-2.359h2.359a1.181,1.181,0,1,0,0-2.359Z" transform="translate(-555.502 -229.829)" fill="#252223" opacity="0.1"/><path d="M999.028,113.156h-1.686a1.181,1.181,0,1,0,0-2.359H983.689a1.181,1.181,0,0,0,0,2.359h1.686a1.181,1.181,0,1,0,0,2.359h-2.359a1.181,1.181,0,1,0,0,2.359h13.654a1.181,1.181,0,0,0,0-2.359h2.359a1.181,1.181,0,1,0,0-2.359Z" transform="translate(-871.848 -110.539)" fill="#252223" opacity="0.1"/><path d="M474.393,298.92h.054s-8.6-23.625-11.005-26.827c0,0-2.521-1.49-2.406-4.011l-3.094-15.013s.047-.047.125-.132l.066-.074.076-.088a7.192,7.192,0,0,0,1.027-1.615l.049-.113a6.188,6.188,0,0,0,.289-.811.855.855,0,0,0,.659-.034v-.225h0s-.029-.889-.032-2.281v-1.257c.1-.345.176-.708.245-1.1l-.125-.059v-.056l-.105-.049a47.711,47.711,0,0,1,1.171-10.376q.042-.152.088-.3c.953-3.134.98-6.958,1.225-10.192a10.388,10.388,0,0,1,.49,1.252,1.914,1.914,0,0,1,.414-.35l.96,7.686v9.065s-1.6,11.691,3.43,9.513,1.374-10.2,1.374-10.2a31.827,31.827,0,0,1,.688-6.762c.453-1.509.162-6.39-.093-9.555.49.086.779.154.779.154a5.36,5.36,0,0,0,.149-1.4c.105-5.285-6.412-13.8-9.065-17.047a7.617,7.617,0,0,0-3.06-2.695l-5.1-2.47a5.587,5.587,0,0,1-3.347-2.45.455.455,0,0,0-.025-.1q.159-.071.314-.154a5.65,5.65,0,0,0,1.994-1.6,13.88,13.88,0,0,0,2.1-4.79,19.132,19.132,0,0,0,1.093-6.064,6.476,6.476,0,0,0-2.7-5.3c-1.494-.936-3.579-1.112-4.508-2.612a5.779,5.779,0,0,0-.735-1.21.279.279,0,0,0-.225-.289l-2.568-.5a.279.279,0,0,0-.328.22v.037a15.528,15.528,0,0,0-6.6,1.676,15.012,15.012,0,0,0-2.087,1.225,4.2,4.2,0,0,0-2.007,2.695c-.066.571.071,1.156-.044,1.715-.311,1.5-2.318,2.472-2.024,3.974.2,1.019,1.352,1.458,2.433,1.47A8.139,8.139,0,0,0,440.6,199.6a23.5,23.5,0,0,1,2.058,3.5c-1.32,1.254-4.087,4.165-2.391,5.145l-3.528,8.717.343,8.984-1.487,1.328.326.407c-1.666,1.94-5.522,6.181-8.342,7.311a8.715,8.715,0,0,0-1.176.578,4.746,4.746,0,0,1-1.688.661,4.654,4.654,0,0,0-.774.152l-.674-1.4a1,1,0,0,0-1.343-.468l-.414.2h0l-.98.473-.409.2h0l-.309.149a1,1,0,0,0-.468,1.34l.816,1.69c-1.159,1.022-1.727,2.242-.147,3.379a3.43,3.43,0,0,0,2.095.661l.49,1.027a1,1,0,0,0,1.343.468l.718-.348,1.392-.671a1,1,0,0,0,.468-1.343l-.407-.845a16.576,16.576,0,0,0,2.489-2.389,15.765,15.765,0,0,1,3.325-1.6,36.169,36.169,0,0,0,5.449-3.263l.5,13.23a2.807,2.807,0,0,1-.387.475l.394-.279v.1a2.188,2.188,0,0,1-.169.181l.172-.123v.159a2.207,2.207,0,0,1-.179.191l.181-.127.074,1.389.862-1.431.054,1.431.2-.333a71.52,71.52,0,0,0-7.259,16.263s-2.636,4.584-2.293,9.283l-4.814,23.275.093.034c-1.568,1.132-4.873,3.207-8.114,3.29,0,0-7.793-.23-5.615,1.49s21.547,4.241,21.547,4.241l.735-5.794.172.064v-.091l.245.091s-.468-2.881,1.247-4.486,5.73-17.885,5.39-20.4a100.786,100.786,0,0,1,6.929-13.823l4.528,11.642,5.042,8.71s6.708,14.915,6.492,18.238c-1.409,1.715-3.92,4.41-5.8,4.339,0,0-7.678,1.49-2.406,2.866s20.744-3.773,20.744-3.773Zm-33.565-53.326.047-.027c-.245.37-.49.779-.769,1.225Z" transform="translate(-440.675 -160.085)" fill="url(#a)"/><path d="M519.172,465.94l-.292.213A1.242,1.242,0,0,0,519.172,465.94Z" transform="translate(-522.357 -378.674)" fill="url(#b)"/><path d="M520.1,466.88l-.292.213A1.242,1.242,0,0,0,520.1,466.88Z" transform="translate(-523.059 -379.384)" fill="url(#c)"/><path d="M520.1,465.94l-.292.213A1.242,1.242,0,0,0,520.1,465.94Z" transform="translate(-523.059 -378.674)" fill="url(#d)"/><path d="M594.6,667.952s-4.023,5.7-6.706,5.586c0,0-7.487,1.453-2.347,2.793s20.224-3.687,20.224-3.687l-1.793-5.843Z" transform="translate(-571.329 -530.324)" fill="#333"/><path d="M554.62,465.157l5.7,14.639,4.929,8.5s6.76,15.028,6.314,17.934l10.78-1.732s-8.381-23.03-10.726-26.146c0,0-2.45-1.453-2.347-3.92L566.252,459.8s2.94-2.832,1.294-6.37a5.957,5.957,0,0,0-.289-.549c-2.254-3.8-10.736-1.686-10.736-1.686Z" transform="translate(-549.341 -367.097)" fill="#535461"/><path d="M554.62,465.157l5.7,14.639,4.929,8.5s6.76,15.028,6.314,17.934l10.78-1.732s-8.381-23.03-10.726-26.146c0,0-2.45-1.453-2.347-3.92L566.252,459.8s2.94-2.832,1.294-6.37a5.957,5.957,0,0,0-.289-.549c-2.254-3.8-10.736-1.686-10.736-1.686Z" transform="translate(-549.341 -367.097)" opacity="0.03"/><g transform="translate(11.921 83.513)" opacity="0.1"><path d="M592.074,478.37s-2.45-1.453-2.347-3.92l-3.016-14.639s2.94-2.832,1.294-6.37a5.957,5.957,0,0,0-.289-.549c-1.083-1.842-3.641-2.293-5.985-2.266,2.249.02,4.616.512,5.65,2.266a5.957,5.957,0,0,1,.289.549c1.639,3.548-1.294,6.37-1.294,6.37l3.016,14.646c-.113,2.45,2.347,3.92,2.347,3.92,2.347,3.129,10.726,26.146,10.726,26.146L592.022,506.2v.054l10.78-1.732S594.421,481.5,592.074,478.37Z" transform="translate(-581.73 -450.625)"/></g><path d="M428.7,661.47s-4.469,3.8-8.82,3.92c0,0-7.595-.223-5.476,1.453s21.006,4.135,21.006,4.135l.84-6.539Z" transform="translate(-443.192 -526.3)" fill="#333"/><g transform="translate(-15.281 81.773)" opacity="0.1"><path d="M487.909,444.959s-7.374,10.393-10.29,20.9c0,0-2.57,4.469-2.234,9.05L470.7,497.589l8.6,3.241s-.446-2.793,1.225-4.358,5.586-17.432,5.253-19.889c0,0,5.363-13.409,10.726-18.661s8.033-6.463,8.82-11C505.333,446.924,492.713,440.823,487.909,444.959Z" transform="translate(-470.7 -443.521)"/></g><path d="M486.938,444.959s-7.374,10.393-10.29,20.9c0,0-2.57,4.469-2.234,9.05l-4.694,22.684,8.6,3.241s-.446-2.793,1.225-4.359,5.586-17.432,5.253-19.889c0,0,5.363-13.409,10.726-18.661s8.033-6.463,8.82-11C504.37,446.924,491.75,440.823,486.938,444.959Z" transform="translate(-485.241 -361.748)" fill="#535461"/><g transform="translate(-7.18 81.661)" opacity="0.1"><path d="M517.413,443.067c5.539.066,12.438,3.4,12.438,3.4-.789,4.535-3.457,5.745-8.82,11S510.3,476.124,510.3,476.124c.336,2.45-3.575,18.326-5.253,19.889-1.47,1.362-1.308,3.653-1.247,4.226l.353.132s-.446-2.793,1.225-4.358,5.593-17.439,5.258-19.889c0,0,5.363-13.409,10.726-18.661s8.033-6.463,8.82-11C530.188,446.48,523,443,517.413,443.067Z" transform="translate(-503.766 -443.066)"/></g><path d="M464.5,383.26s-5.334,6.642-8.933,8.085a8.5,8.5,0,0,0-1.147.563,4.628,4.628,0,0,1-1.646.644,4.037,4.037,0,0,0-1.247.328c-1.872.862-6.189,3.185-3.339,5.243,3.575,2.57,8.381-3.352,8.381-3.352a15.383,15.383,0,0,1,3.241-1.566c1.2-.287,6.7-4.131,6.7-4.131Z" transform="translate(-468.267 -316.251)" fill="#fda57d"/><path d="M392.742,268.03l-2.122,1.9,3.129,3.91Z" transform="translate(-395.508 -202.363)" fill="#57358e"/><g transform="translate(-1.888 65.667)" opacity="0.1"><path d="M392.742,268.03l-2.122,1.9,3.129,3.91Z" transform="translate(-393.62 -268.03)" fill="#57358e"/></g><path d="M524.057,287s-5.086,4.359-2.957,5.586l-3.43,8.492,1.183,31.063L523.7,324.1l-3.312-17.432s-.946-10.393,1.774-12.85l2.6-5.145Z" transform="translate(-521.443 -243.574)" fill="#57358e"/><g transform="translate(-2.879 43.426)" opacity="0.1"><path d="M527.707,287s-5.086,4.359-2.957,5.586l-3.43,8.492,1.183,31.063,4.849-8.046-3.312-17.432s-.946-10.393,1.774-12.85l2.6-5.145Z" transform="translate(-521.32 -287)"/></g><path d="M527.71,250.731s4.136,5.027,4.023,7.933,7.823-5.027,7.823-5.027-3.016-3.687-2.234-7.595S527.71,250.731,527.71,250.731Z" transform="translate(-529.024 -211.881)" fill="#fda57d"/><path d="M623.95,366.568l1.117,8.94v8.82s-1.565,11.4,3.352,9.276,1.34-9.944,1.34-9.944a31.021,31.021,0,0,1,.671-6.593c.671-2.234-.343-12.066-.343-12.066Z" transform="translate(-601.685 -302.464)" fill="#fda57d"/><path d="M535.272,285.2s-3.016,2.906-4.581,1.9l-2.146,5.334a24.5,24.5,0,0,0-1.744,10.275l.764,20.149,3.352-.446,1.117-19.11,1.676-11.62Z" transform="translate(-528.317 -242.215)" fill="#f2f2f2"/><g transform="translate(-3.313 39.912)" opacity="0.1"><path d="M532.334,272.66s-3.969,2.737-5.079,5.084c0,0-.113,2.57-1,3.687s-1.789,6.706-2.011,13.409-1.225,15.643-1.225,15.643-1.676,8.715-3.464,9.609c0,0,8.269-6.257,12.292-4.136s8.6,7.264,9.944,6.48c0,0-.323-9.8,1.144-15.016q.042-.149.086-.292c1.566-5.145.559-12.179,2.347-15.19a46.877,46.877,0,0,0-1.031-9.54,7.372,7.372,0,0,0-3.944-4.814l-4.969-2.406S532.78,274.782,532.334,272.66Z" transform="translate(-519.55 -272.66)"/></g><g transform="translate(-3.095 39.912)" opacity="0.1"><path d="M533.006,272.66s-3.744,2.962-4.861,5.307c0,0-.113,2.57-1,3.687s-1.788,6.706-2.011,13.409-1.225,15.643-1.225,15.643-1.676,8.715-3.464,9.609c0,0,8.269-6.257,12.292-4.136s8.6,7.264,9.944,6.48c0,0-.323-9.8,1.144-15.016q.042-.149.086-.292c1.566-5.145.559-12.179,2.347-15.19a46.883,46.883,0,0,0-1.031-9.54,7.372,7.372,0,0,0-3.944-4.814l-4.969-2.406S533.452,274.782,533.006,272.66Z" transform="translate(-520.44 -272.66)"/></g><path d="M532.95,272.43s-3.687,2.793-4.8,5.145c0,0-.113,2.57-1,3.687s-1.788,6.706-2.011,13.409-1.225,15.643-1.225,15.643-1.676,8.715-3.464,9.609c0,0,8.269-6.257,12.292-4.136s8.6,7.252,9.94,6.478c0,0-.323-9.8,1.144-15.016q.042-.149.086-.292c1.566-5.145.559-12.179,2.347-15.19a46.88,46.88,0,0,0-1.031-9.54,7.372,7.372,0,0,0-3.944-4.814l-4.969-2.406S533.787,274.385,532.95,272.43Z" transform="translate(-523.535 -232.574)" fill="#57358e"/><g transform="translate(13.387 45.604)" opacity="0.1"><path d="M593.966,296.681s11.341,12.906,9.778,19.051c0,0-5.811-1.34-7.374.446a12.784,12.784,0,0,0-4.917-6.48C587.76,307.353,584.355,292.322,593.966,296.681Z" transform="translate(-587.715 -295.893)"/></g><path d="M593.966,295.771s11.341,12.906,9.778,19.051c0,0-5.811-1.34-7.374.446a12.784,12.784,0,0,0-4.917-6.48C587.76,306.443,584.355,291.412,593.966,295.771Z" transform="translate(-574.328 -249.601)" fill="#57358e"/><g transform="translate(-0.865 33.689)" opacity="0.1"><path d="M538.982,250.239a3.6,3.6,0,0,1,.167-1.96c.782-3.92-9.609,4.694-9.609,4.694s.578.7,1.3,1.737a7.964,7.964,0,0,0,1.61.164C535.288,254.877,537.578,252.478,538.982,250.239Z" transform="translate(-529.54 -247.256)"/></g><circle cx="7.933" cy="7.933" r="7.933" transform="translate(-6.341 24.882)" fill="#fda57d"/><g transform="translate(-8.447 18.349)" opacity="0.1"><path d="M501.507,196.941c-1.169.157-2.658-.245-2.884-1.389-.284-1.47,1.671-2.413,1.975-3.873.113-.549-.022-1.12.044-1.673a4.1,4.1,0,0,1,1.96-2.631,15.045,15.045,0,0,1,10.006-2.666,2.247,2.247,0,0,1,1.24.392,4.593,4.593,0,0,1,.8,1.254c.906,1.47,2.94,1.634,4.4,2.546a6.283,6.283,0,0,1,2.626,5.167,18.481,18.481,0,0,1-1.066,5.912,13.464,13.464,0,0,1-2.048,4.67,4.614,4.614,0,0,1-4.479,1.879c.762-.549.208-1.823-.617-2.271s-1.85-.524-2.555-1.142a4.766,4.766,0,0,1-1.147-2.546,6.712,6.712,0,0,0-1.556-3.185C506.534,195.731,503.543,196.667,501.507,196.941Z" transform="translate(-498.595 -184.646)"/></g><path d="M502.417,196.491c-1.169.157-2.658-.245-2.884-1.389-.284-1.47,1.671-2.413,1.975-3.873.113-.549-.022-1.12.044-1.673a4.1,4.1,0,0,1,1.96-2.631,15.045,15.045,0,0,1,10.006-2.666,2.247,2.247,0,0,1,1.24.392,4.594,4.594,0,0,1,.8,1.254c.907,1.47,2.94,1.634,4.4,2.546a6.283,6.283,0,0,1,2.626,5.167,18.478,18.478,0,0,1-1.066,5.912,13.464,13.464,0,0,1-2.048,4.67,4.614,4.614,0,0,1-4.479,1.879c.762-.549.208-1.823-.617-2.271s-1.85-.524-2.555-1.142a4.893,4.893,0,0,1-1.159-2.546,6.712,6.712,0,0,0-1.556-3.185C507.447,195.278,504.453,196.217,502.417,196.491Z" transform="translate(-507.729 -165.957)" fill="#72351c"/><path d="M542.1,187.679,542.82,184a.272.272,0,0,0-.216-.321l-2.536-.49a.272.272,0,0,0-.321.216l-.718,3.675-2.45,9.084,4.5.877Z" transform="translate(-535.721 -165.196)" fill="#cbdae3"/><g transform="translate(-1.257 29.074)" opacity="0.1"><circle cx="3.91" cy="3.91" r="3.91"/></g><circle cx="3.91" cy="3.91" r="3.91" transform="translate(-1.257 29.184)" fill="#cbdae3"/><circle cx="2.563" cy="2.563" r="2.563" transform="translate(0.09 30.532)" fill="#e9e9e9"/><circle cx="0.782" cy="0.782" r="0.782" transform="translate(1.871 32.313)" fill="#f48681"/><rect width="3.129" height="0.113" transform="translate(3.376 21.551) rotate(11.05)" opacity="0.05"/><rect width="3.8" height="9.276" rx="1.9" transform="translate(-21.165 76.056) rotate(-25.74)" fill="#cbdae3"/><g transform="translate(-21.165 74.406)" opacity="0.1"><rect width="3.8" height="9.276" rx="1.9" transform="translate(0 1.65) rotate(-25.74)"/></g><rect width="3.91" height="9.276" rx="1.955" transform="translate(-20.863 75.91) rotate(-25.74)" fill="#cbdae3"/><rect width="2.955" height="7.039" transform="translate(-20.144 76.307) rotate(-25.74)" fill="#f2f2f2"/><ellipse cx="0.336" cy="0.446" rx="0.336" ry="0.446" transform="translate(-15.861 82.431) rotate(-25.74)" fill="#f2f2f2"/></g></svg>