<svg xmlns="http://www.w3.org/2000/svg" width="20.685" height="20.685" viewBox="0 0 20.685 20.685">
  <path id="Icon_awesome-info-circle" data-name="Icon awesome-info-circle" d="M10.905.563A10.343,10.343,0,1,0,21.248,10.905,10.344,10.344,0,0,0,10.905.563Zm0,4.587A1.752,1.752,0,1,1,9.153,6.9,1.752,1.752,0,0,1,10.905,5.15ZM13.24,15.743a.5.5,0,0,1-.5.5H9.07a.5.5,0,0,1-.5-.5v-1a.5.5,0,0,1,.5-.5h.5V11.572h-.5a.5.5,0,0,1-.5-.5v-1a.5.5,0,0,1,.5-.5h2.669a.5.5,0,0,1,.5.5v4.17h.5a.5.5,0,0,1,.5.5Z" transform="translate(-0.563 -0.563)" fill="#57358e"/>
</svg>
