<?xml version="1.0" encoding="UTF-8" standalone="no"?>
<svg
   xmlns:dc="http://purl.org/dc/elements/1.1/"
   xmlns:cc="http://creativecommons.org/ns#"
   xmlns:rdf="http://www.w3.org/1999/02/22-rdf-syntax-ns#"
   xmlns:svg="http://www.w3.org/2000/svg"
   xmlns="http://www.w3.org/2000/svg"
   xmlns:sodipodi="http://sodipodi.sourceforge.net/DTD/sodipodi-0.dtd"
   xmlns:inkscape="http://www.inkscape.org/namespaces/inkscape"
   inkscape:version="1.0 (4035a4fb49, 2020-05-01)"
   height="175.48116"
   width="174.58089"
   sodipodi:docname="logo--small.svg"
   xml:space="preserve"
   viewBox="0 0 174.58089 175.48116"
   y="0px"
   x="0px"
   id="Layer_1"
   version="1.1"><metadata
   id="metadata68"><rdf:RDF><cc:Work
       rdf:about=""><dc:format>image/svg+xml</dc:format><dc:type
         rdf:resource="http://purl.org/dc/dcmitype/StillImage" /><dc:title></dc:title></cc:Work></rdf:RDF></metadata><defs
   id="defs66" /><sodipodi:namedview
   inkscape:current-layer="Layer_1"
   inkscape:window-maximized="1"
   inkscape:window-y="-9"
   inkscape:window-x="-9"
   inkscape:cy="60.491856"
   inkscape:cx="-60.359796"
   inkscape:zoom="1.4142136"
   showgrid="false"
   id="namedview64"
   inkscape:window-height="1001"
   inkscape:window-width="1920"
   inkscape:pageshadow="2"
   inkscape:pageopacity="0"
   guidetolerance="10"
   gridtolerance="10"
   objecttolerance="10"
   borderopacity="1"
   bordercolor="#666666"
   pagecolor="#ffffff" />
<style
   id="style2"
   type="text/css">
	.st0{fill:url(#SVGID_1_);}
	.st1{fill:url(#SVGID_2_);}
	.st2{fill:url(#SVGID_3_);}
	.st3{fill:url(#SVGID_4_);}
	.st4{fill:url(#SVGID_5_);}
</style>
<linearGradient
   gradientTransform="matrix(0.12886433,0,0,0.12886597,26.275563,27.221594)"
   y2="358"
   x2="839"
   y1="358"
   x1="400"
   gradientUnits="userSpaceOnUse"
   id="SVGID_1_">
	<stop
   id="stop4"
   style="stop-color:#38A3B4"
   offset="0" />
	<stop
   id="stop6"
   style="stop-color:#60399D"
   offset="1" />
</linearGradient>
<path
   style="fill:url(#SVGID_1_);stroke-width:0.999998"
   id="path9"
   d="m 81.107339,35.469015 v 0 c -1.807969,0 -3.286044,1.47939 -3.286044,3.287374 v 2.993554 c 0,1.864692 1.542503,3.349228 3.407171,3.302839 0.474224,-0.01159 0.949735,-0.01807 1.427818,-0.01807 21.743276,0 39.370626,12.412367 39.370626,27.724222 0,15.311855 -17.62735,27.724216 -39.370626,27.724216 -0.478083,0 -0.954881,-0.007 -1.427818,-0.0181 -1.864668,-0.0476 -3.407171,1.43686 -3.407171,3.30156 v 4.18815 c 0,1.80798 1.478075,3.28607 3.286044,3.28736 v 0 c 29.428741,-2e-5 53.285391,-16.962642 53.285391,-37.886613 0,-20.923963 -23.85665,-37.886595 -53.285391,-37.886595 z"
   class="st0" />
<linearGradient
   gradientTransform="matrix(0,0.12886597,-0.12886433,0,105.01715,-6.8565994)"
   y2="157.8728"
   x2="1137.4858"
   y1="233.6237"
   x1="360.46609"
   gradientUnits="userSpaceOnUse"
   id="SVGID_2_">
	<stop
   id="stop11"
   style="stop-color:#60399D"
   offset="0.063" />
	<stop
   id="stop13"
   style="stop-color:#594CA1"
   offset="0.2766" />
	<stop
   id="stop15"
   style="stop-color:#467EAC"
   offset="0.7087" />
	<stop
   id="stop17"
   style="stop-color:#38A3B4"
   offset="1" />
</linearGradient>
<path
   style="fill:url(#SVGID_2_);stroke-width:0.999998"
   id="path20"
   d="M 73.656402,138.98318 V 41.529585 c 0,-3.326026 2.695841,-6.021909 6.021832,-6.021909 h 0.344065 c 3.325983,0 6.021823,2.695883 6.021823,6.021909 v 97.454885 c 0,3.32603 -2.69584,6.0219 -6.021823,6.0219 h -0.344065 c -3.324704,-8.5e-4 -6.021832,-2.69716 -6.021832,-6.02319 z"
   class="st1" />
<linearGradient
   gradientTransform="matrix(0.12886433,0,0,0.12886597,26.275563,27.221594)"
   y2="320"
   x2="521"
   y1="320"
   x1="521"
   gradientUnits="userSpaceOnUse"
   id="SVGID_3_">
	<stop
   id="stop22"
   style="stop-color:#FFFF00"
   offset="0.063" />
	<stop
   id="stop24"
   style="stop-color:#FCDC08"
   offset="0.2149" />
	<stop
   id="stop26"
   style="stop-color:#F7A414"
   offset="0.4807" />
	<stop
   id="stop28"
   style="stop-color:#F47C1D"
   offset="0.7097" />
	<stop
   id="stop30"
   style="stop-color:#F26322"
   offset="0.8903" />
	<stop
   id="stop32"
   style="stop-color:#F15A24"
   offset="1" />
</linearGradient>
<path
   style="fill:url(#SVGID_3_);stroke-width:0.999998"
   id="path35"
   d="M 93.413878,68.458712"
   class="st2" />
<linearGradient
   gradientTransform="matrix(0.12886433,0,0,0.12886597,26.275563,27.221594)"
   y2="192"
   x2="513"
   y1="192"
   x1="513"
   gradientUnits="userSpaceOnUse"
   id="SVGID_4_">
	<stop
   id="stop37"
   style="stop-color:#FFFF00"
   offset="0.063" />
	<stop
   id="stop39"
   style="stop-color:#FCDC08"
   offset="0.2149" />
	<stop
   id="stop41"
   style="stop-color:#F7A414"
   offset="0.4807" />
	<stop
   id="stop43"
   style="stop-color:#F47C1D"
   offset="0.7097" />
	<stop
   id="stop45"
   style="stop-color:#F26322"
   offset="0.8903" />
	<stop
   id="stop47"
   style="stop-color:#F15A24"
   offset="1" />
</linearGradient>
<path
   style="fill:url(#SVGID_4_);stroke-width:0.999998"
   id="path50"
   d="M 92.382964,51.963859"
   class="st3" />
<linearGradient
   gradientTransform="matrix(0,0.12886597,-0.12886433,0,105.01715,-6.8565994)"
   y2="288.22049"
   x2="1063.3719"
   y1="350.60651"
   x1="423.4422"
   gradientUnits="userSpaceOnUse"
   id="SVGID_5_">
	<stop
   id="stop52"
   style="stop-color:#60399D"
   offset="0.063" />
	<stop
   id="stop54"
   style="stop-color:#594CA1"
   offset="0.2766" />
	<stop
   id="stop56"
   style="stop-color:#467EAC"
   offset="0.7087" />
	<stop
   id="stop58"
   style="stop-color:#38A3B4"
   offset="1" />
</linearGradient>
<path
   style="fill:url(#SVGID_5_);stroke-width:0.999998"
   id="path61"
   d="M 58.105052,129.08499 V 49.782162 c 0,-2.989694 2.422655,-5.412371 5.412302,-5.412371 h 0.773186 c 2.989647,0 5.412302,2.422677 5.412302,5.412371 V 129.0837 c 0,2.98969 -2.422655,5.41237 -5.412302,5.41237 h -0.773186 c -2.989647,8.5e-4 -5.412302,-2.42268 -5.412302,-5.41108 z"
   class="st4" />
</svg>
